<svg width="18" height="17" viewBox="0 0 18 17" fill="none" xmlns="http://www.w3.org/2000/svg">
<path fill-rule="evenodd" clip-rule="evenodd" d="M4.83268 7.33268C4.83268 6.87268 5.20602 6.49935 5.66602 6.49935C6.12602 6.49935 6.49935 6.87268 6.49935 7.33268C6.49935 7.79268 6.12602 8.16602 5.66602 8.16602C5.20602 8.16602 4.83268 7.79268 4.83268 7.33268ZM8.99935 6.49935C8.53935 6.49935 8.16602 6.87268 8.16602 7.33268C8.16602 7.79268 8.53935 8.16602 8.99935 8.16602C9.45935 8.16602 9.83268 7.79268 9.83268 7.33268C9.83268 6.87268 9.45935 6.49935 8.99935 6.49935ZM12.3327 6.49935C11.8727 6.49935 11.4993 6.87268 11.4993 7.33268C11.4993 7.79268 11.8727 8.16602 12.3327 8.16602C12.7927 8.16602 13.166 7.79268 13.166 7.33268C13.166 6.87268 12.7927 6.49935 12.3327 6.49935ZM15.666 11.4993C15.666 11.9585 15.2918 12.3327 14.8327 12.3327H6.12768C5.67518 12.3327 5.23018 12.456 4.84102 12.6893L2.33268 14.1943V3.16602C2.33268 2.70685 2.70685 2.33268 3.16602 2.33268H14.8327C15.2918 2.33268 15.666 2.70685 15.666 3.16602V11.4993ZM14.8327 0.666016H3.16602C1.78768 0.666016 0.666016 1.78768 0.666016 3.16602V15.666C0.666016 15.966 0.827682 16.2435 1.08852 16.391C1.21602 16.4635 1.35768 16.4993 1.49935 16.4993C1.64768 16.4993 1.79602 16.4602 1.92852 16.3802L5.69852 14.1185C5.82852 14.0402 5.97685 13.9993 6.12768 13.9993H14.8327C16.211 13.9993 17.3327 12.8777 17.3327 11.4993V3.16602C17.3327 1.78768 16.211 0.666016 14.8327 0.666016Z" fill="#718296"/>
</svg>
