<svg width="57" height="55" viewBox="0 0 57 55" fill="none" xmlns="http://www.w3.org/2000/svg">
<g clip-path="url(#clip0)">
<path d="M42.9528 44.8259C45.8401 46.7215 48.881 46.0294 51.788 45.6243C52.4503 45.532 53.1052 43.6578 53.7234 42.6697C54.4798 41.4605 55.2072 40.7357 55.7003 37.451C56.3208 33.3166 56.7587 26.1495 56.3667 21.1781C56.0107 16.6634 54.8315 14.3084 53.9501 13.0592C53.2185 12.0223 52.4437 11.8795 51.6881 11.7129C49.4484 11.2193 47.206 11.1921 44.9688 10.4067C43.0655 9.7385 41.1662 8.55632 39.2631 7.79841C36.7054 6.78001 34.1842 7.35355 31.6259 6.91464C27.5243 6.21096 23.4279 5.18916 19.3146 5.05491C16.9728 4.97847 14.6382 4.71384 12.2956 4.88082C11.0259 4.97132 9.66535 4.38815 8.4062 5.31673C7.37084 6.08027 6.39025 7.79604 5.40783 9.45787C4.17913 11.5362 2.85103 12.7011 1.6599 15.2392C0.667538 17.3538 0.456055 18.4563 0.473639 23.5753C0.487244 27.5357 0.740085 30.7589 1.13413 34.2393C1.55437 37.9509 2.28791 40.2378 3.08107 41.8363C3.67871 43.0408 4.2446 44.4115 4.86637 45.3985C6.17735 47.4793 7.46066 47.2952 8.81541 47.9732C11.3001 49.2169 13.7997 48.7688 16.2839 49.9402C22.1756 52.7183 28.1847 50.877 34.0902 50.4561C36.9544 50.252 39.8186 50.0478 42.6828 49.8437C43.8836 49.758 45.0845 49.6725 46.2854 49.5868C46.9308 49.5409 47.722 50.1439 48.2855 48.7302" stroke="black" stroke-width="4" stroke-linecap="round" stroke-linejoin="round"/>
</g>
<defs>
<clipPath id="clip0">
<rect width="57" height="55" fill="white"/>
</clipPath>
</defs>
</svg>
