<svg width="20" height="20" viewBox="0 0 20 20" fill="none" xmlns="http://www.w3.org/2000/svg">
<path d="M18.3008 10.0399L19.3108 13.0399C19.3703 13.2158 19.3796 13.4049 19.3376 13.5858C19.2957 13.7667 19.2042 13.9324 19.0733 14.0643C18.9425 14.1961 18.7776 14.289 18.597 14.3323C18.4164 14.3757 18.2273 14.3679 18.0508 14.3099L15.0408 13.3099C13.5513 14.0271 11.856 14.194 10.2553 13.781C8.65448 13.368 7.25153 12.4018 6.2949 11.0535C5.33828 9.70522 4.88972 8.06185 5.02869 6.41451C5.16766 4.76717 5.88519 3.22218 7.05417 2.05319C8.22315 0.884209 9.76815 0.166685 11.4155 0.027716C13.0628 -0.111253 14.7062 0.337301 16.0545 1.29393C17.4028 2.25055 18.369 3.65351 18.782 5.25428C19.195 6.85506 19.0281 8.55035 18.3108 10.0399H18.3008ZM9.00083 7.99985C9.26605 7.99985 9.5204 7.8945 9.70794 7.70696C9.89547 7.51942 10.0008 7.26507 10.0008 6.99985C10.0008 6.73464 9.89547 6.48028 9.70794 6.29275C9.5204 6.10521 9.26605 5.99985 9.00083 5.99985C8.73561 5.99985 8.48126 6.10521 8.29372 6.29275C8.10619 6.48028 8.00083 6.73464 8.00083 6.99985C8.00083 7.26507 8.10619 7.51942 8.29372 7.70696C8.48126 7.8945 8.73561 7.99985 9.00083 7.99985ZM12.0008 7.99985C12.266 7.99985 12.5204 7.8945 12.7079 7.70696C12.8955 7.51942 13.0008 7.26507 13.0008 6.99985C13.0008 6.73464 12.8955 6.48028 12.7079 6.29275C12.5204 6.10521 12.266 5.99985 12.0008 5.99985C11.7356 5.99985 11.4813 6.10521 11.2937 6.29275C11.1062 6.48028 11.0008 6.73464 11.0008 6.99985C11.0008 7.26507 11.1062 7.51942 11.2937 7.70696C11.4813 7.8945 11.7356 7.99985 12.0008 7.99985ZM15.0008 7.99985C15.266 7.99985 15.5204 7.8945 15.7079 7.70696C15.8955 7.51942 16.0008 7.26507 16.0008 6.99985C16.0008 6.73464 15.8955 6.48028 15.7079 6.29275C15.5204 6.10521 15.266 5.99985 15.0008 5.99985C14.7356 5.99985 14.4813 6.10521 14.2937 6.29275C14.1062 6.48028 14.0008 6.73464 14.0008 6.99985C14.0008 7.26507 14.1062 7.51942 14.2937 7.70696C14.4813 7.8945 14.7356 7.99985 15.0008 7.99985Z" fill="#CBD5E0"/>
<path d="M13.8807 15.7996C12.9538 17.2316 11.536 18.2759 9.89345 18.7362C8.25094 19.1965 6.49686 19.0413 4.96075 18.2996L1.96075 19.3096C1.78478 19.3691 1.59574 19.3783 1.4148 19.3364C1.23386 19.2945 1.06817 19.2029 0.936319 19.0721C0.804463 18.9413 0.711648 18.7764 0.668274 18.5958C0.6249 18.4152 0.632682 18.226 0.690748 18.0496L1.69075 15.0396C1.06145 13.7431 0.849509 12.2834 1.08411 10.8615C1.31871 9.43951 1.98832 8.12525 3.00075 7.09961C3.01576 8.4325 3.32665 9.74541 3.91097 10.9435C4.49529 12.1416 5.33843 13.1949 6.3795 14.0274C7.42056 14.8598 8.63354 15.4506 9.9308 15.7571C11.2281 16.0636 12.5772 16.0781 13.8807 15.7996Z" fill="#4A5568"/>
</svg>
