<svg width="18" height="18" viewBox="0 0 18 18" fill="none" xmlns="http://www.w3.org/2000/svg">
<path fill-rule="evenodd" clip-rule="evenodd" d="M15.1326 12.6332L9.91675 15.0568V8.90049L15.4168 6.34573V12.2445C15.4168 12.404 15.3086 12.5525 15.1326 12.6332V12.6332ZM2.86116 12.6341C2.68791 12.5534 2.58158 12.4049 2.58341 12.2381V6.34573L8.08341 8.90048V15.0587L2.86116 12.6341ZM8.73151 2.64236C8.81492 2.60294 8.90751 2.58369 9.00009 2.58369C9.09176 2.58369 9.18434 2.60294 9.26776 2.64236L14.1527 4.91019L9.00009 7.30453L3.84659 4.91019L8.73151 2.64236ZM16.9347 4.65448C16.932 4.64715 16.9329 4.6389 16.9292 4.63157C16.9265 4.62423 16.9192 4.61965 16.9146 4.61232C16.8724 4.54265 16.8211 4.48123 16.7725 4.41707C16.7441 4.3859 16.7212 4.35107 16.69 4.32448C16.4746 4.07148 16.2207 3.84873 15.9053 3.70298L10.0387 0.977732C10.0377 0.977732 10.0368 0.977732 10.0368 0.976816C9.37774 0.672482 8.62149 0.673399 7.96058 0.977732L2.09666 3.70207C1.78133 3.84782 1.52649 4.06965 1.31108 4.32265C1.27716 4.35107 1.25241 4.38957 1.22216 4.42348C1.17449 4.4849 1.12591 4.54448 1.08558 4.61048C1.08099 4.61873 1.07366 4.62423 1.06999 4.63157C1.06633 4.63982 1.06724 4.64807 1.06358 4.65632C0.870159 4.98815 0.750076 5.36123 0.750076 5.75357V12.2316C0.742743 13.1025 1.26708 13.9128 2.08658 14.296L7.95233 17.0203C8.28416 17.1752 8.63983 17.2522 8.99641 17.2522C9.35208 17.2522 9.70774 17.1752 10.0387 17.0212L15.9026 14.2969C16.7202 13.9192 17.2492 13.1144 17.2501 12.2454V5.75265C17.2492 5.36032 17.1291 4.98723 16.9347 4.65448V4.65448Z" fill="#718296"/>
</svg>
