<svg width="156" height="152" viewBox="0 0 156 152" fill="none" xmlns="http://www.w3.org/2000/svg">
<path d="M1.69 3.37999C2.62336 3.37999 3.38 2.62335 3.38 1.68999C3.38 0.756626 2.62336 0 1.69 0C0.756637 0 0 0.756626 0 1.68999C0 2.62335 0.756637 3.37999 1.69 3.37999Z" fill="#5B5B5B" fill-opacity="0.3"/>
<path d="M16.8902 3.37999C17.8236 3.37999 18.5802 2.62335 18.5802 1.68999C18.5802 0.756626 17.8236 0 16.8902 0C15.9568 0 15.2002 0.756626 15.2002 1.68999C15.2002 2.62335 15.9568 3.37999 16.8902 3.37999Z" fill="#5B5B5B" fill-opacity="0.3"/>
<path d="M32.0904 3.37999C33.0238 3.37999 33.7804 2.62335 33.7804 1.68999C33.7804 0.756626 33.0238 0 32.0904 0C31.157 0 30.4004 0.756626 30.4004 1.68999C30.4004 2.62335 31.157 3.37999 32.0904 3.37999Z" fill="#5B5B5B" fill-opacity="0.3"/>
<path d="M48.9796 1.68999C48.9796 2.61999 48.2196 3.37999 47.2896 3.37999C46.3596 3.37999 45.5996 2.61999 45.5996 1.68999C45.5996 0.759987 46.3596 0 47.2896 0C48.2196 0 48.9796 0.759987 48.9796 1.68999Z" fill="#5B5B5B" fill-opacity="0.3"/>
<path d="M64.1798 1.68999C64.1798 2.61999 63.4198 3.37999 62.4898 3.37999C61.5598 3.37999 60.7998 2.61999 60.7998 1.68999C60.7998 0.759987 61.5598 0 62.4898 0C63.4198 0 64.1798 0.759987 64.1798 1.68999Z" fill="#5B5B5B" fill-opacity="0.3"/>
<path d="M77.69 3.37999C78.6234 3.37999 79.38 2.62335 79.38 1.68999C79.38 0.756626 78.6234 0 77.69 0C76.7566 0 76 0.756626 76 1.68999C76 2.62335 76.7566 3.37999 77.69 3.37999Z" fill="#5B5B5B" fill-opacity="0.3"/>
<path d="M92.8902 3.37999C93.8236 3.37999 94.5802 2.62335 94.5802 1.68999C94.5802 0.756626 93.8236 0 92.8902 0C91.9568 0 91.2002 0.756626 91.2002 1.68999C91.2002 2.62335 91.9568 3.37999 92.8902 3.37999Z" fill="#5B5B5B" fill-opacity="0.3"/>
<path d="M108.09 3.37999C109.024 3.37999 109.78 2.62335 109.78 1.68999C109.78 0.756626 109.024 0 108.09 0C107.157 0 106.4 0.756626 106.4 1.68999C106.4 2.62335 107.157 3.37999 108.09 3.37999Z" fill="#5B5B5B" fill-opacity="0.3"/>
<path d="M123.29 3.37999C124.223 3.37999 124.98 2.62335 124.98 1.68999C124.98 0.756626 124.223 0 123.29 0C122.356 0 121.6 0.756626 121.6 1.68999C121.6 2.62335 122.356 3.37999 123.29 3.37999Z" fill="#5B5B5B" fill-opacity="0.3"/>
<path d="M138.49 3.37999C139.423 3.37999 140.18 2.62335 140.18 1.68999C140.18 0.756626 139.423 0 138.49 0C137.556 0 136.8 0.756626 136.8 1.68999C136.8 2.62335 137.556 3.37999 138.49 3.37999Z" fill="#5B5B5B" fill-opacity="0.3"/>
<path d="M153.69 3.37999C154.623 3.37999 155.38 2.62335 155.38 1.68999C155.38 0.756626 154.623 0 153.69 0C152.757 0 152 0.756626 152 1.68999C152 2.62335 152.757 3.37999 153.69 3.37999Z" fill="#5B5B5B" fill-opacity="0.3"/>
<path d="M1.69 16.8898C2.62336 16.8898 3.38 16.1331 3.38 15.1998C3.38 14.2664 2.62336 13.5098 1.69 13.5098C0.756637 13.5098 0 14.2664 0 15.1998C0 16.1331 0.756637 16.8898 1.69 16.8898Z" fill="#5B5B5B" fill-opacity="0.3"/>
<path d="M16.8902 16.8898C17.8236 16.8898 18.5802 16.1331 18.5802 15.1998C18.5802 14.2664 17.8236 13.5098 16.8902 13.5098C15.9568 13.5098 15.2002 14.2664 15.2002 15.1998C15.2002 16.1331 15.9568 16.8898 16.8902 16.8898Z" fill="#5B5B5B" fill-opacity="0.3"/>
<path d="M32.0904 16.8898C33.0238 16.8898 33.7804 16.1331 33.7804 15.1998C33.7804 14.2664 33.0238 13.5098 32.0904 13.5098C31.157 13.5098 30.4004 14.2664 30.4004 15.1998C30.4004 16.1331 31.157 16.8898 32.0904 16.8898Z" fill="#5B5B5B" fill-opacity="0.3"/>
<path d="M48.9796 15.1998C48.9796 16.1298 48.2196 16.8898 47.2896 16.8898C46.3596 16.8898 45.5996 16.1298 45.5996 15.1998C45.5996 14.2698 46.3596 13.5098 47.2896 13.5098C48.2196 13.5098 48.9796 14.2698 48.9796 15.1998Z" fill="#5B5B5B" fill-opacity="0.3"/>
<path d="M64.1798 15.1998C64.1798 16.1298 63.4198 16.8898 62.4898 16.8898C61.5598 16.8898 60.7998 16.1298 60.7998 15.1998C60.7998 14.2698 61.5598 13.5098 62.4898 13.5098C63.4198 13.5098 64.1798 14.2698 64.1798 15.1998Z" fill="#5B5B5B" fill-opacity="0.3"/>
<path d="M77.69 16.8898C78.6234 16.8898 79.38 16.1331 79.38 15.1998C79.38 14.2664 78.6234 13.5098 77.69 13.5098C76.7566 13.5098 76 14.2664 76 15.1998C76 16.1331 76.7566 16.8898 77.69 16.8898Z" fill="#5B5B5B" fill-opacity="0.3"/>
<path d="M92.8902 16.8898C93.8236 16.8898 94.5802 16.1331 94.5802 15.1998C94.5802 14.2664 93.8236 13.5098 92.8902 13.5098C91.9568 13.5098 91.2002 14.2664 91.2002 15.1998C91.2002 16.1331 91.9568 16.8898 92.8902 16.8898Z" fill="#5B5B5B" fill-opacity="0.3"/>
<path d="M108.09 16.8898C109.024 16.8898 109.78 16.1331 109.78 15.1998C109.78 14.2664 109.024 13.5098 108.09 13.5098C107.157 13.5098 106.4 14.2664 106.4 15.1998C106.4 16.1331 107.157 16.8898 108.09 16.8898Z" fill="#5B5B5B" fill-opacity="0.3"/>
<path d="M123.29 16.8898C124.223 16.8898 124.98 16.1331 124.98 15.1998C124.98 14.2664 124.223 13.5098 123.29 13.5098C122.356 13.5098 121.6 14.2664 121.6 15.1998C121.6 16.1331 122.356 16.8898 123.29 16.8898Z" fill="#5B5B5B" fill-opacity="0.3"/>
<path d="M138.49 16.8898C139.423 16.8898 140.18 16.1331 140.18 15.1998C140.18 14.2664 139.423 13.5098 138.49 13.5098C137.556 13.5098 136.8 14.2664 136.8 15.1998C136.8 16.1331 137.556 16.8898 138.49 16.8898Z" fill="#5B5B5B" fill-opacity="0.3"/>
<path d="M153.69 16.8898C154.623 16.8898 155.38 16.1331 155.38 15.1998C155.38 14.2664 154.623 13.5098 153.69 13.5098C152.757 13.5098 152 14.2664 152 15.1998C152 16.1331 152.757 16.8898 153.69 16.8898Z" fill="#5B5B5B" fill-opacity="0.3"/>
<path d="M1.69 30.4C2.62336 30.4 3.38 29.6434 3.38 28.71C3.38 27.7767 2.62336 27.02 1.69 27.02C0.756637 27.02 0 27.7767 0 28.71C0 29.6434 0.756637 30.4 1.69 30.4Z" fill="#5B5B5B" fill-opacity="0.3"/>
<path d="M16.8902 30.4C17.8236 30.4 18.5802 29.6434 18.5802 28.71C18.5802 27.7767 17.8236 27.02 16.8902 27.02C15.9568 27.02 15.2002 27.7767 15.2002 28.71C15.2002 29.6434 15.9568 30.4 16.8902 30.4Z" fill="#5B5B5B" fill-opacity="0.3"/>
<path d="M32.0904 30.4C33.0238 30.4 33.7804 29.6434 33.7804 28.71C33.7804 27.7767 33.0238 27.02 32.0904 27.02C31.157 27.02 30.4004 27.7767 30.4004 28.71C30.4004 29.6434 31.157 30.4 32.0904 30.4Z" fill="#5B5B5B" fill-opacity="0.3"/>
<path d="M48.9796 28.71C48.9796 29.64 48.2196 30.4 47.2896 30.4C46.3596 30.4 45.5996 29.64 45.5996 28.71C45.5996 27.78 46.3596 27.02 47.2896 27.02C48.2196 27.02 48.9796 27.78 48.9796 28.71Z" fill="#5B5B5B" fill-opacity="0.3"/>
<path d="M64.1798 28.71C64.1798 29.64 63.4198 30.4 62.4898 30.4C61.5598 30.4 60.7998 29.64 60.7998 28.71C60.7998 27.78 61.5598 27.02 62.4898 27.02C63.4198 27.02 64.1798 27.78 64.1798 28.71Z" fill="#5B5B5B" fill-opacity="0.3"/>
<path d="M77.69 30.4C78.6234 30.4 79.38 29.6434 79.38 28.71C79.38 27.7767 78.6234 27.02 77.69 27.02C76.7566 27.02 76 27.7767 76 28.71C76 29.6434 76.7566 30.4 77.69 30.4Z" fill="#5B5B5B" fill-opacity="0.3"/>
<path d="M92.8902 30.4C93.8236 30.4 94.5802 29.6434 94.5802 28.71C94.5802 27.7767 93.8236 27.02 92.8902 27.02C91.9568 27.02 91.2002 27.7767 91.2002 28.71C91.2002 29.6434 91.9568 30.4 92.8902 30.4Z" fill="#5B5B5B" fill-opacity="0.3"/>
<path d="M108.09 30.4C109.024 30.4 109.78 29.6434 109.78 28.71C109.78 27.7767 109.024 27.02 108.09 27.02C107.157 27.02 106.4 27.7767 106.4 28.71C106.4 29.6434 107.157 30.4 108.09 30.4Z" fill="#5B5B5B" fill-opacity="0.3"/>
<path d="M123.29 30.4C124.223 30.4 124.98 29.6434 124.98 28.71C124.98 27.7767 124.223 27.02 123.29 27.02C122.356 27.02 121.6 27.7767 121.6 28.71C121.6 29.6434 122.356 30.4 123.29 30.4Z" fill="#5B5B5B" fill-opacity="0.3"/>
<path d="M138.49 30.4C139.423 30.4 140.18 29.6434 140.18 28.71C140.18 27.7767 139.423 27.02 138.49 27.02C137.556 27.02 136.8 27.7767 136.8 28.71C136.8 29.6434 137.556 30.4 138.49 30.4Z" fill="#5B5B5B" fill-opacity="0.3"/>
<path d="M153.69 30.4C154.623 30.4 155.38 29.6434 155.38 28.71C155.38 27.7767 154.623 27.02 153.69 27.02C152.757 27.02 152 27.7767 152 28.71C152 29.6434 152.757 30.4 153.69 30.4Z" fill="#5B5B5B" fill-opacity="0.3"/>
<path d="M3.38 42.2198C3.38 43.1498 2.62 43.9098 1.69 43.9098C0.759999 43.9098 0 43.1498 0 42.2198C0 41.2898 0.759999 40.5298 1.69 40.5298C2.62 40.5298 3.38 41.2898 3.38 42.2198Z" fill="#5B5B5B" fill-opacity="0.3"/>
<path d="M18.5802 42.2198C18.5802 43.1498 17.8202 43.9098 16.8902 43.9098C15.9602 43.9098 15.2002 43.1498 15.2002 42.2198C15.2002 41.2898 15.9602 40.5298 16.8902 40.5298C17.8202 40.5298 18.5802 41.2898 18.5802 42.2198Z" fill="#5B5B5B" fill-opacity="0.3"/>
<path d="M33.7804 42.2198C33.7804 43.1498 33.0204 43.9098 32.0904 43.9098C31.1604 43.9098 30.4004 43.1498 30.4004 42.2198C30.4004 41.2898 31.1604 40.5298 32.0904 40.5298C33.0204 40.5298 33.7804 41.2898 33.7804 42.2198Z" fill="#5B5B5B" fill-opacity="0.3"/>
<path d="M48.9796 42.2198C48.9796 43.1498 48.2196 43.9098 47.2896 43.9098C46.3596 43.9098 45.5996 43.1498 45.5996 42.2198C45.5996 41.2898 46.3596 40.5298 47.2896 40.5298C48.2196 40.5298 48.9796 41.2898 48.9796 42.2198Z" fill="#5B5B5B" fill-opacity="0.3"/>
<path d="M64.1798 42.2198C64.1798 43.1498 63.4198 43.9098 62.4898 43.9098C61.5598 43.9098 60.7998 43.1498 60.7998 42.2198C60.7998 41.2898 61.5598 40.5298 62.4898 40.5298C63.4198 40.5298 64.1798 41.2898 64.1798 42.2198Z" fill="#5B5B5B" fill-opacity="0.3"/>
<path d="M79.38 42.2198C79.38 43.1498 78.62 43.9098 77.69 43.9098C76.76 43.9098 76 43.1498 76 42.2198C76 41.2898 76.76 40.5298 77.69 40.5298C78.62 40.5298 79.38 41.2898 79.38 42.2198Z" fill="#5B5B5B" fill-opacity="0.3"/>
<path d="M94.5802 42.2198C94.5802 43.1498 93.8202 43.9098 92.8902 43.9098C91.9602 43.9098 91.2002 43.1498 91.2002 42.2198C91.2002 41.2898 91.9602 40.5298 92.8902 40.5298C93.8202 40.5298 94.5802 41.2898 94.5802 42.2198Z" fill="#5B5B5B" fill-opacity="0.3"/>
<path d="M109.78 42.2198C109.78 43.1498 109.02 43.9098 108.09 43.9098C107.16 43.9098 106.4 43.1498 106.4 42.2198C106.4 41.2898 107.16 40.5298 108.09 40.5298C109.02 40.5298 109.78 41.2898 109.78 42.2198Z" fill="#5B5B5B" fill-opacity="0.3"/>
<path d="M124.98 42.2198C124.98 43.1498 124.22 43.9098 123.29 43.9098C122.36 43.9098 121.6 43.1498 121.6 42.2198C121.6 41.2898 122.36 40.5298 123.29 40.5298C124.22 40.5298 124.98 41.2898 124.98 42.2198Z" fill="#5B5B5B" fill-opacity="0.3"/>
<path d="M140.18 42.2198C140.18 43.1498 139.42 43.9098 138.49 43.9098C137.56 43.9098 136.8 43.1498 136.8 42.2198C136.8 41.2898 137.56 40.5298 138.49 40.5298C139.42 40.5298 140.18 41.2898 140.18 42.2198Z" fill="#5B5B5B" fill-opacity="0.3"/>
<path d="M155.38 42.2198C155.38 43.1498 154.62 43.9098 153.69 43.9098C152.76 43.9098 152 43.1498 152 42.2198C152 41.2898 152.76 40.5298 153.69 40.5298C154.62 40.5298 155.38 41.2898 155.38 42.2198Z" fill="#5B5B5B" fill-opacity="0.3"/>
<path d="M3.38 55.73C3.38 56.66 2.62 57.42 1.69 57.42C0.759999 57.42 0 56.66 0 55.73C0 54.8 0.759999 54.04 1.69 54.04C2.62 54.04 3.38 54.8 3.38 55.73Z" fill="#5B5B5B" fill-opacity="0.3"/>
<path d="M18.5802 55.73C18.5802 56.66 17.8202 57.42 16.8902 57.42C15.9602 57.42 15.2002 56.66 15.2002 55.73C15.2002 54.8 15.9602 54.04 16.8902 54.04C17.8202 54.04 18.5802 54.8 18.5802 55.73Z" fill="#5B5B5B" fill-opacity="0.3"/>
<path d="M33.7804 55.73C33.7804 56.66 33.0204 57.42 32.0904 57.42C31.1604 57.42 30.4004 56.66 30.4004 55.73C30.4004 54.8 31.1604 54.04 32.0904 54.04C33.0204 54.04 33.7804 54.8 33.7804 55.73Z" fill="#5B5B5B" fill-opacity="0.3"/>
<path d="M48.9796 55.73C48.9796 56.66 48.2196 57.42 47.2896 57.42C46.3596 57.42 45.5996 56.66 45.5996 55.73C45.5996 54.8 46.3596 54.04 47.2896 54.04C48.2196 54.04 48.9796 54.8 48.9796 55.73Z" fill="#5B5B5B" fill-opacity="0.3"/>
<path d="M64.1798 55.73C64.1798 56.66 63.4198 57.42 62.4898 57.42C61.5598 57.42 60.7998 56.66 60.7998 55.73C60.7998 54.8 61.5598 54.04 62.4898 54.04C63.4198 54.04 64.1798 54.8 64.1798 55.73Z" fill="#5B5B5B" fill-opacity="0.3"/>
<path d="M79.38 55.73C79.38 56.66 78.62 57.42 77.69 57.42C76.76 57.42 76 56.66 76 55.73C76 54.8 76.76 54.04 77.69 54.04C78.62 54.04 79.38 54.8 79.38 55.73Z" fill="#5B5B5B" fill-opacity="0.3"/>
<path d="M94.5802 55.73C94.5802 56.66 93.8202 57.42 92.8902 57.42C91.9602 57.42 91.2002 56.66 91.2002 55.73C91.2002 54.8 91.9602 54.04 92.8902 54.04C93.8202 54.04 94.5802 54.8 94.5802 55.73Z" fill="#5B5B5B" fill-opacity="0.3"/>
<path d="M109.78 55.73C109.78 56.66 109.02 57.42 108.09 57.42C107.16 57.42 106.4 56.66 106.4 55.73C106.4 54.8 107.16 54.04 108.09 54.04C109.02 54.04 109.78 54.8 109.78 55.73Z" fill="#5B5B5B" fill-opacity="0.3"/>
<path d="M124.98 55.73C124.98 56.66 124.22 57.42 123.29 57.42C122.36 57.42 121.6 56.66 121.6 55.73C121.6 54.8 122.36 54.04 123.29 54.04C124.22 54.04 124.98 54.8 124.98 55.73Z" fill="#5B5B5B" fill-opacity="0.3"/>
<path d="M140.18 55.73C140.18 56.66 139.42 57.42 138.49 57.42C137.56 57.42 136.8 56.66 136.8 55.73C136.8 54.8 137.56 54.04 138.49 54.04C139.42 54.04 140.18 54.8 140.18 55.73Z" fill="#5B5B5B" fill-opacity="0.3"/>
<path d="M155.38 55.73C155.38 56.66 154.62 57.42 153.69 57.42C152.76 57.42 152 56.66 152 55.73C152 54.8 152.76 54.04 153.69 54.04C154.62 54.04 155.38 54.8 155.38 55.73Z" fill="#5B5B5B" fill-opacity="0.3"/>
<path d="M3.38 69.2398C3.38 70.1698 2.62 70.9298 1.69 70.9298C0.759999 70.9298 0 70.1698 0 69.2398C0 68.3098 0.759999 67.5498 1.69 67.5498C2.62 67.5498 3.38 68.3098 3.38 69.2398Z" fill="#5B5B5B" fill-opacity="0.3"/>
<path d="M18.5802 69.2398C18.5802 70.1698 17.8202 70.9298 16.8902 70.9298C15.9602 70.9298 15.2002 70.1698 15.2002 69.2398C15.2002 68.3098 15.9602 67.5498 16.8902 67.5498C17.8202 67.5498 18.5802 68.3098 18.5802 69.2398Z" fill="#5B5B5B" fill-opacity="0.3"/>
<path d="M33.7804 69.2398C33.7804 70.1698 33.0204 70.9298 32.0904 70.9298C31.1604 70.9298 30.4004 70.1698 30.4004 69.2398C30.4004 68.3098 31.1604 67.5498 32.0904 67.5498C33.0204 67.5498 33.7804 68.3098 33.7804 69.2398Z" fill="#5B5B5B" fill-opacity="0.3"/>
<path d="M48.9796 69.2398C48.9796 70.1698 48.2196 70.9298 47.2896 70.9298C46.3596 70.9298 45.5996 70.1698 45.5996 69.2398C45.5996 68.3098 46.3596 67.5498 47.2896 67.5498C48.2196 67.5498 48.9796 68.3098 48.9796 69.2398Z" fill="#5B5B5B" fill-opacity="0.3"/>
<path d="M64.1798 69.2398C64.1798 70.1698 63.4198 70.9298 62.4898 70.9298C61.5598 70.9298 60.7998 70.1698 60.7998 69.2398C60.7998 68.3098 61.5598 67.5498 62.4898 67.5498C63.4198 67.5498 64.1798 68.3098 64.1798 69.2398Z" fill="#5B5B5B" fill-opacity="0.3"/>
<path d="M79.38 69.2398C79.38 70.1698 78.62 70.9298 77.69 70.9298C76.76 70.9298 76 70.1698 76 69.2398C76 68.3098 76.76 67.5498 77.69 67.5498C78.62 67.5498 79.38 68.3098 79.38 69.2398Z" fill="#5B5B5B" fill-opacity="0.3"/>
<path d="M94.5802 69.2398C94.5802 70.1698 93.8202 70.9298 92.8902 70.9298C91.9602 70.9298 91.2002 70.1698 91.2002 69.2398C91.2002 68.3098 91.9602 67.5498 92.8902 67.5498C93.8202 67.5498 94.5802 68.3098 94.5802 69.2398Z" fill="#5B5B5B" fill-opacity="0.3"/>
<path d="M109.78 69.2398C109.78 70.1698 109.02 70.9298 108.09 70.9298C107.16 70.9298 106.4 70.1698 106.4 69.2398C106.4 68.3098 107.16 67.5498 108.09 67.5498C109.02 67.5498 109.78 68.3098 109.78 69.2398Z" fill="#5B5B5B" fill-opacity="0.3"/>
<path d="M124.98 69.2398C124.98 70.1698 124.22 70.9298 123.29 70.9298C122.36 70.9298 121.6 70.1698 121.6 69.2398C121.6 68.3098 122.36 67.5498 123.29 67.5498C124.22 67.5498 124.98 68.3098 124.98 69.2398Z" fill="#5B5B5B" fill-opacity="0.3"/>
<path d="M140.18 69.2398C140.18 70.1698 139.42 70.9298 138.49 70.9298C137.56 70.9298 136.8 70.1698 136.8 69.2398C136.8 68.3098 137.56 67.5498 138.49 67.5498C139.42 67.5498 140.18 68.3098 140.18 69.2398Z" fill="#5B5B5B" fill-opacity="0.3"/>
<path d="M155.38 69.2398C155.38 70.1698 154.62 70.9298 153.69 70.9298C152.76 70.9298 152 70.1698 152 69.2398C152 68.3098 152.76 67.5498 153.69 67.5498C154.62 67.5498 155.38 68.3098 155.38 69.2398Z" fill="#5B5B5B" fill-opacity="0.3"/>
<path d="M1.69 84.4401C2.62336 84.4401 3.38 83.6834 3.38 82.7501C3.38 81.8167 2.62336 81.0601 1.69 81.0601C0.756637 81.0601 0 81.8167 0 82.7501C0 83.6834 0.756637 84.4401 1.69 84.4401Z" fill="#5B5B5B" fill-opacity="0.3"/>
<path d="M16.8902 84.4401C17.8236 84.4401 18.5802 83.6834 18.5802 82.7501C18.5802 81.8167 17.8236 81.0601 16.8902 81.0601C15.9568 81.0601 15.2002 81.8167 15.2002 82.7501C15.2002 83.6834 15.9568 84.4401 16.8902 84.4401Z" fill="#5B5B5B" fill-opacity="0.3"/>
<path d="M32.0904 84.4401C33.0238 84.4401 33.7804 83.6834 33.7804 82.7501C33.7804 81.8167 33.0238 81.0601 32.0904 81.0601C31.157 81.0601 30.4004 81.8167 30.4004 82.7501C30.4004 83.6834 31.157 84.4401 32.0904 84.4401Z" fill="#5B5B5B" fill-opacity="0.3"/>
<path d="M48.9796 82.7501C48.9796 83.6801 48.2196 84.4401 47.2896 84.4401C46.3596 84.4401 45.5996 83.6801 45.5996 82.7501C45.5996 81.8201 46.3596 81.0601 47.2896 81.0601C48.2196 81.0701 48.9796 81.8201 48.9796 82.7501Z" fill="#5B5B5B" fill-opacity="0.3"/>
<path d="M64.1798 82.7501C64.1798 83.6801 63.4198 84.4401 62.4898 84.4401C61.5598 84.4401 60.7998 83.6801 60.7998 82.7501C60.7998 81.8201 61.5598 81.0601 62.4898 81.0601C63.4198 81.0701 64.1798 81.8201 64.1798 82.7501Z" fill="#5B5B5B" fill-opacity="0.3"/>
<path d="M77.69 84.4401C78.6234 84.4401 79.38 83.6834 79.38 82.7501C79.38 81.8167 78.6234 81.0601 77.69 81.0601C76.7566 81.0601 76 81.8167 76 82.7501C76 83.6834 76.7566 84.4401 77.69 84.4401Z" fill="#5B5B5B" fill-opacity="0.3"/>
<path d="M92.8902 84.4401C93.8236 84.4401 94.5802 83.6834 94.5802 82.7501C94.5802 81.8167 93.8236 81.0601 92.8902 81.0601C91.9568 81.0601 91.2002 81.8167 91.2002 82.7501C91.2002 83.6834 91.9568 84.4401 92.8902 84.4401Z" fill="#5B5B5B" fill-opacity="0.3"/>
<path d="M108.09 84.4401C109.024 84.4401 109.78 83.6834 109.78 82.7501C109.78 81.8167 109.024 81.0601 108.09 81.0601C107.157 81.0601 106.4 81.8167 106.4 82.7501C106.4 83.6834 107.157 84.4401 108.09 84.4401Z" fill="#5B5B5B" fill-opacity="0.3"/>
<path d="M123.29 84.4401C124.223 84.4401 124.98 83.6834 124.98 82.7501C124.98 81.8167 124.223 81.0601 123.29 81.0601C122.356 81.0601 121.6 81.8167 121.6 82.7501C121.6 83.6834 122.356 84.4401 123.29 84.4401Z" fill="#5B5B5B" fill-opacity="0.3"/>
<path d="M138.49 84.4401C139.423 84.4401 140.18 83.6834 140.18 82.7501C140.18 81.8167 139.423 81.0601 138.49 81.0601C137.556 81.0601 136.8 81.8167 136.8 82.7501C136.8 83.6834 137.556 84.4401 138.49 84.4401Z" fill="#5B5B5B" fill-opacity="0.3"/>
<path d="M153.69 84.4401C154.623 84.4401 155.38 83.6834 155.38 82.7501C155.38 81.8167 154.623 81.0601 153.69 81.0601C152.757 81.0601 152 81.8167 152 82.7501C152 83.6834 152.757 84.4401 153.69 84.4401Z" fill="#5B5B5B" fill-opacity="0.3"/>
<path d="M3.38 96.2701C3.38 97.2001 2.62 97.9601 1.69 97.9601C0.759999 97.9601 0 97.2001 0 96.2701C0 95.3401 0.759999 94.5801 1.69 94.5801C2.62 94.5801 3.38 95.3301 3.38 96.2701Z" fill="#5B5B5B" fill-opacity="0.3"/>
<path d="M18.5802 96.2701C18.5802 97.2001 17.8202 97.9601 16.8902 97.9601C15.9602 97.9601 15.2002 97.2001 15.2002 96.2701C15.2002 95.3401 15.9602 94.5801 16.8902 94.5801C17.8202 94.5801 18.5802 95.3301 18.5802 96.2701Z" fill="#5B5B5B" fill-opacity="0.3"/>
<path d="M33.7804 96.2701C33.7804 97.2001 33.0204 97.9601 32.0904 97.9601C31.1604 97.9601 30.4004 97.2001 30.4004 96.2701C30.4004 95.3401 31.1604 94.5801 32.0904 94.5801C33.0204 94.5801 33.7804 95.3301 33.7804 96.2701Z" fill="#5B5B5B" fill-opacity="0.3"/>
<path d="M48.9796 96.2701C48.9796 97.2001 48.2196 97.9601 47.2896 97.9601C46.3596 97.9601 45.5996 97.2001 45.5996 96.2701C45.5996 95.3401 46.3596 94.5801 47.2896 94.5801C48.2196 94.5801 48.9796 95.3301 48.9796 96.2701Z" fill="#5B5B5B" fill-opacity="0.3"/>
<path d="M64.1798 96.2701C64.1798 97.2001 63.4198 97.9601 62.4898 97.9601C61.5598 97.9601 60.7998 97.2001 60.7998 96.2701C60.7998 95.3401 61.5598 94.5801 62.4898 94.5801C63.4198 94.5801 64.1798 95.3301 64.1798 96.2701Z" fill="#5B5B5B" fill-opacity="0.3"/>
<path d="M79.38 96.2701C79.38 97.2001 78.62 97.9601 77.69 97.9601C76.76 97.9601 76 97.2001 76 96.2701C76 95.3401 76.76 94.5801 77.69 94.5801C78.62 94.5801 79.38 95.3301 79.38 96.2701Z" fill="#5B5B5B" fill-opacity="0.3"/>
<path d="M94.5802 96.2701C94.5802 97.2001 93.8202 97.9601 92.8902 97.9601C91.9602 97.9601 91.2002 97.2001 91.2002 96.2701C91.2002 95.3401 91.9602 94.5801 92.8902 94.5801C93.8202 94.5801 94.5802 95.3301 94.5802 96.2701Z" fill="#5B5B5B" fill-opacity="0.3"/>
<path d="M109.78 96.2701C109.78 97.2001 109.02 97.9601 108.09 97.9601C107.16 97.9601 106.4 97.2001 106.4 96.2701C106.4 95.3401 107.16 94.5801 108.09 94.5801C109.02 94.5801 109.78 95.3301 109.78 96.2701Z" fill="#5B5B5B" fill-opacity="0.3"/>
<path d="M124.98 96.2701C124.98 97.2001 124.22 97.9601 123.29 97.9601C122.36 97.9601 121.6 97.2001 121.6 96.2701C121.6 95.3401 122.36 94.5801 123.29 94.5801C124.22 94.5801 124.98 95.3301 124.98 96.2701Z" fill="#5B5B5B" fill-opacity="0.3"/>
<path d="M140.18 96.2701C140.18 97.2001 139.42 97.9601 138.49 97.9601C137.56 97.9601 136.8 97.2001 136.8 96.2701C136.8 95.3401 137.56 94.5801 138.49 94.5801C139.42 94.5801 140.18 95.3301 140.18 96.2701Z" fill="#5B5B5B" fill-opacity="0.3"/>
<path d="M155.38 96.2701C155.38 97.2001 154.62 97.9601 153.69 97.9601C152.76 97.9601 152 97.2001 152 96.2701C152 95.3401 152.76 94.5801 153.69 94.5801C154.62 94.5801 155.38 95.3301 155.38 96.2701Z" fill="#5B5B5B" fill-opacity="0.3"/>
<path d="M3.38 109.78C3.38 110.71 2.62 111.47 1.69 111.47C0.759999 111.47 0 110.71 0 109.78C0 108.85 0.759999 108.09 1.69 108.09C2.62 108.09 3.38 108.84 3.38 109.78Z" fill="#5B5B5B" fill-opacity="0.3"/>
<path d="M18.5802 109.78C18.5802 110.71 17.8202 111.47 16.8902 111.47C15.9602 111.47 15.2002 110.71 15.2002 109.78C15.2002 108.85 15.9602 108.09 16.8902 108.09C17.8202 108.09 18.5802 108.84 18.5802 109.78Z" fill="#5B5B5B" fill-opacity="0.3"/>
<path d="M33.7804 109.78C33.7804 110.71 33.0204 111.47 32.0904 111.47C31.1604 111.47 30.4004 110.71 30.4004 109.78C30.4004 108.85 31.1604 108.09 32.0904 108.09C33.0204 108.09 33.7804 108.84 33.7804 109.78Z" fill="#5B5B5B" fill-opacity="0.3"/>
<path d="M48.9796 109.78C48.9796 110.71 48.2196 111.47 47.2896 111.47C46.3596 111.47 45.5996 110.71 45.5996 109.78C45.5996 108.85 46.3596 108.09 47.2896 108.09C48.2196 108.09 48.9796 108.84 48.9796 109.78Z" fill="#5B5B5B" fill-opacity="0.3"/>
<path d="M64.1798 109.78C64.1798 110.71 63.4198 111.47 62.4898 111.47C61.5598 111.47 60.7998 110.71 60.7998 109.78C60.7998 108.85 61.5598 108.09 62.4898 108.09C63.4198 108.09 64.1798 108.84 64.1798 109.78Z" fill="#5B5B5B" fill-opacity="0.3"/>
<path d="M79.38 109.78C79.38 110.71 78.62 111.47 77.69 111.47C76.76 111.47 76 110.71 76 109.78C76 108.85 76.76 108.09 77.69 108.09C78.62 108.09 79.38 108.84 79.38 109.78Z" fill="#5B5B5B" fill-opacity="0.3"/>
<path d="M94.5802 109.78C94.5802 110.71 93.8202 111.47 92.8902 111.47C91.9602 111.47 91.2002 110.71 91.2002 109.78C91.2002 108.85 91.9602 108.09 92.8902 108.09C93.8202 108.09 94.5802 108.84 94.5802 109.78Z" fill="#5B5B5B" fill-opacity="0.3"/>
<path d="M109.78 109.78C109.78 110.71 109.02 111.47 108.09 111.47C107.16 111.47 106.4 110.71 106.4 109.78C106.4 108.85 107.16 108.09 108.09 108.09C109.02 108.09 109.78 108.84 109.78 109.78Z" fill="#5B5B5B" fill-opacity="0.3"/>
<path d="M124.98 109.78C124.98 110.71 124.22 111.47 123.29 111.47C122.36 111.47 121.6 110.71 121.6 109.78C121.6 108.85 122.36 108.09 123.29 108.09C124.22 108.09 124.98 108.84 124.98 109.78Z" fill="#5B5B5B" fill-opacity="0.3"/>
<path d="M140.18 109.78C140.18 110.71 139.42 111.47 138.49 111.47C137.56 111.47 136.8 110.71 136.8 109.78C136.8 108.85 137.56 108.09 138.49 108.09C139.42 108.09 140.18 108.84 140.18 109.78Z" fill="#5B5B5B" fill-opacity="0.3"/>
<path d="M155.38 109.78C155.38 110.71 154.62 111.47 153.69 111.47C152.76 111.47 152 110.71 152 109.78C152 108.85 152.76 108.09 153.69 108.09C154.62 108.09 155.38 108.84 155.38 109.78Z" fill="#5B5B5B" fill-opacity="0.3"/>
<path d="M3.38 123.29C3.38 124.22 2.62 124.98 1.69 124.98C0.759999 124.98 0 124.22 0 123.29C0 122.36 0.759999 121.6 1.69 121.6C2.62 121.6 3.38 122.36 3.38 123.29Z" fill="#5B5B5B" fill-opacity="0.3"/>
<path d="M18.5802 123.29C18.5802 124.22 17.8202 124.98 16.8902 124.98C15.9602 124.98 15.2002 124.22 15.2002 123.29C15.2002 122.36 15.9602 121.6 16.8902 121.6C17.8202 121.6 18.5802 122.36 18.5802 123.29Z" fill="#5B5B5B" fill-opacity="0.3"/>
<path d="M33.7804 123.29C33.7804 124.22 33.0204 124.98 32.0904 124.98C31.1604 124.98 30.4004 124.22 30.4004 123.29C30.4004 122.36 31.1604 121.6 32.0904 121.6C33.0204 121.6 33.7804 122.36 33.7804 123.29Z" fill="#5B5B5B" fill-opacity="0.3"/>
<path d="M48.9796 123.29C48.9796 124.22 48.2196 124.98 47.2896 124.98C46.3596 124.98 45.5996 124.22 45.5996 123.29C45.5996 122.36 46.3596 121.6 47.2896 121.6C48.2196 121.6 48.9796 122.36 48.9796 123.29Z" fill="#5B5B5B" fill-opacity="0.3"/>
<path d="M64.1798 123.29C64.1798 124.22 63.4198 124.98 62.4898 124.98C61.5598 124.98 60.7998 124.22 60.7998 123.29C60.7998 122.36 61.5598 121.6 62.4898 121.6C63.4198 121.6 64.1798 122.36 64.1798 123.29Z" fill="#5B5B5B" fill-opacity="0.3"/>
<path d="M79.38 123.29C79.38 124.22 78.62 124.98 77.69 124.98C76.76 124.98 76 124.22 76 123.29C76 122.36 76.76 121.6 77.69 121.6C78.62 121.6 79.38 122.36 79.38 123.29Z" fill="#5B5B5B" fill-opacity="0.3"/>
<path d="M94.5802 123.29C94.5802 124.22 93.8202 124.98 92.8902 124.98C91.9602 124.98 91.2002 124.22 91.2002 123.29C91.2002 122.36 91.9602 121.6 92.8902 121.6C93.8202 121.6 94.5802 122.36 94.5802 123.29Z" fill="#5B5B5B" fill-opacity="0.3"/>
<path d="M109.78 123.29C109.78 124.22 109.02 124.98 108.09 124.98C107.16 124.98 106.4 124.22 106.4 123.29C106.4 122.36 107.16 121.6 108.09 121.6C109.02 121.6 109.78 122.36 109.78 123.29Z" fill="#5B5B5B" fill-opacity="0.3"/>
<path d="M124.98 123.29C124.98 124.22 124.22 124.98 123.29 124.98C122.36 124.98 121.6 124.22 121.6 123.29C121.6 122.36 122.36 121.6 123.29 121.6C124.22 121.6 124.98 122.36 124.98 123.29Z" fill="#5B5B5B" fill-opacity="0.3"/>
<path d="M140.18 123.29C140.18 124.22 139.42 124.98 138.49 124.98C137.56 124.98 136.8 124.22 136.8 123.29C136.8 122.36 137.56 121.6 138.49 121.6C139.42 121.6 140.18 122.36 140.18 123.29Z" fill="#5B5B5B" fill-opacity="0.3"/>
<path d="M155.38 123.29C155.38 124.22 154.62 124.98 153.69 124.98C152.76 124.98 152 124.22 152 123.29C152 122.36 152.76 121.6 153.69 121.6C154.62 121.6 155.38 122.36 155.38 123.29Z" fill="#5B5B5B" fill-opacity="0.3"/>
<path d="M1.69 138.49C2.62336 138.49 3.38 137.733 3.38 136.8C3.38 135.867 2.62336 135.11 1.69 135.11C0.756637 135.11 0 135.867 0 136.8C0 137.733 0.756637 138.49 1.69 138.49Z" fill="#5B5B5B" fill-opacity="0.3"/>
<path d="M16.8902 138.49C17.8236 138.49 18.5802 137.733 18.5802 136.8C18.5802 135.867 17.8236 135.11 16.8902 135.11C15.9568 135.11 15.2002 135.867 15.2002 136.8C15.2002 137.733 15.9568 138.49 16.8902 138.49Z" fill="#5B5B5B" fill-opacity="0.3"/>
<path d="M32.0904 138.49C33.0238 138.49 33.7804 137.733 33.7804 136.8C33.7804 135.867 33.0238 135.11 32.0904 135.11C31.157 135.11 30.4004 135.867 30.4004 136.8C30.4004 137.733 31.157 138.49 32.0904 138.49Z" fill="#5B5B5B" fill-opacity="0.3"/>
<path d="M48.9796 136.8C48.9796 137.73 48.2196 138.49 47.2896 138.49C46.3596 138.49 45.5996 137.73 45.5996 136.8C45.5996 135.87 46.3596 135.11 47.2896 135.11C48.2196 135.11 48.9796 135.87 48.9796 136.8Z" fill="#5B5B5B" fill-opacity="0.3"/>
<path d="M64.1798 136.8C64.1798 137.73 63.4198 138.49 62.4898 138.49C61.5598 138.49 60.7998 137.73 60.7998 136.8C60.7998 135.87 61.5598 135.11 62.4898 135.11C63.4198 135.11 64.1798 135.87 64.1798 136.8Z" fill="#5B5B5B" fill-opacity="0.3"/>
<path d="M77.69 138.49C78.6234 138.49 79.38 137.733 79.38 136.8C79.38 135.867 78.6234 135.11 77.69 135.11C76.7566 135.11 76 135.867 76 136.8C76 137.733 76.7566 138.49 77.69 138.49Z" fill="#5B5B5B" fill-opacity="0.3"/>
<path d="M92.8902 138.49C93.8236 138.49 94.5802 137.733 94.5802 136.8C94.5802 135.867 93.8236 135.11 92.8902 135.11C91.9568 135.11 91.2002 135.867 91.2002 136.8C91.2002 137.733 91.9568 138.49 92.8902 138.49Z" fill="#5B5B5B" fill-opacity="0.3"/>
<path d="M108.09 138.49C109.024 138.49 109.78 137.733 109.78 136.8C109.78 135.867 109.024 135.11 108.09 135.11C107.157 135.11 106.4 135.867 106.4 136.8C106.4 137.733 107.157 138.49 108.09 138.49Z" fill="#5B5B5B" fill-opacity="0.3"/>
<path d="M123.29 138.49C124.223 138.49 124.98 137.733 124.98 136.8C124.98 135.867 124.223 135.11 123.29 135.11C122.356 135.11 121.6 135.867 121.6 136.8C121.6 137.733 122.356 138.49 123.29 138.49Z" fill="#5B5B5B" fill-opacity="0.3"/>
<path d="M138.49 138.49C139.423 138.49 140.18 137.733 140.18 136.8C140.18 135.867 139.423 135.11 138.49 135.11C137.556 135.11 136.8 135.867 136.8 136.8C136.8 137.733 137.556 138.49 138.49 138.49Z" fill="#5B5B5B" fill-opacity="0.3"/>
<path d="M153.69 138.49C154.623 138.49 155.38 137.733 155.38 136.8C155.38 135.867 154.623 135.11 153.69 135.11C152.757 135.11 152 135.867 152 136.8C152 137.733 152.757 138.49 153.69 138.49Z" fill="#5B5B5B" fill-opacity="0.3"/>
<path d="M3.38 150.31C3.38 151.24 2.62 152 1.69 152C0.759999 152 0 151.24 0 150.31C0 149.38 0.759999 148.62 1.69 148.62C2.62 148.62 3.38 149.38 3.38 150.31Z" fill="#5B5B5B" fill-opacity="0.3"/>
<path d="M18.5802 150.31C18.5802 151.24 17.8202 152 16.8902 152C15.9602 152 15.2002 151.24 15.2002 150.31C15.2002 149.38 15.9602 148.62 16.8902 148.62C17.8202 148.62 18.5802 149.38 18.5802 150.31Z" fill="#5B5B5B" fill-opacity="0.3"/>
<path d="M33.7804 150.31C33.7804 151.24 33.0204 152 32.0904 152C31.1604 152 30.4004 151.24 30.4004 150.31C30.4004 149.38 31.1604 148.62 32.0904 148.62C33.0204 148.62 33.7804 149.38 33.7804 150.31Z" fill="#5B5B5B" fill-opacity="0.3"/>
<path d="M48.9796 150.31C48.9796 151.24 48.2196 152 47.2896 152C46.3596 152 45.5996 151.24 45.5996 150.31C45.5996 149.38 46.3596 148.62 47.2896 148.62C48.2196 148.62 48.9796 149.38 48.9796 150.31Z" fill="#5B5B5B" fill-opacity="0.3"/>
<path d="M64.1798 150.31C64.1798 151.24 63.4198 152 62.4898 152C61.5598 152 60.7998 151.24 60.7998 150.31C60.7998 149.38 61.5598 148.62 62.4898 148.62C63.4198 148.62 64.1798 149.38 64.1798 150.31Z" fill="#5B5B5B" fill-opacity="0.3"/>
<path d="M79.38 150.31C79.38 151.24 78.62 152 77.69 152C76.76 152 76 151.24 76 150.31C76 149.38 76.76 148.62 77.69 148.62C78.62 148.62 79.38 149.38 79.38 150.31Z" fill="#5B5B5B" fill-opacity="0.3"/>
<path d="M94.5802 150.31C94.5802 151.24 93.8202 152 92.8902 152C91.9602 152 91.2002 151.24 91.2002 150.31C91.2002 149.38 91.9602 148.62 92.8902 148.62C93.8202 148.62 94.5802 149.38 94.5802 150.31Z" fill="#5B5B5B" fill-opacity="0.3"/>
<path d="M109.78 150.31C109.78 151.24 109.02 152 108.09 152C107.16 152 106.4 151.24 106.4 150.31C106.4 149.38 107.16 148.62 108.09 148.62C109.02 148.62 109.78 149.38 109.78 150.31Z" fill="#5B5B5B" fill-opacity="0.3"/>
<path d="M124.98 150.31C124.98 151.24 124.22 152 123.29 152C122.36 152 121.6 151.24 121.6 150.31C121.6 149.38 122.36 148.62 123.29 148.62C124.22 148.62 124.98 149.38 124.98 150.31Z" fill="#5B5B5B" fill-opacity="0.3"/>
<path d="M140.18 150.31C140.18 151.24 139.42 152 138.49 152C137.56 152 136.8 151.24 136.8 150.31C136.8 149.38 137.56 148.62 138.49 148.62C139.42 148.62 140.18 149.38 140.18 150.31Z" fill="#5B5B5B" fill-opacity="0.3"/>
<path d="M155.38 150.31C155.38 151.24 154.62 152 153.69 152C152.76 152 152 151.24 152 150.31C152 149.38 152.76 148.62 153.69 148.62C154.62 148.62 155.38 149.38 155.38 150.31Z" fill="#5B5B5B" fill-opacity="0.3"/>
</svg>
