<svg width="24" height="24" viewBox="0 0 24 24" fill="none" xmlns="http://www.w3.org/2000/svg">
<path d="M10 13.0005H3C2.73478 13.0005 2.48043 13.1058 2.29289 13.2934C2.10536 13.4809 2 13.7353 2 14.0005V21.0005C2 21.2657 2.10536 21.5201 2.29289 21.7076C2.48043 21.8951 2.73478 22.0005 3 22.0005H10C10.2652 22.0005 10.5196 21.8951 10.7071 21.7076C10.8946 21.5201 11 21.2657 11 21.0005V14.0005C11 13.7353 10.8946 13.4809 10.7071 13.2934C10.5196 13.1058 10.2652 13.0005 10 13.0005ZM9 20.0005H4V15.0005H9V20.0005ZM21 2.00049H14C13.7348 2.00049 13.4804 2.10585 13.2929 2.29338C13.1054 2.48092 13 2.73527 13 3.00049V10.0005C13 10.2657 13.1054 10.5201 13.2929 10.7076C13.4804 10.8951 13.7348 11.0005 14 11.0005H21C21.2652 11.0005 21.5196 10.8951 21.7071 10.7076C21.8946 10.5201 22 10.2657 22 10.0005V3.00049C22 2.73527 21.8946 2.48092 21.7071 2.29338C21.5196 2.10585 21.2652 2.00049 21 2.00049ZM20 9.00049H15V4.00049H20V9.00049ZM21 13.0005H14C13.7348 13.0005 13.4804 13.1058 13.2929 13.2934C13.1054 13.4809 13 13.7353 13 14.0005V21.0005C13 21.2657 13.1054 21.5201 13.2929 21.7076C13.4804 21.8951 13.7348 22.0005 14 22.0005H21C21.2652 22.0005 21.5196 21.8951 21.7071 21.7076C21.8946 21.5201 22 21.2657 22 21.0005V14.0005C22 13.7353 21.8946 13.4809 21.7071 13.2934C21.5196 13.1058 21.2652 13.0005 21 13.0005ZM20 20.0005H15V15.0005H20V20.0005ZM10 2.00049H3C2.73478 2.00049 2.48043 2.10585 2.29289 2.29338C2.10536 2.48092 2 2.73527 2 3.00049V10.0005C2 10.2657 2.10536 10.5201 2.29289 10.7076C2.48043 10.8951 2.73478 11.0005 3 11.0005H10C10.2652 11.0005 10.5196 10.8951 10.7071 10.7076C10.8946 10.5201 11 10.2657 11 10.0005V3.00049C11 2.73527 10.8946 2.48092 10.7071 2.29338C10.5196 2.10585 10.2652 2.00049 10 2.00049ZM9 9.00049H4V4.00049H9V9.00049Z" fill="black"/>
</svg>
