<svg width="24" height="24" viewBox="0 0 24 24" fill="none" xmlns="http://www.w3.org/2000/svg">
<path d="M3 8.00049H21C21.2652 8.00049 21.5196 7.89513 21.7071 7.70759C21.8946 7.52006 22 7.2657 22 7.00049C22 6.73527 21.8946 6.48092 21.7071 6.29338C21.5196 6.10585 21.2652 6.00049 21 6.00049H3C2.73478 6.00049 2.48043 6.10585 2.29289 6.29338C2.10536 6.48092 2 6.73527 2 7.00049C2 7.2657 2.10536 7.52006 2.29289 7.70759C2.48043 7.89513 2.73478 8.00049 3 8.00049ZM21 16.0005H3C2.73478 16.0005 2.48043 16.1058 2.29289 16.2934C2.10536 16.4809 2 16.7353 2 17.0005C2 17.2657 2.10536 17.5201 2.29289 17.7076C2.48043 17.8951 2.73478 18.0005 3 18.0005H21C21.2652 18.0005 21.5196 17.8951 21.7071 17.7076C21.8946 17.5201 22 17.2657 22 17.0005C22 16.7353 21.8946 16.4809 21.7071 16.2934C21.5196 16.1058 21.2652 16.0005 21 16.0005ZM21 11.0005H3C2.73478 11.0005 2.48043 11.1058 2.29289 11.2934C2.10536 11.4809 2 11.7353 2 12.0005C2 12.2657 2.10536 12.5201 2.29289 12.7076C2.48043 12.8951 2.73478 13.0005 3 13.0005H21C21.2652 13.0005 21.5196 12.8951 21.7071 12.7076C21.8946 12.5201 22 12.2657 22 12.0005C22 11.7353 21.8946 11.4809 21.7071 11.2934C21.5196 11.1058 21.2652 11.0005 21 11.0005Z" fill="black"/>
</svg>
