<svg width="270" height="26" viewBox="0 0 270 26" fill="none" xmlns="http://www.w3.org/2000/svg">
<g clip-path="url(#clip0)">
<path d="M265.62 14.056C261.612 15.9662 255.839 21.8723 250.054 19.3834C245.21 17.299 241.169 13.1332 235.315 12.2721C229.66 11.4404 224.136 12.0382 219.267 13.8068C216.11 14.9532 209.037 17.7273 205.179 18.0198C203.895 18.117 198.706 8.39579 194.536 7.85513C193.711 7.74825 184.525 15.6457 182.983 16.6474C178.938 19.2743 177.749 14.2392 175.594 11.9979C171.376 7.61148 157.298 17.1611 154.366 18.0426C150.086 19.3289 149.667 20.3702 148.266 16.5663C147.729 15.1086 147.448 11.3405 144.15 10.8284C138.916 10.0157 131.889 11.1786 127.693 13.1564C125.992 13.958 117.018 18.1863 116.856 17.9631C114.751 15.0529 114.943 12.4449 112.176 9.56722C109.847 7.14559 107.319 8.74842 105.184 10.2233C101.852 12.5248 97.4198 13.1454 93.7494 14.9793C86.0097 18.8465 90.062 12.7693 87.301 9.62827C83.2336 5.0017 75.7936 10.7184 70.7661 12.7543C59.8885 17.1596 59.9849 11.8473 52.3472 7.35652C46.6744 4.02123 39.6342 14.4026 35.6128 15.6113C30.1054 17.2665 23.2929 10.2054 19.6184 7.80897C10.1347 1.62305 8.37218 14.8334 3.4136 16.3237" stroke="black" stroke-width="4" stroke-linecap="round" stroke-linejoin="round"/>
</g>
<defs>
<clipPath id="clip0">
<rect width="268.711" height="20" fill="white" transform="translate(268.645 25.9756) rotate(-178.725)"/>
</clipPath>
</defs>
</svg>
