<svg width="304" height="448" viewBox="0 0 304 448" fill="none" xmlns="http://www.w3.org/2000/svg">
<path fill-rule="evenodd" clip-rule="evenodd" d="M149.609 315.525C149.034 321.507 150.21 327.219 153.009 332.049L153.92 333.62L152.186 334.225C149.031 335.325 145.523 335.86 141.46 335.86C137.279 335.86 132.931 335.28 129.437 334.813L127.2 334.514L128.299 332.576C129.183 331.018 129.346 329.131 129.52 327.133C129.566 326.596 129.614 326.041 129.677 325.491C132.988 295.977 137.172 266.078 141.219 237.163C142.284 229.554 143.385 221.686 144.453 213.947L147.517 214.065C148.342 228.39 149.142 242.957 149.915 257.045C150.255 263.24 150.596 269.435 150.939 275.629C152.161 291.29 151.739 303.97 149.609 315.525ZM148.359 492.512C152.859 492.512 157.367 492.044 161.759 491.122C175.502 488.245 187.987 481.456 198.611 475.318C199.154 475.012 199.704 474.705 200.269 474.389C204.428 472.068 209.605 469.18 212.848 465.657C216.407 461.792 217.02 457.941 214.776 453.537L214.421 452.84L214.792 452.151C217.115 447.837 216.942 442.5 214.372 439.172L212.211 436.376L215.763 436.752C219.345 437.131 222.955 437.645 226.446 438.142C230.32 438.693 234.326 439.263 238.271 439.644L239.368 439.75L239.62 440.804C239.76 441.391 239.933 441.747 241.15 441.747C242.206 441.747 243.624 441.439 245.125 441.112C246.988 440.708 249.1 440.249 251.136 440.249C252.032 440.249 252.837 440.334 253.599 440.51L254.043 440.611L254.358 440.934C254.56 441.14 254.904 441.268 255.254 441.268C255.52 441.268 255.766 441.194 255.931 441.066L256.428 440.677L257.059 440.746C268.058 441.951 277.542 444.065 286.052 447.209L286.09 447.223L286.275 447.303C289.352 448.627 292.534 449.997 295.431 449.997C297.55 449.997 299.27 449.278 300.845 447.735L301.29 447.3L301.918 447.294C308.289 447.235 311.2 439.824 311.603 434.858L311.653 434.232L312.139 433.825C323.243 424.531 329.798 411.766 332.179 394.801C334.349 379.348 332.683 363.055 330.768 349.155C326.337 313.132 321.716 280.839 309.969 250.212L309.42 248.78L310.883 248.256C315.956 246.438 319.834 244.268 322.737 241.623L322.938 241.44L323.191 241.336C327.352 239.631 329.39 233.336 329.915 231.448L329.957 231.296L330.031 231.156C330.88 229.531 331.075 227.271 330.568 224.956L330.513 224.706L330.545 224.453C330.819 222.254 329.909 219.956 328.945 217.522C328.505 216.41 328.05 215.261 327.718 214.117C326.575 210.846 325.433 207.517 324.329 204.297C321.851 197.073 319.289 189.604 316.56 182.337L316.187 181.344L317.009 180.659C318.413 179.489 317.944 178.112 315.92 174.821C315.442 174.043 314.989 173.308 314.645 172.583C312.051 168.111 309.27 163.818 306.379 159.822L306.319 159.74L306.272 159.651C291.436 132.014 265.121 116.794 232.174 116.794L231.502 116.795L231.131 116.572C224.956 112.868 220.548 106.513 217.655 97.1436L217.563 96.8449L217.598 96.5346C217.697 95.6711 217.806 94.5388 217.769 93.4402C217.674 90.6578 216.581 88.1749 214.769 86.628C211.332 83.693 206.113 83.4473 201.062 83.4473H200.337C193.879 83.4669 189.32 84.5853 185.989 86.9685C182.118 89.7375 179.979 94.2074 179.449 100.633C179.291 102.556 179.296 104.548 179.301 106.475L179.303 107.012L179.238 107.226C178.773 108.753 178.23 110.22 177.622 111.588L176.996 112.994L175.574 112.36C174.654 111.95 173.488 111.739 172.009 111.716C171.582 111.706 171.166 111.701 170.746 111.701C167.311 111.701 163.635 112.014 160.081 112.317C157.403 112.545 154.633 112.78 151.953 112.885L151.916 112.887C151.916 112.887 151.546 112.884 151.38 112.884C144.865 112.884 140.141 113.906 136.516 116.101C132.613 118.463 129.806 122.255 127.684 128.034C116.301 161.159 111.621 196.839 107.493 228.317C105.151 244.778 104.439 261.654 103.75 277.974C103.023 295.2 102.271 313.013 99.6095 330.425L99.3992 331.801L97.9857 331.71C91.7652 331.31 85.0431 330.447 77.9264 329.534C67.1135 328.147 55.9325 326.712 45.1237 326.712C30.0108 326.712 18.552 329.678 10.098 335.779C4.20432 341.319 1.1553 348.819 1.28058 357.475C1.4577 369.705 7.94315 383.227 17.8029 391.923L17.8401 391.957C30.3029 403.701 53.0521 413.887 85.4557 422.232C115.253 429.905 146.074 434.076 161.795 435.878L165.686 436.325L162.527 438.602C161.249 439.524 160.083 440.336 158.962 441.084L158.239 441.566L157.446 441.204C155.187 440.17 153.753 439.953 152.946 439.953C152.231 439.953 151.368 440.108 151.32 440.847C151.289 441.33 151.634 442.048 152.362 442.139L156.23 442.621L153.072 444.867C150.963 446.367 147.816 448.176 144.172 450.27C132.25 457.122 114.234 467.476 117.332 476.569L117.536 477.166L117.248 477.73C116.415 479.357 116.344 480.868 117.031 482.349C118.502 485.522 123.104 487.931 127.012 488.911L127.079 488.928L127.144 488.95C133.944 491.313 141.082 492.512 148.359 492.512Z" fill="white"/>
<mask id="mask0" mask-type="alpha" maskUnits="userSpaceOnUse" x="0" y="89" width="335" height="405">
<path d="M335 89.3379H0V493.92H335V89.3379Z" fill="white"/>
</mask>
<g mask="url(#mask0)">
<path fill-rule="evenodd" clip-rule="evenodd" d="M125.78 334.129C124.982 329.786 126.496 325.301 126.758 320.927C130.722 289.731 135.099 258.555 140.898 227.631C142.32 220.23 143.758 212.86 145.406 205.5C145.157 201.043 144.939 196.586 144.795 192.126C136.747 187.079 127.672 183.812 118.287 182.165C115.75 196.26 113.216 210.345 111.458 224.566C105.977 259.765 109.104 295.583 103.787 330.742C111.163 331.567 118.481 332.788 125.78 334.129ZM111.624 361.552C117.17 363.023 122.722 364.43 128.312 365.729C138.261 368.039 148.207 370.358 158.131 372.772C163.084 373.977 168.048 375.145 172.991 376.389C175.336 376.98 177.667 377.635 179.962 378.395C181.108 378.775 182.227 379.21 183.347 379.657C184.327 380.048 185.252 380.588 186.331 380.511C186.395 380.506 186.435 380.444 186.403 380.386C185.839 379.352 184.677 378.862 183.651 378.339C182.52 377.762 181.341 377.267 180.161 376.795C177.54 375.745 174.81 374.975 172.088 374.227C162.193 371.511 152.213 369.078 142.244 366.643C132.227 364.197 122.209 361.854 112.059 360.001C111.036 359.815 110.594 361.279 111.624 361.552ZM160.755 445.188C160.311 445.07 159.864 444.961 159.42 444.858C152.304 450.768 118.79 466.114 121.339 475.28C122.24 476.42 124.396 476.68 125.76 477.048C128.134 477.689 130.532 478.244 132.953 478.683C140.778 480.103 148.882 480.35 156.697 478.73C159.572 478.294 162.167 477.071 164.785 475.888C173.247 472.175 182.566 468.073 190.986 464.391C201.684 460.161 220.447 451.824 212.73 437.758C205.419 445.96 196.138 445.244 191.463 435.049C189.851 431.954 188.445 427.782 184.658 426.531C182.661 425.184 180.106 424.904 178.438 426.405C178.317 426.218 178.209 425.956 178.15 425.723C176.269 428.395 174.646 431.207 172.441 433.649C173.198 433.689 181.079 439.508 178.754 439.511C175.955 438.073 173.175 436.875 170.154 436.1C167.964 438.297 165.556 440.341 163.06 442.229C165.484 443.826 167.661 445.781 169.411 447.902C169.563 448.089 169.378 448.331 169.152 448.23C166.434 447.022 163.638 445.96 160.755 445.188ZM124.681 484.824C151.901 497.02 180.717 483.44 203.93 468.962C209.287 465.978 216.334 461.748 215.251 454.723C211.305 460.481 204.8 463.761 198.557 466.603C188.067 471.333 177.509 475.911 166.993 480.582C166 483.868 161.251 483.995 158.38 484.724C145.604 487.196 131.869 485.967 119.845 481.039C120.541 483.094 122.817 484.037 124.681 484.824ZM233.283 437.336C233.955 437.422 234.628 437.5 235.3 437.576C235.231 436.688 235.768 435.8 236.63 435.525C236.242 433.643 236.099 431.699 236.307 429.79C235.182 432.688 231.553 431.807 229.247 430.972C225.953 430.079 222.68 429.119 219.425 428.094C218.141 430.473 216.781 432.816 215.11 434.97C221.194 435.51 227.221 436.582 233.283 437.336ZM235.96 428.22C236.122 428.561 236.353 428.922 236.358 429.33C236.522 427.92 236.843 426.528 237.331 425.194C236.874 426.202 236.417 427.211 235.96 428.22ZM239.801 420.661C242.794 416.769 248.326 413.588 253.44 414.673C253.769 414.744 253.776 415.271 253.44 415.336C246.57 416.267 240.538 421.703 240.299 428.73C239.757 431.911 241.975 435.033 241.228 438.086C241.377 438.096 241.526 438.103 241.672 438.113C241.726 438.318 241.775 438.499 241.839 438.658C241.097 438.781 240.879 439.972 241.754 440.184C242.273 440.31 242.815 440.376 243.366 440.404C246.167 439.649 249.122 439.475 251.8 438.36C254.449 437.193 253.787 433.911 254.721 431.638C255.406 429.017 256.195 426.407 257.188 423.892C257.26 423.69 257.535 423.736 257.558 423.94C258.259 428.957 258.235 434.06 258.066 439.117C258.985 439.21 259.899 439.314 260.816 439.427C260.756 438.015 265.005 420.805 267.244 425.222C266.117 430.077 265.981 435.15 265.86 440.146C272.506 441.238 279.055 442.865 285.427 445.08C289.917 446.437 295.257 450.453 299.616 446.823C302.991 444.038 304.129 439.18 303.81 435.046C299.421 410.587 264.748 407.729 244.281 409.538C242.347 413.987 240.378 418.421 238.384 422.845C238.797 422.084 239.269 421.352 239.801 420.661ZM309.61 434.569C309.984 429.015 309.048 422.101 304.922 417.962C295.48 409.999 282.259 407.494 270.46 404.611C264.964 403.529 259.393 402.81 253.8 402.452C251.815 402.296 249.294 402.745 247.893 401.126C247.171 402.831 246.44 404.533 245.708 406.236C269.197 403.166 318.205 413.83 304.481 445.927C307.387 442.787 309.312 438.963 309.61 434.569ZM326.009 331.758C325.351 326.991 324.633 322.229 323.873 317.474C320.766 294.733 314.346 272.599 310.518 250.012C303.893 252.161 297.107 253.798 290.417 255.732C304.914 279.78 316.772 305.317 326.009 331.758ZM271.574 309.381C272.848 303.338 274.278 297.179 274.927 291.035C274.957 290.759 274.531 290.729 274.455 290.972C273.39 294.374 272.665 297.901 271.767 301.351C270.865 304.812 270.027 308.289 269.14 311.754C268.857 312.861 268.572 313.966 268.288 315.073C268.117 315.08 267.948 315.086 267.778 315.089C267.128 315.105 266.933 315.919 267.456 316.257C267.609 316.356 267.762 316.443 267.916 316.52C265.198 327.064 262.413 337.585 259.374 348.048C255.833 360.241 251.847 372.287 248.66 384.578C248.586 384.863 248.718 385.061 248.911 385.147C247.254 390.74 245.865 396.407 244.35 402.042C244.035 403.216 245.772 403.976 246.366 402.878C247.281 401.185 247.483 398.873 247.931 397.013C248.435 394.919 248.914 392.819 249.393 390.719C250.154 387.378 250.837 383.997 251.4 380.609C253.498 375.352 255.376 370.031 257.039 364.61C260.762 352.47 264.196 340.246 267.253 327.927C268.156 324.29 269.041 320.649 269.885 316.999C273.728 317.058 277.743 312.721 281.605 315.03C281.784 315.137 281.965 314.893 281.824 314.751C280.285 313.195 278.157 313.059 276.089 313.445C274.746 313.695 273.458 314.17 272.143 314.527C271.563 314.685 270.969 314.8 270.367 314.886C270.782 313.054 271.186 311.219 271.574 309.381ZM188.778 423.814C190.742 425.095 192.344 426.989 193.474 429.025C200.713 447.918 208.455 437.798 218.075 427.661C209.934 424.596 199.152 422.301 192.909 416.209C191.828 418.903 190.506 421.468 188.778 423.814ZM191.368 377.731C191.997 374.623 192.515 371.495 192.986 368.36C193.439 365.354 194.145 362.134 194.03 359.09C194.026 358.969 193.854 358.948 193.817 359.062C192.839 362.096 192.545 365.45 191.925 368.575C191.324 371.596 190.665 374.605 190 377.612C188.635 383.786 186.705 389.866 185.537 396.077C185.412 396.742 186.313 396.975 186.558 396.353C188.897 390.414 190.109 383.958 191.368 377.731ZM323.773 237.677C326.935 234.28 329.421 229.941 328.94 225.338C327.041 222.811 326.412 219.514 325.305 216.593C320.98 204.37 316.964 192.053 312.257 179.961C302.242 183.033 292.389 186.718 283.096 191.559C281.386 192.429 279.694 193.332 278.023 194.268C276.272 195.246 274.362 196.946 272.263 196.46C274.557 199.701 279.284 203.073 280.082 206.819C280.254 208.004 279.412 209.104 278.118 208.839C257.866 223.189 236.951 237.236 217.808 253.22C203.473 264.54 192.467 273.722 187.551 292.089C184.237 303.987 184.227 316.423 184.714 328.656C184.809 331.034 184.812 333.469 185.004 335.862C184.717 337.653 185.264 341.298 187.282 341.363C187.236 341.797 187.092 342.198 186.863 342.552C186.927 342.637 186.994 342.718 187.063 342.801C187.163 342.312 187.261 341.825 187.354 341.336C188.924 334.394 189.135 326.34 188.873 318.95C188.763 316.831 192.02 316.882 192.203 318.95C192.693 324.537 193.184 330.124 193.674 335.708C194.262 339.328 193.335 344.062 196.236 346.814C199.185 344.095 198.21 338.733 198.066 335.224C197.835 329.501 197.586 323.78 197.373 318.057C197.306 316.243 200.318 315.777 200.659 317.621C201.627 322.877 202.674 328.119 203.801 333.345C204.482 335.365 204.949 344.431 208.348 342.857C210.373 341.477 208.912 333.388 209.179 330.709C209.054 325.407 208.979 320.113 208.589 314.823C208.43 312.689 211.914 312.235 212.391 314.319C213.166 317.691 213.908 321.064 214.581 324.459C216.057 330.182 215.52 337.941 220.85 341.744C222.937 326.878 219.934 312.114 219.512 297.301C219.764 292.501 220.59 287.748 221.32 283.006C222.126 277.762 222.595 272.054 220.709 266.997C221.225 264.732 223.253 270.859 223.443 271.368C224.97 268.367 228.69 268.135 231.632 267.199C238.17 265.088 244.868 263.496 251.484 261.619C269.028 256.759 286.593 251.974 304.162 247.199C311.181 245.262 318.569 242.969 323.773 237.677ZM148.089 316.755C150.509 303.667 150.443 290.404 149.408 277.172C148.271 256.65 147.167 236.124 145.986 215.604C140.859 252.743 135.394 289.839 131.215 327.097C130.917 329.69 130.963 332.434 129.651 334.747C136.901 335.716 144.628 336.692 151.677 334.233C148.584 328.898 147.493 322.824 148.089 316.755ZM305.441 164.996C293.221 139.972 268.304 122.207 240.36 118.332C240.329 118.363 240.296 118.393 240.265 118.426C240.358 118.509 240.442 118.6 240.519 118.693C239.767 118.141 238.735 118.834 239.069 119.598C238.656 120.539 238.35 121.508 237.968 122.456C237.806 122.441 237.642 122.426 237.478 122.401C235.819 125.685 234.921 129.471 233.188 132.745C223.704 149.135 200.302 155.789 182.748 149.173C168.818 143.152 166.842 126.008 168.09 112.829C168.154 111.941 168.605 111.313 169.209 110.942C161.612 112.155 154.016 113.378 146.412 114.531C142.749 115.086 138.985 115.888 136.157 118.398C125.023 129.827 123.036 160.582 119.29 176.571C128.252 177.507 138.269 182.602 144.692 188.779C144.389 181.757 144.823 174.77 145.635 167.798C145.647 167.458 146.217 167.342 146.271 167.715C147.876 174.782 149.11 181.911 149.619 189.152C151.732 218.293 152.987 247.492 154.797 276.653C155.415 287.385 156.188 298.211 154.655 308.906C149.722 330.923 158.421 341.729 181.772 338.069C178.936 310.167 180.992 278.242 204.417 258.895C205.131 258.26 205.988 258.303 206.638 258.681C225.684 242.538 245.785 227.585 267.179 214.565C267.025 211.874 273.774 209.495 275.664 207.639C268.648 200.389 263.306 191.576 258.646 182.713C258.235 181.749 252.878 172.053 254.583 172.664C259.673 180.188 264.735 187.76 270.73 194.646C270.404 191.47 278.652 189.341 281.191 187.891C291 183.77 301.256 180.544 311.825 178.873C309.923 174.149 307.843 169.496 305.441 164.996ZM174.905 113.956C175.226 113.409 175.532 112.849 175.824 112.281C174.833 112.319 173.868 112.354 172.893 112.516C172.936 114.082 172.849 115.661 172.831 117.24C173.319 116.085 174.274 115.031 174.905 113.956ZM9.36917 334.538C32.7791 317.558 71.2304 328.376 98.3497 330.121C103.52 296.304 101.41 261.935 106.229 228.062C110.667 194.222 115.347 159.911 126.494 127.488C131.094 114.952 139.052 111.229 152.155 111.33C158.804 111.07 165.835 110.009 172.297 110.16C173.714 110.183 175.195 110.369 176.474 110.939C178.271 106.898 179.247 102.56 179.739 98.1888C179.77 97.9114 180.124 97.8609 180.23 98.1258C181.75 101.932 181.911 106.086 181.085 110.072C180.486 112.927 176.926 124.164 172.79 119.768C172.462 128.987 174.492 139.997 183.547 144.782C199.368 151.663 221.238 145.397 230.402 130.793C232.174 127.874 233.701 124.769 235.662 121.967C221.997 118.108 214.327 101.776 217.546 89.3379C219.535 99.0111 223.163 109.819 232.197 115.237C265.093 115.164 292.443 130.109 307.897 158.894C310.921 163.074 313.717 167.417 316.279 171.836C317.658 174.793 321.696 178.904 318.269 181.759C322.227 192.298 325.739 202.982 329.451 213.604C330.471 217.143 332.802 220.856 332.337 224.576C332.84 226.869 332.817 229.581 331.664 231.785C330.57 235.715 328.116 241.002 324.047 242.669C320.594 245.814 316.228 247.981 311.674 249.613C323.819 281.274 328.442 315.419 332.557 348.87C336.591 378.134 338.672 413.732 313.402 434.882C312.911 440.933 309.312 448.644 302.196 448.71C297.267 453.537 291.26 450.889 285.773 448.528C276.514 445.107 266.802 443.211 257.152 442.154C256.117 442.961 254.433 442.827 253.512 441.887C247.666 440.542 239.565 445.986 238.384 441.054C230.847 440.325 223.392 438.958 215.862 438.161C219.035 442.268 218.806 448.323 216.417 452.76C222.503 464.704 208.325 471.62 199.656 476.521C187.952 483.281 175.729 489.695 162.344 492.497C150.576 494.967 138.249 494.218 126.894 490.273C120.928 488.777 112.595 483.866 116.135 476.947C111.648 463.781 143.162 450.137 152.432 443.544C148.643 443.072 148.505 435.228 158.36 439.735C159.551 438.94 160.722 438.121 161.879 437.286C122.017 432.715 45.8871 420.142 17.0373 392.961C1.18787 378.984 -7.95663 350.714 9.36917 334.538Z" fill="black"/>
</g>
<path fill-rule="evenodd" clip-rule="evenodd" d="M193.002 7.57715C178.751 7.57715 160.355 16.4959 158.786 25.6303C156.938 36.395 147.038 77.7004 149.274 90.9463C151.509 104.192 163.555 113.728 182.831 113.728C202.106 113.728 216.493 103.241 219.797 99.6399C221.999 97.2394 225.141 91.7539 229.222 83.1833C236.103 82.2704 239.559 79.0163 239.592 73.4209C239.625 67.8255 237.388 64.0099 232.882 61.9741C234.488 39.8923 233.268 25.9769 229.222 20.2279C223.153 11.6043 207.254 7.57715 193.002 7.57715Z" fill="white"/>
<path fill-rule="evenodd" clip-rule="evenodd" d="M159.657 24.1563C159.667 23.9638 159.386 23.9412 159.333 24.1115C156.259 34.2452 154.364 42.1426 152.368 52.5319L151.779 55.5881C150.205 63.7394 148.614 71.9026 147.271 80.0934L147.192 80.5825C146.519 84.8223 146.131 89.1035 146.974 93.3521C147.763 97.3234 149.916 100.964 152.712 103.864C158.116 109.468 165.626 112.968 173.18 114.533C177 115.325 180.941 115.63 184.834 115.355C186.774 115.219 188.712 114.946 190.612 114.543L190.821 114.499C192.736 114.086 194.436 113.594 195.453 111.796C195.709 111.343 195.606 110.567 195.069 110.334C194.055 109.898 193.31 109.716 192.203 109.841C191.146 109.961 190.115 110.279 189.07 110.477C187.075 110.855 185.047 111.045 183.017 111.09C179.028 111.178 175.03 110.68 171.218 109.493C164.667 107.452 158.01 103.548 154.183 97.7091C149.68 90.8399 151.473 82.5031 152.666 74.9169L152.702 74.6873C153.91 66.9333 155.104 59.1794 156.264 51.4204L156.758 48.0948C158.058 39.3083 159.286 33.0358 159.657 24.1563ZM226.167 2.64969C222.897 0.499791 218.835 -0.0285036 214.994 0.00116382L214.514 0.00721202C209.596 0.0819838 184.845 0.669628 176.557 0.850453L174.586 0.891878C171.977 0.940995 166.714 0.99228 164.003 1.04172L163.846 1.04462C162.516 1.06966 161.186 1.07968 159.855 1.12225L159.66 1.12925C158.664 1.1717 157.835 1.32045 157.054 2.02118C156.657 2.37633 156.503 2.91799 156.539 3.43392L156.545 3.50105L154.569 3.67382C153.228 3.79211 152.519 4.99225 153.052 6.20669L153.079 6.26546C154.025 8.27868 154.748 14.138 155.255 16.304C155.521 17.4433 155.734 18.6002 155.86 19.7645C155.96 20.6812 155.97 21.6 156.482 22.4062C157.574 24.1265 160.646 24.1115 160.701 21.6751C160.704 21.5975 160.701 21.5223 160.694 21.4497C168.424 21.1117 178.978 21.1442 186.699 21.605C193.91 22.0357 201.088 23.0122 208.153 24.5071C209.943 24.8852 211.727 25.2984 213.499 25.7466C214.953 26.1122 216.737 26.33 218.037 27.1138C219.493 27.9952 219.465 29.5752 219.307 31.0801C219.138 32.6752 218.855 31.8533 218.454 33.3069L218.429 33.3988C218.015 34.9763 217.503 36.5363 216.825 38.0187C216.438 38.865 215.816 39.6788 216.052 40.6529C216.185 41.2013 216.619 41.7872 217.018 42.1703C218.836 43.9106 221.908 42.8013 223.142 45.1851C224.435 47.6778 224.467 51.0545 224.577 53.8127L224.583 53.9742C224.663 55.8747 224.641 57.7803 224.515 59.6758C224.402 61.4033 223.941 63.1138 224.533 64.7739C224.965 65.9809 226.375 66.0935 227.113 65.112C227.198 64.9993 227.275 64.8838 227.348 64.7676L227.419 64.6512L227.424 64.6537C227.354 64.7639 227.289 64.8768 227.226 64.9918C227.158 65.1195 227.326 65.2597 227.429 65.1495C229.166 63.264 231.704 63.6396 233.669 64.9592C235.659 66.3014 236.445 68.8504 236.548 71.1368C236.663 73.6729 236.437 76.6456 235.378 78.9891C234.931 79.9807 234.294 80.8922 233.237 81.2703C232.758 81.4406 232.301 81.418 231.802 81.4581C231.282 81.4979 230.657 81.7586 230.153 81.7235C229.497 81.677 228.909 82.4236 229.095 83.0492L229.108 83.0907C229.118 83.1207 229.129 83.1508 229.138 83.1783C229.113 83.2009 229.088 83.2284 229.071 83.2685C227.163 87.1572 224.548 90.6177 221.657 93.8278C220.208 95.4329 218.602 96.9078 216.923 98.2724C216.095 98.946 215.221 99.6198 214.3 100.163C213.994 100.34 213.713 100.461 213.369 100.559C213.208 100.604 213.025 100.626 212.869 100.679L212.708 100.734C212.697 100.738 212.686 100.741 212.676 100.744C212.214 100.796 211.825 101.102 211.672 101.58C211.273 102.827 211.998 103.929 213.238 104.272C214.582 104.647 215.848 103.989 216.912 103.233L216.983 103.183C219.154 101.623 221.155 99.8725 222.886 97.8292C226.312 93.7953 228.459 89.1253 229.452 83.9596C229.698 84.4879 230.03 84.9487 230.604 85.2692C231.498 85.77 232.565 85.77 233.543 85.6022C235.514 85.2692 237.193 84.0697 238.315 82.4472C239.48 80.7645 239.914 78.7212 240.177 76.7305C240.438 74.7371 240.566 72.7366 240.305 70.7385C239.931 67.8689 238.724 65.0318 236.377 63.4593C238.134 59.6407 238.443 55.3589 238.317 51.1772C238.164 46.029 237.273 40.8232 236.588 35.7225L234.64 21.2219L234.56 20.6373C234.09 17.226 233.518 13.7966 232.238 10.5824C230.976 7.4148 229.058 4.55022 226.167 2.64969ZM234.364 71.2492C231.146 69.6917 227.67 71.1265 225.938 74.1489C224.433 76.7766 228.91 78.5134 229.657 75.8048L229.678 75.7214C230.17 73.6706 232.173 71.8978 234.264 71.6223C234.437 71.5975 234.565 71.3471 234.364 71.2492Z" fill="black"/>
<path fill-rule="evenodd" clip-rule="evenodd" d="M170.972 71.4558C169.077 72.6052 166.189 75.2852 168.228 78.1346C170.628 80.647 174.083 77.7664 175.786 76.4636C177.365 75.4539 179.139 78.0507 177.674 79.2297C165.369 88.318 160.376 71.7564 170.013 70.1045C171.074 69.9224 171.468 71.1003 170.972 71.4558ZM188.096 49.5366L187.625 49.4544L187.383 49.4135C185.972 49.1807 184.298 49.0249 183.323 50.1303C182.777 50.7503 182.588 51.9027 183.323 52.4961C184.617 53.5403 186.046 53.1356 187.596 53.224C188.873 53.2971 190.1 53.508 191.33 53.8588C194.029 54.6283 196.228 56.033 198.533 57.5755C198.835 57.7778 199.144 57.3919 199 57.1097C197.669 54.5098 195.091 52.3742 192.508 51.0723C191.129 50.3775 189.621 49.8011 188.096 49.5366ZM175.612 85.4541C171.488 85.7528 162.55 83.7887 158.839 86.7349C144.852 104.16 200.304 108.639 194.315 89.3619C190.501 83.1287 181.727 85.6339 175.612 85.4541ZM176.32 95.9732C177.34 95.8903 178.577 96.6963 178.877 97.3191C179.176 97.9421 179.061 99.2584 179.052 99.4865C177.268 99.6658 175.469 99.6931 173.681 99.5762C174.146 98.043 174.161 96.2053 176.32 95.9732ZM168.086 98.5453C168.372 96.6422 169.737 96.1915 170.841 96.4772C171.971 96.7692 172.634 98.0665 172.562 99.2216C172.557 99.3012 172.603 99.3688 172.634 99.4329C171.098 99.2519 169.577 98.9539 168.086 98.5453ZM180.734 96.3177C181.377 95.3417 182.914 94.8707 183.898 95.0427C185.505 95.3802 185.695 97.4175 185.695 97.8326C184.213 98.396 182.64 98.7701 181.137 99.0681C180.835 99.1277 180.532 99.181 180.229 99.2314L180.209 98.984C180.172 98.4539 180.145 97.2111 180.734 96.3177ZM162.555 96.1567C164.203 93.6134 167.745 95.4343 167.452 98.2127C167.137 98.1138 166.824 98.0104 166.512 97.902C165.218 97.4518 163.798 96.9167 162.555 96.1567ZM175.527 87.3937C177.744 87.1946 179.563 87.2618 181.008 87.5292L181.052 88.011C181.212 89.6814 181.418 91.3238 180.539 91.9958C179.825 92.5417 177.455 92.4896 175.866 92.0945C175.473 91.9958 174.963 88.5313 175.527 87.3937ZM172.1 87.1946C172.455 88.8409 172.622 90.8399 171.909 91.4336C171.155 92.0605 168.73 91.9755 168.096 91.5579C167.541 91.1925 167.555 89.5113 167.762 87.6238C168.99 87.3351 171.128 87.1946 172.1 87.1946ZM181.989 87.5457L182.714 87.5522L183.125 87.5577C184.164 87.5761 185.285 87.6358 186.345 87.8665C188.449 92.4045 180.763 93.1878 181.95 87.7135L181.989 87.5457ZM166.784 87.6551L166.797 87.9122C166.86 89.1869 166.818 90.8656 166.11 91.3187C165.069 91.9856 163.113 91.8569 162.053 88.7724C162.404 87.8522 166.123 87.7225 166.784 87.6551ZM187.183 60.5967C186.738 60.5967 186.313 60.7474 185.925 61.0263C185.544 61.3008 185.198 61.7013 184.91 62.2009C184.366 63.1464 184.026 64.4518 184.026 65.8952C184.026 67.3386 184.366 68.644 184.91 69.5894C185.198 70.0891 185.544 70.4896 185.925 70.7641C186.313 71.043 186.738 71.1937 187.183 71.1937C187.628 71.1937 188.054 71.043 188.442 70.7641C188.823 70.4896 189.169 70.0891 189.456 69.5894C190.001 68.644 190.341 67.3386 190.341 65.8952C190.341 64.4518 190.001 63.1464 189.456 62.2009C189.169 61.7013 188.823 61.3008 188.442 61.0263C188.054 60.7474 187.628 60.5967 187.183 60.5967ZM159.012 60.5967C158.567 60.5967 158.142 60.7474 157.754 61.0263C157.372 61.3008 157.027 61.7013 156.739 62.2009C156.195 63.1464 155.855 64.4518 155.855 65.8952C155.855 67.3386 156.195 68.644 156.739 69.5894C157.027 70.0891 157.372 70.4896 157.754 70.7641C158.142 71.043 158.567 71.1937 159.012 71.1937C159.457 71.1937 159.883 71.043 160.271 70.7641C160.652 70.4896 160.998 70.0891 161.285 69.5894C161.83 68.644 162.17 67.3386 162.17 65.8952C162.17 64.4518 161.83 63.1464 161.285 62.2009C160.998 61.7013 160.652 61.3008 160.271 61.0263C159.883 60.7474 159.457 60.5967 159.012 60.5967ZM162.845 48.372L162.485 48.4456L162.245 48.4963C158.355 49.3311 153.423 50.9767 151.602 54.745C151.531 55.2889 151.606 55.4054 151.667 55.4816L151.687 55.5069C151.737 55.572 151.777 55.6616 152.013 55.7356C152.079 55.72 152.145 55.7035 152.212 55.686C153.064 55.4633 153.738 55.1564 154.391 54.838L155.098 54.4903C155.919 54.0887 156.747 53.7018 157.625 53.4162C159.498 52.8067 161.424 52.3774 163.381 52.1481C163.805 52.0985 164.213 51.9557 164.535 51.711C164.841 51.4788 165.074 51.1572 165.181 50.7298C165.319 50.1766 165.279 49.7579 164.982 49.2588C164.758 48.8841 164.438 48.6243 164.07 48.4752C163.696 48.3231 163.269 48.2873 162.845 48.372Z" fill="black"/>
</svg>
