<svg width="838" height="154" fill="none" xmlns="http://www.w3.org/2000/svg"><path fill-rule="evenodd" clip-rule="evenodd" d="M92.7 146.3A405.3 405.3 0 0092 136c-.6-6.8-1.3-13.6-2.5-20.3-1.1-6.7-2.7-13.1-5-19.4-1.2-3-2.4-5.5-4-8.1a17.6 17.6 0 00-6.3-5.7c-2.3-1.4-5-3.7-7.2-5.2-1-.7-2.9-.6-3.5-1.6-.8-1.2-.3-3-1.1-4.3a11 11 0 00-3.8-3.3 9.3 9.3 0 00-5.6-1.5c-2.9-.2-5.8.7-7.6 3a7 7 0 00-1.6 4c0 .4.1.7.3 1a72 72 0 00-.3.4c-.4-.5-1.3-.8-1.9-.4a26 26 0 01-6.2 3.3c-.5-.2-1.1-.1-1.5.3a3.5 3.5 0 01-.6.4 26.4 26.4 0 01-2.5.5c-.3 0-.5.2-.7.4a1 1 0 00-1-.2 30.3 30.3 0 00-11.7 7.9c-3.6 4-5.4 8.8-6.8 13.8a330 330 0 00-5.6 33.6 66.4 66.4 0 00.2 14.5l.2 1.2c-.3 0-.6.2-.6.5.4 2.7 3.6 3.4 5.8 3.7 3.6.5 7.2.8 10.8.8 3.6 0 7.1-.2 10.7-.4l11-.6 43.7-2.6a8 8 0 004-1c1.6-1 1.6-2.7 1.6-4.4z" fill="#fff"/><path fill-rule="evenodd" clip-rule="evenodd" d="M21.5 117c0-.2 0-.3.2-.2a10 10 0 012.9 6.4c.2 2.4-.1 5-.2 7.4l-.4 8.1-.5 8.3-.3 6.2c0 .7 0 1.5-.2 2.1-.4 1-1.6.8-1.8 0-.3-.7-.1-1.6 0-2.3l.2-6.8.7-14.4.1-1.6c.2-2.1.2-4.3.3-6.4v-.7a12 12 0 00-1-6.2zm43-39.9c1 0 1.7.2 2.6.6l1.1.5c.5.2.8.6 1 1l.2.3c1.2 1.7 2 3.7 3 5.7l3.1 6.7.6 1 .7 1.8.5 1c.4 1 .8 2 .2 3-.6 1-1.6 1.6-2.5 2.4l-2 1.8c1.4 1.4 2.4 3.2 3 5l2.5-.5c1.1-.2 1.3 1.6.2 1.6l-2.6-.1a29.7 29.7 0 01-.9 11.8v.2c-.9 3.5-1.7 7-2.4 10.6a263.2 263.2 0 00-2 10.6l-1.4 11c0 .5-.4 1-1 1-.5 0-1.1-.5-1-1a276.8 276.8 0 016-32l.2-1.3c.7-3 1.3-6.1 1-9.2a10 10 0 00-3.5-6.8c-.5-.4-.7-1.1-.2-1.6l.9-.9 1.8-1.8.4-.4 1-.9c.1-.1.7-.5.7-.8l-.3-.7-.4-.8-.7-1.4-1.4-3-2.8-6c-.8-1.8-1.5-3.6-2.6-5.1l-.2-.3-.4-.8-.4-1c-.5-.6-1.3-.9-2-1-.2 0-.1-.2 0-.2zm-21.7-1.6v.1c-.8.3-1.7.7-2.3 1.3-.4.3-.7.6-.9 1l-.1.5-.3.8a14 14 0 00-2 4.3l-1.3 3.2-1.2 3.2-1.1 3.1-.7 1.7c0 .3-.2.5-.3.8v.2c.2.5.9.8 1.2 1.1l1.3 1 2.7 2.2c.5.5.2 1.3-.4 1.5l-3 1.1-1.3.5H33v.9a316.5 316.5 0 005.9 27.6l2.8 10.7c1 3.6 2.2 7.1 3.4 10.6.3 1-1.3 1.4-1.6.4l-4-12.3a249 249 0 01-5.7-22.4 316.8 316.8 0 01-2.5-13.3l-.2-1.1c0-.7-.2-1.5.4-2.1.6-.6 1.6-.8 2.3-1l1.5-.6-2.1-1.7-1.7-1.3c-.5-.4-.8-.9-.9-1.5a174.7 174.7 0 011.1-3.5l1.4-3.6 2.6-6.7a23.8 23.8 0 011.9-3.7c.3-.5.5-.7 1-.9l2-1.4c.7-.4 1.4-.6 2.2-.6zm2.3-4h.1c0 1.2-.2 2.3-.4 3.4l-.4 3.4a.9.9 0 010 .1 1 1 0 01-.7.7 45.2 45.2 0 01.6 4.6l.2 1.1.4 3.3 1 .3c.8.3 1.7.4 2.5.5l5.2.3h6.1a20.1 20.1 0 002.9-.5l1.4-.5c.1 0 .3 0 .4-.2a.5.5 0 01.3-.2h.1a1 1 0 01.3 0l.1-2.5c.1-2.3.5-4.7 0-7h.1c1 2.4.8 5 .9 7.6v7.3l.4.4c.3.3.4.7 0 1l-.4.3v6.4c.3.3.4 1 0 1.4l-.4 20.8-.2 14.5-.1 5.8.3.2.4.3c.3.2.2.6 0 .9a1 1 0 01-.7.3v5.5c0 .5 0 1.1-.6 1.4-.6.2-1.1 0-1.4-.6v-2.5h-9.8l-1.8-.1.2 1.8c.1.6-.5 1.1-1 1.1-.7 0-1-.5-1.1-1l-.9-8.3-.8-7.3-.1-.8-2.9-26.7-.4-4.2-1.3-12.6A622.6 622.6 0 0143 84a118.2 118.2 0 01-.3-6.7v-.6c0-.2.2-.3.4-.2l.8-2c.4-1 .7-2.1 1.2-3zM23 82.7c4.2-2.6 9.1-4.4 14.1-4.2a46.7 46.7 0 00-7.8 2.6 29.6 29.6 0 00-16 15.8 117.5 117.5 0 00-4.6 17.5c-1 6-1.6 12.1-2 18.2-.3 6.3-.1 12.5-.4 18.7 0 1-1.6 1-1.6 0-.6-7-.3-14.3.2-21.3.4-6.4 1.2-12.7 2.4-19l.1-.5a61.5 61.5 0 015.3-17A29 29 0 0123 82.8zm57.8 27.6c.5 1.4.6 2.9.7 4.3l.3 3.9v.5a271 271 0 003.9 31c0 .5-.2 1.1-.8 1.3-.5.1-1.2-.2-1.3-.8a164 164 0 01-3.1-24.5 156.7 156.7 0 01-.3-8v-3.9c.1-1.3.1-2.6.6-3.8zm-45 33.2h.1c-.8 1.4-1.9 2.5-3 3.6-1 1.2-2 2.4-3.2 3.5-.8.8-2.1-.5-1.3-1.2l3.7-3.1.6-.5c1-.8 2-1.7 3.1-2.3zm38.3-.7s0-.2.1 0a32.3 32.3 0 005.8 4.7l1.8 1c.3 0 .6.1.8.4.3.4.3 1.2-.1 1.5-.6.5-1.3.6-1.8 0-.6-.4-1.1-1-1.7-1.6l-.1-.1-1.8-1.9-.5-.5c-1-1-1.9-2.2-2.5-3.5zm-3-61.1v-.3l.3.1a16.7 16.7 0 015.8 3.3 26 26 0 014.7 5.5c2.6 4 4.3 8.6 5.6 13.1a144.5 144.5 0 015.4 30.2 129.8 129.8 0 01.5 12.5v3c-.3 1-2 .8-2-.2v-1a6.5 6.5 0 000-.2.6.6 0 010-.4v-.5a45.8 45.8 0 000-6.3l-.6-8.4a142 142 0 00-5.3-29.2 44.7 44.7 0 00-5.7-12.5 33 33 0 00-8.7-8.7zM51.4 145l.2 1.4.2 2.2 2-.2 3.1-.2 6.6-.2.2-2.8h-9.5c-1-.1-2 0-2.8-.2zm12.4-4h-13l.4 2.8h12.5v-.1l.1-2.7zm-13.4-4.4l.3 3.2h.3a45.6 45.6 0 015.8-.3 317.3 317.3 0 016-.1h1v-2.5h-3.2a149.9 149.9 0 01-7.7-.1 36 36 0 01-1.6-.1h-.2l-.7-.1zm13.6-4.7l-7.3.3h-.4c-2.1 0-4.3.1-6.4 0 0 1.2.2 2.3.3 3.4h10.5l3.2-.2V132zm0-4.7h-1l-.9.1a113.7 113.7 0 01-12.3.2h-.5l.5 4.3 6.5-.7 1.9-.2 5.8-.7v-3zm.2-4.8h-1.3a43.5 43.5 0 01-6.8.3h-.8a119.7 119.7 0 01-5.9-.1h-.7l.5 4.1h.8a37.8 37.8 0 015.8-.7l4.1-.3h1l1-.1 1.7-.1h.5v-3.1zm0-5.7c0 .2-.3.3-.5.3-1.3.2-2.7.2-4 .3h-.3l-4.1.3a241.1 241.1 0 01-6 .2h-1.1l.4 3.9h.8a9 9 0 012.3-.3l4.3-.3c1.5 0 3 0 4.4-.2l2.2-.1c.5 0 1-.2 1.6-.1v-4zm.2-5c-.7.7-1.4.6-2.1.7a191.5 191.5 0 01-11.6.5l-3-.1.4 4.3.9-.1a49.4 49.4 0 016.2-.8c1.2 0 2.3-.2 3.5-.3h.7c1.4-.2 2.9-.4 4.3-.4.2 0 .5.1.6.3l.1-4.1zm.1-4H61l-5 .2h-7.7l-1-.1.4 4 3-.2h.2l4.5-.4 4.5-.3 2.3-.2c.8-.1 1.5-.3 2.1.2a.7.7 0 01.2.2l.1-3.5zm.1-4.8a345 345 0 01-14.4.2 41.4 41.4 0 01-2.2-.1h-.3l-1.1-.1.5 4.2 1-.2 2.5-.2a37 37 0 014.7-.3l4.8-.2 1.6-.1h.8l1.2-.1h.6a.7.7 0 01.2-.1l.1-3zm-18.5-4.5l.4 3.7h1.3l2.5-.3H52a346 346 0 0112.7-.6v-2.5l-.6.2h-9.7a139.7 139.7 0 01-7.2-.4l-1.1-.1zm-.5-4.5a926.7 926.7 0 01.4 3.8l1.2-.1a134.5 134.5 0 017.2-.4L64 97c.3 0 .5.1.7.3V95l-.9-.1a214.4 214.4 0 00-2.6-.2 401.1 401.1 0 00-11-.5h-.9c-1.3 0-2.6-.1-3.8-.3zM45 89l.5 4v.3c1.6-.3 3.2-.3 4.7-.4A121.2 121.2 0 0164 93h.9v-.6L65 90c-.6.4-1.4.5-2 .6h-.1a36.5 36.5 0 01-9.4.4h-.4c-1.8-.1-3.7-.3-5.4-.8-.8-.2-1.7-.5-2.5-1a9.8 9.8 0 01-.2 0zm17.5-15.5h.1c.3.4.4 1 .5 1.5l.6 1.6c.4 1.1 1 2.2 1.5 3.2.6 1-1 1.7-1.5.6a19.4 19.4 0 01-1.3-5.3v-1.6z" fill="#2B283A"/><path fill-rule="evenodd" clip-rule="evenodd" d="M68 33.5c-7.8-6.3-20.4-8.4-28.8-2-6.6 6-9.3 23.3-8.1 32 .3 5.5 4.5 11.8 10.8 10 1 0 2-.5 3.1-.6a15 15 0 013.8 0c2.8.5 5.3 2 8 2.6 5 1.3 10.5.4 14.8-2.4 14.2-9.4 7.8-30.5-3.5-39.6z" fill="#fff"/><path fill-rule="evenodd" clip-rule="evenodd" d="M67 75.7l.4-.2a.4.4 0 000 .1l.2.2-.6-.1zm-.3-62a3.4 3.4 0 00-.2-.4l.6.2a4.3 4.3 0 00-.4.2zm-31 18.9c0-.3.2-.6.4-.7l.2-.1a6 6 0 00-.6.8zm56.8 29.7l-.4-3c-.2-.9-.3-2-.8-2.8l-1.5-2.3.2-1c.6-1.7 1.1-3.8 0-5.3l-1-.9-.5-.3v-.1c0-.3.6-.8.7-1l.7-1.4c.6-1.8.2-3.8-.2-5.6l-.5-2.9.1-2.7a5 5 0 00-.3-2.7 3 3 0 00-.8-1l-1.1-.7c-.3-.3-.2-.7-.2-1 .2-.5.3-1 .3-1.6 0-.9-.3-1.8-1-2.5a3.7 3.7 0 00-2.3-1.3h-1.3c-.4 0-.5-.2-.6-.6-.1-.9 0-1.7-.5-2.6-.4-.7-1-1.2-1.8-1.5-1.4-.5-3-.4-4.4 0a6.6 6.6 0 00-6.2-4.3 3.7 3.7 0 00-2-1.5c-1.2-.5-2.6-.2-4-.2a5.9 5.9 0 00-.4 0 7.2 7.2 0 01-.4 0c-1.6-.3-3.1-.9-4.7-.3-.6.3-1.2.7-1.5 1.3l-1.6.5a6.6 6.6 0 00-5.4 3.1c-1.6-.2-3.3.1-4.3 1.4-.3.4-.5.7-.6 1.2a5 5 0 00-2.7 1.8 3 3 0 00-.3 2.8 5 5 0 00-2 2.8 3 3 0 00-.1 2.1c-1 .3-2 .7-2.7 1.2-.9.7-2 1.7-2 2.8a2 2 0 000 .3c-1.9-.2-3.8.1-5 1.6a4.8 4.8 0 00-1.2 4c-2.2.4-4.3 1.6-5.8 3.3-1 1.3-2 2.9-2 4.6 0 .5.1 1 .4 1.5a8.7 8.7 0 00-.3.6 8.3 8.3 0 00-3 4.1 7.3 7.3 0 00-.2 4.5l.3.6a8.6 8.6 0 00-.3.3c-1 1.1-1.9 2.5-1.8 4 0 .6.2 1.2.6 1.7-1.3 1.3-2.3 3-2.2 4.8a5 5 0 002.3 4c-.2 1.3 0 2.6 1 3.5.5.5 1.1.9 1.7 1 .1 1.5 1.4 2.7 2.8 3l.8.1a5 5 0 004 0 4 4 0 002 1.4c1.9.5 3.7-.2 5.2-1l.3-.1.8.6c.7.4 1.5.6 2.3.5a5 5 0 002.5-.8h.4c.7 0 1.3-.1 2-.5h1c1 .2 1.8-.2 2.5-.7l.8-.8.8-.6c.8-.4.9-1.6.6-2.4a1.2 1.2 0 000-.5c0-1.6-.7-3-1.6-4.4l-1.3-1.6c-.4-.4-.9-1-1.5-1.2v-1.3a2.4 2.4 0 00-.3-1 8 8 0 00.9-4.6 7.7 7.7 0 001.4-4.6v-1l.1-.4c.6-1 1.3-1.9 1.4-3.1.1-.8 0-1.6-.5-2.2a5.4 5.4 0 00-.6-4.2l.2-.7.1-.2 1-1c.5-.6 1-1.4 1-2.3l-.2-1.3-.2-.6-.2-.3v-1.4l1.5.9a4 4 0 003.2-.4c1 .7 2.2 1.4 3.4 1.6.7.2 1.4.1 2.2.2.7.1 1.4.4 2 .7l4.6 1.6a7 7 0 003.8.5c.4.6.8 1 1.4 1.4a4.2 4.2 0 001.4.5c.5 0 1 0 1.3.3l.9 1a4.5 4.5 0 002.3 1.4l-.1 2.4V55a135.8 135.8 0 01-.2 5.3c-.1 1.6-.2 3.3-.6 5a12.6 12.6 0 01-11.8 9.4 16 16 0 01-4.8-.7c-1.6-.5-3-1.5-4.7-1.8-.4-.1-.8.3-.6.7.4.8 1 1.2 1.7 1.6a16.6 16.6 0 007 2 15 15 0 003.7-.2c0 .3.2.5.3.8h.1a.9.9 0 010-.2c.4.5 1 .9 1.6 1a3.7 3.7 0 001.4.2 4.2 4.2 0 00.4-.1c.5.4 1.1.7 1.7.8 0 .6.2 1.3 1 1.5h.8c.3.2.5.3.8.3.3 0 .8 0 1-.3l.4.4c.6.6 1.8.1 1.8-.7a15.4 15.4 0 01.7.1c.8.4 1.6.7 2.4.4a2.2 2.2 0 00.4-.2l1.8-.1c.4-.2.7-.3 1-.6 1 .3 2 .4 2.9 0a3 3 0 001.6-1.1 4 4 0 001.8-.4c1-.5 1.6-1.5 2-2.4 1-2 1.7-4.3 2-6.5.2-2.3-.2-4.5-.4-6.8z" fill="#2B283A"/><path fill-rule="evenodd" clip-rule="evenodd" d="M68 59.5c1-1.4-.4-2.8-1.4-3.4-.2-.2 0-.8.5-.7 4.9.9 2.4 9.3-4 4.7-.7-.6.3-2 1-1.4h.2c.9.8 2.5 2 3.7.8zM58.1 45H58l-2.3.8a7.6 7.6 0 00-3.3 3.1c0 .1.1.3.3.2a13 13 0 013.6-1.9 8.7 8.7 0 012.5-.3c.6 0 1.1 0 1.6-.4.4-.3.3-.8 0-1.2-.5-.6-1.4-.4-2.2-.3zm12.8-.5h-.2a1 1 0 00-.6 0 1 1 0 00-.4.4c-.2.3-.2.5-.1.7 0 .3.1.4.3.5.1.2.4.2.6.3a15.2 15.2 0 014.2 1.2l.3.1a5.7 5.7 0 001.3.5l.1-.1s.1-.1 0-.4c-.9-2-3.5-2.8-5.5-3.2zM60.5 54a1 1 0 01-1.1-.1 3 3 0 01-.5-.6l-.6-.7c-.5-.2-1-.2-1.5-.2-.7.1-1.3.5-2 .8l-1 .6-.2-.3c.6-1.4 2-2.6 3.5-2.8 1.6-.3 3.3.7 3.9 2.3.1.4-.1.8-.5 1zm15.3-1.6c-.4-1.4-1.9-2-3.2-1.8-.8 0-1.5.3-2.1.9-.6.5-1 1.4-.5 2.1.5.8 1.6.5 1.7-.4 0-.6 1-1 1.6-1.1.8-.2 1.7 0 2.5.3zM60.9 65c.4.2 3.6.3 5.5.3a14 14 0 004.5-1.2c0-.3 0-.6-.2-.6l-7.2.1a381.7 381.7 0 00-3.2 0c-.1.4.2 1.3.6 1.4zm6.4-2.4h4.5c.5.1.7.8.7 1 .3 3-2 5.2-4.5 6.1-2.3.8-5.4 1-7.5-.6-1-.6-1.6-1.5-2-2.6a5 5 0 01-.6-1.7v-.2c-.1-.4-.2-1 0-1.3.2-.6.7-.6 1.2-.6h2.4a420.9 420.9 0 014.8 0h1zm-13.3-2c-.2.7-.6 1.5-1.2 2-.4.2-1 .2-1.2-.2-.4-.8.2-2.1.5-2.8a8 8 0 012.2-3c-.2.5-.2 1-.2 1.5v2.4zm1.3-4.2c0-.3-.3-.4-.5-.3a1 1 0 00-.4.3c-.5-.2-1.3.6-1.7 1a28.5 28.5 0 010 .1c-.6.6-1.1 1.3-1.4 2-.5 1-1 2.5-.4 3.5.9 1.4 2.7.3 3.3-.6a5 5 0 001-2.8l-.1-.8v-1.5c.2-.3.2-.6.2-.9zM75.5 61c.4.4 1 .5 1.5.2.6-.5.1-1.3-.2-1.8a14.8 14.8 0 01-.1-.2 200.7 200.7 0 01-1.4-2.3l-.3-.4v.6l-.2.5c-.1 1.1-.2 2.6.7 3.4zm1.6-3.2c.5.7 1 1.4 1.2 2.2.4 1.5-1 2.6-2.4 2.3-1.5-.3-2-2.1-2-3.5L74 57v-.2l.2-.6.1-.7-.1-.6c0-.3.3-.5.6-.3.4.2.6.5.8.9l.1.2 1 1.5c0 .3.2.5.3.7z" fill="#2B283A"/><path fill-rule="evenodd" clip-rule="evenodd" d="M197.8 101l-5.4.5c-8.6.6-17.2 2-25.8 2.8-.2-.3-.7-.3-1 0-.8-.1-1.7-.8-2.5 0a54.3 54.3 0 01-3.3-8.4 9.5 9.5 0 00-2.9-4.6c-2.5-1.7-8.2-5.2-11.2-5 0-.6-.3-1.1-.7-1.5 1-1.5-2.6-2.5-2.9-2.3.2-5-2.2-9.5-7.5-10.5-4.7-1-11.4-1.1-13.9 3.8h-3.4c-.4-.6-5.1 4.6-3.2 6.3-17.2 7.7-27 6.7-31.8 28.1-.6 2-.7 4.2-1.3 6.2a57.3 57.3 0 00-5 17.8c-1 .3-1.2 2.4.1 2.7.6.1 1 .3 1.4.6-.3 5 .9 16.5 1.7 16.4 1.5 5 8.5 6.4 13.5 4.7-.9 1.6 0 2.6 0 3.4 17.8.7 37.2.3 55 1.3 2.3 0 4.7.5 7 .2 1.3-.4 1.3-2.5-.1-2.8l6-1.3s2.6-1.8 4.5-5c1.9-3.7.6-8.1 1.5-12.1 6.5-.6 13.2-.8 19.7-1.9.9 2.6 4.7-.5 6-1.8.5-.2 1-.7 1-1.4.4-.6.5-1.4.1-2 1.8-10.4 4.6-21.1 5.6-31.7.4 0 .7-.2 1-.5.4-.5.5-1.4-.3-1.9-.6-.4-1.2-.2-1.9-.2z" fill="#fff"/><path fill-rule="evenodd" clip-rule="evenodd" d="M121 74.6c.6-1.3 2.4-.8 2.2.6a7 7 0 01-1 2.5 6 6 0 01-1.3 1.7 51.4 51.4 0 003 2.5l3.3 2.4c1 .6 2.1 1.2 3.1 2 1 .6 1.8 1.4 2.2 2.5a6 6 0 01-.1 3.5v.1c-.4 1.2-1 2.5-.2 3.6l1.6 1.4a11.8 11.8 0 013.3 4.5v.2c.4 1 .7 2.4.2 3.5-.2.3-.7.2-.8-.1l-.3-2.1a5 5 0 00-.8-2 11 11 0 00-2.7-3.2l-.3-.3c-.9-.7-1.6-1.5-1.8-2.6-.2-1.2.3-2.4.6-3.6a4 4 0 000-2.3l-1 1.3-1.8 2.4a56.7 56.7 0 00-2.7 3.7l-.7.9v.5c-1.2 1.5-2.9-1.8-3.3-2.6l-2.4-5.1c-1-1.8-2-3.5-3.1-5l-2.2-3a20.5 20.5 0 01-5.3 3.2c-2 1-4 1.7-6.1 2.4l-.6.3a35.8 35.8 0 00-10.1 5.3 25 25 0 00-7 11c-1.8 4.9-3.3 9.8-4.6 14.7a263.5 263.5 0 00-2 7.5l-1.6 6.7c1.3 0 2.7.5 3.8.6 5 .7 9.9 1.7 14.6 3.5.6.2.7.8.6 1.3l1-.3c-.4-.6-.2-1.6-.2-2.2l.2-2.5.5-4.7v-.4l.6-5.1v-.2a23 23 0 00-.3-1.3L96 119c0-.2.2-.2.2-.1.8.6 1.4 1.5 2 2.5v-.4c.1-.7.3-1.4.7-2h.2c.4.7.5 1.5.5 2.3v2.6c0 1.7 0 3.4-.2 5.1 0 1.7-.2 3.3-.5 5v.3l-.4 2.3v.3l-.3 1.3 12.6-3.4 9-2.4.7-.8c.8-.8 1.9-1.1 2.9-.5v.2l-.6.3 1.8-.5c1.4-.3 2.8-.8 4.2-1a60 60 0 018-3.1l.3-.2c1.4-.4 2.9-1 4.3-1.2 1-.2 2.3 0 2.7 1l1.5 1.3 1 .9h.1c.3.3.5.4.6.8 0 .2-.1.5-.4.5-.7-.1-1.3-1-1.8-1.5l-1.2-1.3c-.2.1-.5.1-.6-.1-.7-1.3-2.6-.4-3.6-.1l-1.6.4-2.2.7-6.2 1.9c.2.2.2.6-.2.7-1.6.6-3.4 1-5 1.4l-3.3.8-.4 1c-.2 1.5.2 3.1.6 4.5v.2c.4 1.2.9 2.5 1.8 3.2.2.2.5.3.8.3l5.7-2.9c.3-.1.7.1.7.4l2-.5c1-.3 1.8-1 2.7-1.5 1.9-.8 3.8.2 5.4 1l.4.3c.7.3 2.3 1 2.6 0 .4-1-.7-2-1.4-2.4-.9-.5-1.8-.7-2.8-1l-1.6-.3c-.6 0-1.3 0-1.9-.3-.3 0-.3-.5 0-.6 1-.2 2 0 3 .2l.5.2c1 .2 2 .5 2.8 1 .7.3 1.4.8 1.8 1.5.4-.4.9-.4 1.4-.2h.2c.5.2.8.3 1.3.2l.2-1a226.3 226.3 0 016.5-25l.2-.5c.3-1.2.7-2.5 1.3-3.6.6-1 1.5-1.6 2.7-2l3.9-.7.9-.2c-.3-.4-.5-1-.6-1.3v-.1l-1-2.5-.3-.6c-.5-1.5-1.1-3-1.9-4.4-.8-1.5-2-2.7-3.3-3.7-2.8-2-6.1-3-8.8-5.2-.1-.1 0-.3.1-.2 1.8.9 3.8 1.5 5.7 2.3l.4.1c1.5.6 3 1.3 4.3 2.2a12 12 0 013.5 4c.8 1.6 1.3 3.3 2 5v.4l.9 2 .8 1.7 1.6-.3a252.2 252.2 0 0134.3-3.3c.5 0 .7.4.6.8l-3.1 19.6-1.5 8.5-.7 4.3-.7 3.5c-.3 1-.7 2-1.5 2.8-.8.9-1.9 1.3-3 1.4-2.8.5-5.7.7-8.6 1l-15.2 1.8c.2 2 .2 4 .1 6v1.2c0 .9-.1 1.7-.3 2.6-.1 1.1-.6 2-1.4 3a17.2 17.2 0 01-5 3.6h-.2c-.9.4-2.5 1-3.7.8.2.7.5 1.6.2 2.4-.1.3-.6.5-.9.2-.5-.6-.6-1.4-.7-2.2a64.2 64.2 0 01-.8-12.3 34.8 34.8 0 01.5-4l-1.4.2-6.3.5a.7.7 0 01-.6-.3c-.1.2-.3.4-.7.4-3 0-5.7-1-8.3-2.1l-4-1.8c-1.3-.5-2.7-.9-4-1.5l-3.1 1.7-.1.2c-.2.5-.7.7-1 .9-.5.1-1 .2-1.3.1l-7.4 3.9-2.4 1.3-14.7 7.6-.4.2a44 44 0 01-5.4 2.3v1.6c0 .6.2 1.3-.3 1.8-.2.2-.7.2-.9-.1-.3-.6 0-1.6.1-2.3l.1-.7c-2.1.7-4.3 1-6.6.6a8.5 8.5 0 01-5.1-3.3 15.2 15.2 0 01-3-6c-.6-2.5-.6-5-.6-7.5 0-2.7.1-5.5.5-8.1a4 4 0 00-1.2-.2 1 1 0 01-.8.4c-.7.7 1 1.5 1.6 1.7.2 0 .2.4 0 .4h-.2c-.9 0-1.7-.2-2.3-1-.4-.7-.2-1.4.2-2 .4-3 1.1-5.9 1.8-8.8l2.3-8.6.4-1.3c1.3-4.5 2.7-9 4.4-13.3 1-2.2 2-4.3 3.3-6.1a21 21 0 014.6-4.6 44 44 0 0111-5.1l.1-.1 5.9-2.2 5-2.2a10.8 10.8 0 01-.1-.3h-.6c-.4-.5-.3-.9 0-1.3l1-1.4.1-.3c.5-.8 1-1.6 1.7-2.3a3.7 3.7 0 011-.7s.3-.2.4 0c1.1-.5 2.4-.4 3.7-.3m45 68.8l-1.5.2-5.3.5-3.8.5v.5l-.1 2.6a58.6 58.6 0 000 5l.6 5v.5c.2 0 .4 0 .5.2.4.4 1.5 0 2-.1a13.6 13.6 0 003.9-2.7l.4-.4 1.2-1.5c.3-.8.4-1.7.5-2.5l.5-3m-45.1-15.5h-.2l-18 4.8-9 2.2-.5.1c-2.3.6-4.7 1.3-6.5 3 0 .1-.2 0-.1 0 2-2.1 4.7-3 7.3-3.8l1.5-.4a86.6 86.6 0 00-11-3.2l-3-.5-2-.6-.5-.1v1.7c0 2.3 0 4.6.2 7v.4c.1 2.6.3 5.3 1.3 7.7.7 2 2 4 3.5 5.4.8.7 1.6 1.3 2.7 1.6 1 .2 2 .3 3 .2 4.8-.3 9.1-3 13.3-5.1l20.6-10.7a3.3 3.3 0 01-.5-.4c-1-1-1.4-2.3-1.7-3.5-.4-1.4-.6-2.8-.6-4.2m8.9 9.5h.1a3 3 0 01-.5 1.6 32.2 32.2 0 01-2.7 5.1 39.9 39.9 0 01-4.4 6.3c-.4.5-1 0-.8-.6 1.2-2.2 2.6-4.4 4-6.5l2.2-3.2.9-1.3.2-.3m72.2-44a251.4 251.4 0 00-38.1 4l-.7.2c-1.2.2-2.6.3-3.6 1-1 .6-1.4 2-1.7 3a244.3 244.3 0 00-5.6 19.9c-.7 2.6-1.2 5.3-1.8 8a204.2 204.2 0 01-1.5 6.8c3-.7 6.2-1 9.3-1.3h.3l9.7-1.1 21.3-2.4c1.2-.2 2.6-.2 3.8-.5 2-.6 2.6-3 2.9-4.8l2.9-16.9m-50 20.6c-.8 0-2-.8-2.6-.7.4.5.5 1.2.3 1.8-.5 1.9-2.9 1-4 .4-1-.5-2-1-3-1.3-1.1-.3-2 .2-3 .8-.8.4-1.7.7-2.6.9h-1.4a.6.6 0 010 .1l-.3.1c1 0 2.2.4 3.2.7l3.2 1.2 1 .4c2.6 1 5.2 1.8 8 1.8l.4.2m-3.8-12.2c.8-.1 1.6 0 2.2.5.8.6 1.3 1.7 2.5 1.8.3 0 .4.5 0 .6-.8.2-1.5-.2-2-.8l-.4-.4c-.6-.6-1.1-1-2.1-1l-3 .3a113.3 113.3 0 01-3.6.3l1.3-.3m4.3-4.4h.1c1.2-.1 2.3-.1 3.4.5l.2.2c1 .5 2 1.2 2.6 2.2 0 .1-.1.3-.3.3-1.1-.3-2-1.2-3-1.8-1-.7-2.1-.6-3.4-.5l-3.5.5-3.4.6c-.1 0-.2-.2 0-.3 1-.6 2.4-.8 3.6-1.1m-37-32.8c0-.1.2-.1.2 0 .8 1.3 1.2 3 1.6 4.5a64.6 64.6 0 012.1 14.4c0 .5-.8.6-.8.1l-1.5-9.6-.8-4.8m6.9-2.2c0-.2.2-.3.3-.1 1.5 3.8 2 8 1 12 0 .7-1 .4-.9-.2m19.6-15.1c0-.2.2-.2.2 0 .8 1 1 2.3 2.4 2.9.6.2 1.3.2 1.9.6.4.3.7.8.4 1.3-.1.1-.4.2-.5 0l-.5-.7-1.2-.3a3 3 0 01-1.4-.8m11-20.3h.2v.3l.2 1 .2 1 .5 2a26.8 26.8 0 00.7 2.3l.2.1v.3c.2.4.3.9 0 1.3l-.4.2a22 22 0 01-.9 2.3v.3c-.5 1-1 2.1-1.8 3-.8 1-2 1.8-2.7 2.9L136 97v.2c-.2.5-.3.9-.7 1.1h-.4c-.8-.9 0-2.5.5-3.3.7-1.1 1.6-1.8 2.6-2.7 1-.9 1.7-2.1 2.4-3.3l1.1-2.3c-.4-.4-.5-1.1-.7-1.6a18.3 18.3 0 01-.6-5V80m2 2.4c-.2-.1 0-.3.1-.3.8.2 1.5.7 2.2 1 .6.4 1.2.7 1.5 1.3.3.7.3 1.4.2 2v.1c0 .8 0 1.7-.2 2.5 0 .4-.5.5-.8.4-.4 1.2-1.4 2.1-2.2 3-1 1.3-.8 2.9-.7 4.3 0 .6-.7.8-1 .5l-1-.8-.4-.3a26.8 26.8 0 01-.3-.3l-.2-.2-.6-.5c-.2 0-.8.6-1 .9-.4.4-.8.8-1 1.2h-.2l1-1.9c.4-.4.7-1 1.2-1.2.5 0 1.1.5 1.5.8l.7.5c0-1.1 0-2.2.6-3.1.4-.7 1-1.2 1.5-1.7l1.4-2c0-.2.1-.2.2-.2l.2-1.6v-.2c0-.5.2-1.2 0-1.7-.3-.5-1-.9-1.4-1.2l-.3-.3m-26-7a2.8 2.8 0 00-.7.5c-.7.7-1.1 1.5-1.5 2.3l-.7 1.3a29 29 0 01-.3.5l-.3.4.3.3 3 3.4c1.2 1.4 2.2 3 3.1 4.6 1 1.6 1.6 3.3 2.4 5 .4.8.9 1.6 1.5 2.3l1.1-1.6 2-2.5a68.1 68.1 0 012-2.2l.2-.3c.5-.5 1-1.2 1.7-1.6a3.2 3.2 0 00-.2-.3 8.6 8.6 0 00-2.4-2l-.6-.3a39.3 39.3 0 01-9-7.3l-.2-.4m2.1-2.7c-1 0-2 0-3 .4l2.4 2.4c0-.6.2-1 .3-1.6" fill="#2B283A"/><path d="M181 118.9l-4.2.3a1 1 0 00-.8 1v.2c0 .5.5 1 1 .9l4.2-.4c.5 0 .8-.5.8-1v-.2a1 1 0 00-1-.8zm-2 2.6l-2 .2c-.5 0-.8.4-.8.8v.2c0 .4.4.8.9.7l2-.2c.4 0 .8-.4.7-.8v-.2c0-.4-.4-.8-.9-.7zm0 2.1l-4.1.4a1 1 0 00-.9 1v.2c.1.5.5.9 1 .8l4.2-.3c.5 0 .9-.5.8-1v-.2a1 1 0 00-1-.9zm-6.6.6h-.3a1 1 0 00-.8 1v.3c0 .5.5.8 1 .8h.3c.5 0 .9-.5.8-1v-.3a1 1 0 00-1-.8z" fill="#2B283A"/><path fill-rule="evenodd" clip-rule="evenodd" d="M154.8 47c-.5-4-2-8-3.6-11.6-3.6-7.7-11.9-8.7-19.3-10.3-7.3-1-15-2-22.2.1-4 1-5.6 5.8-5 9.6.4 2.4 1.5 4.6 2.4 6.8 1.8 4.5 3 9.3 3 14.2-.1 3.2-.6 6.8 3 8.2 3.6 1.7 3.9 6.4 8.2 9 1.8 3.6 6.6 4 10 4.8l6.7 1c6.4.7 11.5-1.1 14.9-6.8a19 19 0 003.5-11.8L154.8 47z" fill="#fff"/><path fill-rule="evenodd" clip-rule="evenodd" d="M132 15.8c.4-.4 1-.2 1.3 0l.6.4h1.4l.4-.2c.9-.4 1.7-.2 2.3.2.4-.3.8-.4 1.3-.4s.8.2 1 .5c.3-.4.8-.7 1.4-.7.8 0 1.5.2 2.2.7.3-.4.8-.6 1.4-.6h1c.6.2 1 .5 1.4.8.6-.5 1.3-.9 2-.8 1 0 2 .8 2.3 1.7.7.3 1.4.7 2 1.3l.8.5c.8.7 1 1.6.7 2.5v.4c.8.1 1.4.5 1.8 1.2a3 3 0 01-.1 3 4 4 0 01-.9 1c.4.9.2 1.9-.4 2.6l-.6.6a2 2 0 01-1 2.3v.4c0 .3-.2.6-.4.9-.4.6-1 1-1.2 1.7-.2.4-.5.6-.9.5a43 43 0 013.5 12l.7 6.1.2 2c.2 1.9.4 3.7.4 5.5 0 4.2-1.2 8.1-3.7 11.4a17 17 0 01-9.6 6.2c-4 1-8.6.6-12.1-1.5-1-.6-.2-2 .9-1.6a16.1 16.1 0 0012.7 1 15.7 15.7 0 0010-11.6c.5-2.2.5-4.4.3-6.6V59c-.3-4.2-.8-8.5-1.4-12.6a67 67 0 00-2.8-10.9 6.5 6.5 0 00-1.5-1 111.8 111.8 0 00-23 1.4h-.3c-.8.2-1.6.3-2.3.6-.7.3-.9.8-1 1.4-.5 1.6-.5 3.4-.6 5v4.8a5.6 5.6 0 01-1.5 3.6c-.5.5-1.1.8-1.7 1.2-.4.3-.6.5-.5 1 .1 1 1 2.2 0 3-.2.2-.4.3-.6 0l-1.3-1c-.2-.1 0-.4.2-.3l.8.4c-.6-.5-1.5-.7-2.3-.9a4.1 4.1 0 00-1.2 0 21.4 21.4 0 01-2 .8 5 5 0 00-1.7 4.6c.1 1 .6 2 1.4 2.6 1 .6 2.3.3 3.4.8 1 .5 1.6 1.4 2 2.4l.3.4a12.9 12.9 0 005.2 6c.6.4.9.6 1 1.2 0 .2-.2.4-.4.5-.7.5-1.4 0-2-.5a15 15 0 01-1.9-1.4c-1-1-2-2.3-2.8-3.6-.5-1-.9-2.4-1.7-3.2-.6-.4-1.4-.4-2-.5-.7-.1-1.3-.2-1.8-.5-2.3-1.3-3-4.4-2.4-6.7l.4-1.2c-.9.1-1.8-.7-1.5-1.6l.1-.2a3 3 0 01-1.2-1.7v-1l-.7-.8a2 2 0 01-1-1c-.4-.6-.4-1.2-.1-1.7a3.4 3.4 0 01-.1-.2 3 3 0 01-1.5-2.7c0-.3.1-.7.3-1a3 3 0 01-1.7-2c-.2-.9 0-1.7.6-2.4-.8-.6-1.3-1.4-1-2.6.1-.5.3-.9.7-1.3h-.1c-1-.8-1.5-1.8-1-3 .3-.5.7-1 1.1-1.2a3 3 0 01-.1-2.3c.1-.6.6-1.2 1.1-1.5v-1c.1-.6.4-1 .8-1.4l.1-.2c.1-.5.4-1 .7-1.4.3-.3.5-.4.9-.4a3.1 3.1 0 010-.8 3 3 0 011.6-2.1 2 2 0 011-.2c.4-.6 1-1 1.7-1.2h.7l.5-.2h.3a3 3 0 011.2-1c.6-.2 1.2-.2 1.7 0h.2a2 2 0 011.3-1c.8-.2 1.5 0 2.1.5.3-.7.8-1.1 1.7-1.1.5 0 1 .3 1.4.7l.6-.1.8-.7c.4-.4 1-.3 1.3.2l.2.3h.3c.4-.5.9-.8 1.5-.9.6 0 1 .3 1.4.7h.8a5 5 0 011.1-1c.3-.1.8 0 1 .2l.6.6c.4-.5 1-.8 1.5-.9zm-19.2 41.5c.6-.3 1.4 0 2 .4.7.3 1.4.9 1.9 1.5.6 1-.8 1.7-1.5.9l-1.1-1.5c-.5-.4-1.1-.7-1.3-1.2zm.4-22.4c.2-.5-.6-.7-.7-.3-.3.7 0 1.5.7 1.8.2.1.4 0 .5-.1.1-.2 0-.5-.1-.6-.4-.1-.5-.4-.4-.8zm-6.5-1.4c.4-.3-.2-.8-.6-.5-.3.3-.6.7-.5 1.2 0 .5.4.8.8 1 .5.4.9-.3.4-.6-.2-.1-.4-.3-.4-.5l.3-.6zm2.1-5.9c.5-.3 0-1-.3-.7-.4.3-.7.7-.8 1.1 0 .5.3 1 .6 1.2.3.4.9-.1.5-.5-.3-.4-.4-.8 0-1z" fill="#2B283A"/><path fill-rule="evenodd" clip-rule="evenodd" d="M155.7 65.1c-.2-.5-1-.4-1 .1 0 .7-.1 1.4-.8 1.7-.6.4-1.4 0-1.7-.5l-1-1.5-1.5-.9a3 3 0 00-1.3 0c-1-.3-2.3.2-3 1a3 3 0 000 .2 5.4 5.4 0 00-.2-.3c-.2-.2-.5-.2-.7-.2-1.1-.9-2.8-1-4.2-.2-1 .7-2 1.6-3.3 1.7-1 0-2.2-.6-2.2-1.7 0-.6-.9-1.1-1.3-.6a4.2 4.2 0 00-.7 4.2 5.6 5.6 0 003.2 3.2c1.6.6 3.4.9 5.1.8a5.3 5.3 0 004.6-2.6c1 1.3 2.6 1.8 4.2 1.9 1.6 0 3.6-.3 4.8-1.6a4.8 4.8 0 001-4.7z" fill="#2B283A"/><path fill-rule="evenodd" clip-rule="evenodd" d="M141.4 71.3a5 5 0 01-2.4-1.9c-.2-.2-.3-.5-.3-.8a1.2 1.2 0 011.4-1c.2 0 .5.2.7.5.4.5.9 1 1.4 1.2a5 5 0 001.7.3 5 5 0 002.8-1.6l.3-.3a.5.5 0 01.3-.2h.4a.6.6 0 01.2.2.5.5 0 01.1.3c0 .9-.5 1.7-1.2 2.3a5 5 0 01-2.5 1.3c-1 .2-2 0-3-.3zm3.3-13.5c1 .7 2.7 2.1 1.6 3.7-1.4 1.4-3.3-.2-4.2-.9-1-.6-1.9.9-1 1.5 6.8 5.1 9.5-4.1 4.2-5-.6-.1-.8.5-.6.7zM132.5 52c0-1.4 2.3-1.7 2.5-.3.2 1.3 0 2.4-.6 3.6-.6 1-2 .6-2-.4-.2-1.4 0-2 0-2.9zm16.7-.6c.3-.4.8-.7 1.3-.5 1.7.5 1.2 2.8.6 4-.3.6-1.3.7-1.8.2-.8-1-1.1-2.7-.2-3.6a1.1 1.1 0 01.1-.1zm-14.8-5.7h.2c.9-.2 1.9-.3 2.4.3.3.4.4 1 0 1.4-.7.5-1.5.3-2.3.4-.8 0-1.4.1-2.1.3-1.5.4-2.7 1.2-4 2-.2.2-.4 0-.3-.2a8.3 8.3 0 013.6-3.3 9 9 0 012.5-.9zm13.3-.6h.2c2.2.5 5 1.4 6 3.5.1.3 0 .4 0 .4l-.2.2-1.3-.5-.4-.2a16.5 16.5 0 00-4.6-1.3l-.6-.3a1 1 0 01-.4-.5l.1-.8.5-.5h.7z" fill="#2B283A"/><path fill-rule="evenodd" clip-rule="evenodd" d="M193 81.4c5.7-1.3 9.1-1.3 11-3.2 2-2 2.3-5.4 3.1-8 .5-1.4 4.8-2.7 9-2.5 3.4.2 6.9 1.6 7.1 2.5.6 2 1.6 10.9 4.7 12.2 3.1 1.4 9.8.2 11.8 3.4 1.9 3.2 8.2 16.4 8.2 19.4s-61.5 2.2-61.5 2.2.8-24.7 6.5-26z" fill="#fff"/><path fill-rule="evenodd" clip-rule="evenodd" d="M167.8 152.8c.1 0 0 0 0 0zm-.3-.3s-.1 0 0 0zm91-8l-1.2-5L255 129l-4.7-20.2-2.6-10.3c-.7-3-1.3-6-2.6-8.9a12.3 12.3 0 00-6.4-6.5c-2.5-1-5.3-1.6-8-1.8.3-.4.4-1 0-1.5-.7-.6-.8-1.6-1-2.4-.2-1-.5-2.1-1.1-3a1 1 0 00-1.1-.4l-.8.2-.2-.3c-.2-.3-.3-.6-.6-.8-.1-.2-.3-.2-.5-.1-.5.3-.6 1-.4 1.5v.3l-2.3.3a34.2 34.2 0 01-2.2.1 35.4 35.4 0 01-9.2-.8c-1-.2-2-.3-2.9-.9v-.8c0-.5 0-.9-.3-1.3l-.7.8h-1a3 3 0 00-1 .7c-.4.5-.5 1-.7 1.6 0 .5-.1.8-.3 1l-.1.3h-.1l-.2.2-.1.1c-.7.5-1.3.7-2 1-1.7.4-3.5.7-5.2 1.3A40.3 40.3 0 00174 94.7a54.3 54.3 0 00-7.6 24.8c-1 9.5-1 19-1.1 28.6l-.1 3.5c0 1.2-.1 2.4 1 3.2.8.7 2 .5 3 .2a26.5 26.5 0 019.7-1c1.2.1 2.6.5 3.5-.4.4-.3.6-.7.7-1.1l.7-1.6.6-1.3.9 4c.1.6.7.6 1 .4.5.3 1.3.3 1.9.3l3 .2 5.9.1h12c8 0 15.9-.1 23.8-.3l6.7-.2 3.3-.1 1-.1.5.3c.8.2 1.5-.3 1.7-1l.2-1 .1-.7c1.2.8 2.7 1 4.2 1l5-.7c1.5-.2 4-.2 4-2.3.1-.8-.2-1.6-.4-2.4l-.6-2.7z" fill="#2B283A"/><path fill-rule="evenodd" clip-rule="evenodd" d="M219.7 23c5.4 0 11.8 2.6 12.3 2.7.3 0 1.5.8 3.4 2.5l-2.1 4.2.2.1 2 2.1c4.6 4.6 5.4 22.8 4.3 29.1-1 6.4-3 12.5-12.2 12.5s-19.4-5.5-21-7.2a4.5 4.5 0 00-3.5-1.7l-.2-.2h-.2c-1.8-.2-3-.6-3.9-1-1.5-1-3.2-5.5-3.2-6.5s-2.5-8.2-2.5-9c0-.6-3.3-3.6-3.3-4.5 0-1-.7-.9 0-4.2l.2-1c.7-3.4 2-9.2 7.3-11.8a72 72 0 0122.4-6z" fill="#fff"/><path fill-rule="evenodd" clip-rule="evenodd" d="M196.4 29c3-3 19.3-7.8 27.5-6.8h.3l2 .4a19 19 0 015.9 2.5c1.4 1 5.9 2.6 4.6 5.3.5.9.6 2 .3 3l-.3.9a27 27 0 012.6 5c1.2 4.2 2 8.6 2 12.9.4 8.2-.5 18-7.6 23.2-4.3 3.3-11 3.5-15.9-.7-.2-.3-1.5-1.2-1-1.3l.3.4-.1-.2c-.3-.2-.6-.5-.2-.5l.2.2c-.2-.2-.3-.4 0-.3l.4.4v-.1c-.2-.2-.2-.2-.1-.3-.3-.3.2-.1.2 0 .4 0 .6.5.8.6 8.9 6.8 21.7.8 21.5-18.2V55c0-6-.6-12.3-3-17.8a15.9 15.9 0 00-.9-1.5 15 15 0 00-.6-1 9.9 9.9 0 01-2-.5 9.2 9.2 0 01-.7-.1l-9.6.5h-1c-2.7.2-5.5.5-7.7 2.2-2.2 1.5-2.2 4.6-4 6.3-2.7 1.8-2.7 3.4-3.2 6 0 2 1.4 5-1.1 5.7.4.7-.2.4-.2.1.3.8-.2.3-.3 0 .3.6-.3.2-.3.1-.7-1.1-2.2-1.3-3.3-1h-.1c-4.6 1-3.4 10.5 1.3 9.6h.2c0-.3.2-.1.2 0 0-.7.5.2.5.2v-.4l-.1-.2c.2-.2.3.4.4.5-.1-.2 0-.4.1-.3a19.6 19.6 0 004.8 6.4c.7.6 1.9 1 2.6 1.6v.1l.2.1.2.2.2.3s0 .1-.1 0h-.2s.2.3 0 .2h-.1l.1.2.2.2h-.1a5.4 5.4 0 01-.2 0c0 .1.1.3 0 .2a3.8 3.8 0 01-.3 0 6.1 6.1 0 01-1-.5l-.8-.5a6 6 0 01-.7-.5c-1.5-1-2.8-2.3-3.9-3.6-1.7 1.5-5.2 0-7.4-1.2-2-1-2.7-3-2.9-5.1-.4-2.9-2.7-3.9-2.6-10.1a1.2 1.2 0 01-.2-.1 1.2 1.2 0 01-.2-.2h-.1l-.1-.2c-.1.1 0 0 0 0l-.2-.2-1.1-1.5a9.5 9.5 0 01-1.7-3.7c-.2-1-.1-2 0-2.9 1-3.2 3.8-10.5 7.6-13.6zm20.8 44.4a.3.3 0 000 .1zm6.7-49.6c-5.6-.4-11.1.8-16.5 2.3l-.4.1c-3 .9-6.2 1.7-8.8 3.5a25.2 25.2 0 00-7 11.2c-1.5 3-.7 6.4 1.4 8.5.2-2.1.6-4.1 1.2-6.1.1-.3 0-.4.3-.5.4 5.4-1.6 9.4 2.3 15.8 1.7 3-.3 5.3 4.5 6.9h.2c1 .4 2 .7 3 .5v-.2c-.2-.1-.2-.2 0-.2a16.4 16.4 0 01-.4-.7l-.1.2a2 2 0 01-.8.1h-.1l-.7-.1a4 4 0 01-.2 0 4 4 0 01-1.5-.8c-4.4-2.5-4-11.1 1.5-12a37 37 0 016.9-19.6c3.9-4.7 14.4-6.8 21.7-6h.3l3.3.9c-.8-.6-1.7-1-2.7-1.4-1.8-1.1-4-1.7-6.1-2.2a6 6 0 00-1.3-.2zm-22.4 32.9c.3-.2.3 0 .3 0 2.2-.2 4.4 1.6 5.6 3.2l-.4-.3v.1c.5.7-.4-.1-.5-.3l.3.4c.6.6.6 1 0 .2v.1c.3.3.5.9-.1.2 0 .5-.7-.4-.7-.4-1.3-1-3.2-2-4.8-2-.3-.1-.4-.2-.3-.4-.4 0-.3-.3-.1-.3-.3-.1 0-.3 0-.2 0-.3.4-.1.4-.2.2-.3.3 0 .3-.1zm-4.4-17.4c1-.4 4 .7 3.8 2.2-.2.4-.6.6-1 .4l-.4-.3-2.2-1.4c-.5-.2-.7-.7-.2-.9zm5.8-2.2l-.4-.2c-2.1-1.4-5.1-3.5.2-1.4.6.3 1.4.5 1.7 1 .5 1.1-.8 1.2-1.5.6zm.2-6.2c-.2-.6 2 .1 2.6.3.6.3 1.3.5 1.7 1 .4.7-.4.9-1 .5-1-.7-2.2-1.2-3.3-1.8zm5.4-3c-1.2-1.3 2 0 2.4.3.4.2.3.8 0 1-1 0-1.6-.8-2.4-1.3zm5.4-1.4c-2-1.4.6-.7 1.4-.2.6.5 0 1.4-1.4.2z" fill="#2B283A"/><path fill-rule="evenodd" clip-rule="evenodd" d="M220.2 61.5c2.1-.3 4.3.4 6.4.7a30.2 30.2 0 004.1.4c0-.2.1-.4.4-.5a3 3 0 011.4-.3c.6 0 1 0 1.6.2.9.1 1.8.5 2.4 1.2 1.6 1.5 1.3 3.9.2 5.5-2.5 3.5-7 3.6-10.8 3.6h-.3c-3.5 0-8.5.4-10-3.5-.7-1.5-.6-3.2.1-4.6a5.8 5.8 0 014.5-2.7zm10.8 5.7h-4.8a64.2 64.2 0 00.3 2.3v.5a.5.5 0 01.3.2v.1c1.3 0 2.6 0 3.9-.2 0-.2 0-.3.2-.4V68l.1-1zm-6 .1h-4l.3 1.8c.1.6-.5 1-1 1h.2c1.5.2 3 .2 4.6.2v-1.4l-.1-1.6zm-8-.1l.3.9c.5 1.2 1.7 1.7 2.9 2-.3-.1-.4-.3-.5-.6l-.1-2.2-2.5-.1zm18.4-.3c-.6.2-1.3.1-1.9.1l-1.6.1v1.1l.2 1.5c1-.4 2-1 2.8-2l.5-.8zm-15.5-3.5c-1 .3-2 .8-2.4 1.7-.3.5-.5 1.1-.4 1.8a32 32 0 012.5-.2v-.8c0-.8 0-1.7.3-2.5zm5.1.1h-.4c-1.2-.2-2.4-.3-3.6-.2a7 7 0 00-.6 0c.2.8.2 1.7.3 2.5l.1.9h.3l3.8-.2v-1l.1-2zm6.1 0a24.4 24.4 0 01-5.3.1v.8l.2 1.6v.4l4.9-.2h.2v-.9l.2-1.8a.8.8 0 01-.2 0zm.6.1l.1 2.5h1.6c.7 0 1.6-.3 2.2 0 0-.7 0-1.3-.6-1.7-1-.7-2.3-.5-3.3-.8zm-3.6-7.4c1.5-.9 5.5-1.8 5.7 1 .1 1.3-.8 2.4-2 2.9-1 .4-3 .9-3.9 0-.7-.8.3-2.2 1.2-1.6.5.3 1.5.1 2 0h.1c.6-.2 1.4-.8 1.1-1.5-.2-.6-1-.8-1.6-.8l-2.6.2c-.1 0-.2-.1 0-.2zm6.5-4.5c2-.1 3.4 2.2 3 4-.2.4-.5.7-.9.7h-.2c-.3-.1-.7-.5-.6-.8v-.1c0-1 0-2-1.1-2.2-1-.2-1.4.7-1.5 1.5l-.2.2c-.7-.4-.8-1.2-.6-2 .4-.8 1.1-1.3 2-1.3zm-15.8.5c1.5-.5 3.2.3 4 1.6.2.1.5.3.4.6 0 .5-.1.8-.4 1.1-.5.5-1.4.3-1.6-.4-.3-.9-1.2-1.4-2-1.1-1 .3-1 1.4-1.7 2h-.3c-.7-.4-.6-1.4-.3-2 .3-.8 1-1.6 1.9-1.8zm-2.2-4.7c1.3-1.3 4.6-2.5 5.4-.2.2.5-.1 1-.6 1.2-.8.1-1.5-.2-2.2-.2-.6 0-1.3.3-1.8.7-1.4 1-1.7 2.8-2.6 4.2h-.2c-.2-2 .7-4.3 2-5.7zm16.4-1.3c.9-.3 1.8-.3 2.6 0a5 5 0 013 2.4l.3.8c.7.4 1 1.2.4 1.8l-.1.1c-.4.3-.8.5-1.3.4-1-.3-1-1-1.4-1.9-.2-.5-.6-1-1-1.3a5 5 0 00-4.2-.7s-.2 0-.1-.2l.7-.8 1.1-.6z" fill="#2B283A"/><path fill-rule="evenodd" clip-rule="evenodd" d="M242.8 53.7c-1 7.2-8.4 8-9.7.9.2-.1.4-.3.3-.6 0-1.6.5-3.2 1.9-4.1 1.4-.9 3-1 4.7-1 3.2 0 3.1 2.6 2.8 4.8zm-10.9-3a5 5 0 00-3 .5c-.3-.6-1-1.4-1.6-1.7 2.4 0 4.8-.2 7.2-.4-.5.4-1 1-1.4 1.7-.4-.2-.8-.2-1.2-.2zm-4.3 3.8c-2.8 9.6-9.7 5.4-10.4 4.2-1.4-2-1.6-7-.4-8.3 1.6-1.2 4-.9 6-1 3.7.1 6.3 1.2 4.8 5.1zm18.4-4.4a4 4 0 00-2.2.2 3 3 0 00-1.7-2c0-.1 0-.2-.4-.2a10 10 0 00-5.9.3l-9 .8c-2.7-1.2-11-1.4-11.6 1.7-.6-.1-1.7-.6-2.3 0-4-.6-8.1.3-12.2.8-1 .2-1.5 2.2-.4 2.2.7-.2 0-1.3.9-1.4 3.9-.4 7.7-1 11.6-1.1-.1.7 2.6.7 2.7.3-.7 2.6 0 6.3 1.2 7.8 1.7 2.1 6 2.7 7.9 1.4 2.4-1.3 5-7.4 4.3-9.5 1.3-.4 2.6-.3 4 0-.4.8-1 3-.2 3.2 0 4.3 3.8 7 7.4 5.2 3.1-1.4 4.2-6.1 3.8-9 .4.8 3.6 0 2.1-.7z" fill="#2B283A"/><path fill-rule="evenodd" clip-rule="evenodd" d="M410.2 97.7a23 23 0 00-15-16.5c-1.4-.8-2.9-4.4-4.9-5-.3-.1.2.7 0 .8-.6.1-1.3.2-2-.5-1.4-1.1-1.8-4.5-2.5-6-4.2-8-14.5-4.9-16 4-.9.6-2.2 1.1-3.3 1.7-1 .5-2 1.7-3.1 2.2-1 .4-2.7.1-3.7.5a22.5 22.5 0 00-13.5 10.6c-3 3.5-5.2 7.4-7 11.5a127.6 127.6 0 00-8.3 39.2c0 2.3-1.5 8.7.8 9.8-.2.2-.1.5.1.5 5.8-.1 11.6.4 17.2 1.4 2.8.5 5.5 1.2 8.3 1.3 5.8 0 11.6-1 17.4-.1 7 0 15.4-.2 23.1-.5 7.3-.3 14.5.3 21.7-.9.5 0 .8-.8.7-1.3-.8-3-1.2-6.2-1.7-9.3 0-2 0-4-.8-6a426 426 0 00-7.5-37.4z" fill="#fff"/><path fill-rule="evenodd" clip-rule="evenodd" d="M407.8 114.2a8 8 0 01-.6 2.2l-1 2-.1.2v.3l.4 3.7.1.6 1 7.7a653.7 653.7 0 002.8 18.5l.2.8c1.5.4 2 2.6.4 3.4a2 2 0 01-2.3-.3c-.7-.6-.7-1.7-.8-2.5l-.2-.7a162 162 0 01-2.6-21.9v-4.6a93.4 93.4 0 01-.1-5.3v-.1c-.1-.2 0-.5.1-.7l.3-3c0-.2 0-.2 0 0l.4 2.5a7 7 0 002-2.8zm-20.7-40.8a5 5 0 001.4 2.5l.7.5c.4 0 .7 0 1 .3v-.4c-.1 0 0-.1.1 0 1 5.1 2 10.2 2.7 15.3l.4 2.3.3 2.1a255.8 255.8 0 013.5 39.5v3.7l.3-1.5a161.9 161.9 0 002.4-20.1 47 47 0 00-2.2-18l-1.6-3.2a6 6 0 01-.4-3.8c.2-1.2.7-2.3.8-3.6.1-2.2-.6-4.4-1.7-6.4a35.1 35.1 0 00-.8-1.6 49.5 49.5 0 00-3-4.5c1 1 2.1 1.9 3 3l1.2 1.5c4.4.7 8 3.4 10.6 7 3 4 4.4 9 5.5 13.7 1.2 5.3 2.2 10.7 3.3 16l3.3 16.7 1.7 8.3 1 4.1c0 .7.2 1.5.4 2.2a2 2 0 01-.5 1.9c-.2.2-.6.2-.8 0h-.2c-.3-.1-.5-.3-.7-.6l-.3-1.2-.4-2.3-.7-3.4-1-5.7-1-4.5-3.2-16.2-3-15.6-.1-.3-.1-.2c-1-4.5-2.5-8.8-5.2-12.5-2-3-4.8-5.5-8.2-6.8l.7 1c1.4 2.2 2.3 4.8 2.1 7.4-.1 1.3-.6 2.6-.5 3.9 0 1.1.7 2.1 1.2 3.1 1.1 2.3 2 4.7 2.4 7.2 1 5 1 10 .7 15a179 179 0 01-2 16.4l-1.4 8.3-.8 4.1-.1.7-.2 1v.3c0 .3-.2.5-.3.7a8 8 0 01-.6 1.5l-.5.4c-.2.5-.7.8-1.3.8h-20.8l-3.3-.1-3-.3c-1.2-.1-1.9-1-1.7-2.1l.1-.8-.7-.1-.1-.2-.7-.8-.4-1a107.2 107.2 0 01-2.5-6.6 112.6 112.6 0 01-2.8-8.8 114 114 0 01-3.2-16.2l-.1-1.3v-.4c-.3-2.2-.5-4.3-.5-6.4.1-1.4.3-2.7.8-4 .5-1 1.2-2 1.9-3v-.2l.1-.1c.6-1 1-2 1-3 .1-1.2-.2-2.3-.6-3.4v-.2l-.2-.2c-.7-2.2-1.7-4.4-1.4-6.8.5-3.6 2.6-6.4 5.3-8.6-2.4.5-4.7 1.4-6.8 2.6a27.6 27.6 0 00-6.7 5.4c-3.6 4-6.2 8.7-8.4 13.6a91.3 91.3 0 00-5.1 16 138.2 138.2 0 00-3.4 25l-.2 4.4c-.2 1.4-.2 2.8-.6 4.2-.1.7-1.2.8-1.3 0-.3-1.6-.2-3.2-.1-4.8v-.2a199.5 199.5 0 011.2-14.6c1.3-11.5 4-23 9-33.4 2.3-5 5.3-9.7 9.5-13.3 2-1.7 4.3-3 6.7-4 2.2-1 4.4-1.3 6.8-1.3 1.1-1 2.4-1.7 3.6-2.4.1 0 .2.1.1.2l.3.3c.5.5.9 1 1.2 1.7l1.6 2a142.3 142.3 0 007.1 8l.3.3c.8.8 1.6 1.8 2.6 2.5.4.3.7.3 1 0l1-1.3c1.4-2 2.6-4.1 3.8-6.3a63.6 63.6 0 001.5-3l.1-.2.8-1.7.1-.4a4.2 4.2 0 01-1.4-2.3c-.3-.8-.2-1.7.2-2.5.1-.1.3 0 .4 0zm-36 34.1l-.3 9.6v1.1c.2.3.3.6.2 1l-.3.3v1c-.3 4.6-.5 9.2-1 13.7l-2 17c-.1.9-.7 1.5-1.5 1.4-1-.1-1.3-1-1.2-1.7.5-3.1 1-6.3 1.3-9.4l.5-3.6a615.6 615.6 0 012.5-19v-.1l-1.3-1.6a59.8 59.8 0 01-2.2-3l3 2.3.8.7a553 553 0 001.5-9.7zM365.7 77l-1.9 1.7-.2.2-.2.2c-1 1-2.1 2-3 3.3a9.6 9.6 0 00-1.8 7.7c.5 2.3 1.8 4.3 2 6.7a5 5 0 01-.3 3.4c-.4 1.1-1.1 2.1-1.8 3.1a11.6 11.6 0 00-1.4 7.2 112.4 112.4 0 004.3 23.8c.7 2.6 1.6 5.1 2.5 7.7a56 56 0 002.4 5.7l-.2-2.8-.2-3.9a547.7 547.7 0 01-.5-7.9 489.5 489.5 0 01-.6-42.2l.5-6.7v-.4l.6-6-.2-.6a.6.6 0 010-.2zm5.3-8.1c.4 1.1.3 2.4 0 3.6l-.7 1.8v.2c-.3.5-.6 1-1 1.3-.2.2-.5.2-.7 0h-.1a.7.7 0 01-.3-.8c.2-.5.7-1 1-1.4l.8-1.4c.5-1 .7-2.2 1-3.3z" fill="#2B283A"/><path fill-rule="evenodd" clip-rule="evenodd" d="M399.8 39c-4.2-11.1-11.8-19.2-24.6-14.1-.4-.3-.8-.3-1.3 0-7 4.3-12 11.4-14.1 19.3-1.4.2-2.7.7-3.8 1.4a20 20 0 00-5.7 6.5c-.5.7 0 1.9.8 2l1.2.2-.4 1c-.6 1 .5 2.2 1.5 1.9l.3.1c0 .6.4 1.4 1 1.6 1 .2 2.3-.6 2-1.7h1V59a4 4 0 005.3 3.4c.2.8.3 2 1.1 2.4 1 2.5 2.5 5.5 5.1 6.6-.2.6-.1 1.3.6 1.7a23.3 23.3 0 0015.7 2.6c2.2 0 4.2-.6 6.2-1.6 1.5-.7 2.8-1.7 4.1-2.7 1.4-1 2.8-2 3.8-3.2 1.1-1.4 1.7-3 2-4.8a41 41 0 00-1.8-23c-3.6-9.4 3.5 7.9 0-1.4z" fill="#fff"/><path fill-rule="evenodd" clip-rule="evenodd" d="M379.4 22.7c2.2-.1 4.4.2 6.4.9a22.4 22.4 0 0114.3 14c1.4 4 1.6 8.4 2 12.6l.9 6.3v.3c.4 2 .5 4.2 0 6.2-.7 3.4-3 6.3-5.6 8.4-5.5 4.4-14 7-20.5 3-1-.6 0-2.2 1-1.5l2 1.1a15 15 0 0010-.3c3.2-1 6.3-2.9 8.6-5.3a12 12 0 003.6-9.1c-.1-2.1-.6-4.2-.9-6.3l-.5-5.5v-.7a34 34 0 00-2.6-11 22 22 0 00-6.1-7.5 21 21 0 00-9.2-4c-4-.7-7.7.5-11 2.6a26 26 0 00-9.7 11.8l-1.6 4.5h1.3a8 8 0 015.7 3.3c1.7 2.2 1.2 5 1.8 7.6.1.2 0 .4-.2.5a3 3 0 01-3.2 0 2.4 2.4 0 01-.8-2.8h.2c0 1.7 1.6 3 3 2.2-.6-2.2-.2-4.7-1.5-6.7-2.3-3.5-7.1-3.7-10.5-1.7-1.8 1-3.2 2.7-4.2 4.4l-.3.5a6 6 0 00-1 2.2c0 .5.2.9.7.7.4-.2.7-.6 1-1 .3-.6 1.3 0 1 .6a6 6 0 00-1 2.8v.8l.5-.5c.3-.2.6-.5 1-.5.5-.1 1 .5.6 1a1 1 0 000 1.3c.7.5 1.5-.2 1.5-.9.1-.7 1-.7 1.1 0 .1 1.5-1.7 2.8-3 2a2 2 0 01-1-1.4l-.6.2c-.6 0-1-.4-1.2-1-.1-.8 0-1.5.1-2.2-.3 0-.7 0-1-.2-1.1-.6-.8-2-.4-3 1.8-4.2 5.5-8 10.1-8.2l.3-2.2a24.9 24.9 0 0113.3-16.8 16 16 0 015.6-1.5zM362 51.2c.8-.2 2.7-.4 2.5.8 0 .1-.1.1-.2 0-.2-.7-1.7-.1-2.1 0l-1.7 1.1a5.7 5.7 0 00-2 3.8c0 1.4.3 3 1.4 4 .5.5 1.1.9 1.9.9.6 0 1.3-.5 2-.2l.1.3c0 .3 0 .5-.3.6 1 1.9 1.9 3.8 3.2 5.5a13.2 13.2 0 003.4 3.1c.6.3 1 .5 1.4 1 .3.4 0 1.2-.5 1.3-1.3.1-2.5-.9-3.4-1.6a12 12 0 01-2.3-2.6c-1.2-1.9-2-4-2.4-6.3a4 4 0 01-3.6-.7c-2.5-2-2.8-6-1-8.6a6.2 6.2 0 013.6-2.4zm0 4.7a4 4 0 011.8.2h.2l1.3.8c.6.6 0 1.5-.7 1.3-.9-.2-1.5-.9-2.4-1.2-.7-.3-1.6-.2-2.2.2l-.2-.1c.5-.8 1.3-1.2 2.2-1.2z" fill="#2B283A"/><path fill-rule="evenodd" clip-rule="evenodd" d="M392.4 68.3c-.9 0-1.8-.3-2.4-.6h-.1c-.6-.2-1.1-.5-1.5-.9l-.4-.4V66h.4l.2-.1h.5a39.5 39.5 0 011.6.2h.9c.7 0 1.5-.1 2.1.4.2.2.2.3.2.5s0 .5-.2.6c-.3.4-.8.6-1.3.6zm4.4-6.9a2 2 0 01-1.7.8c-1.7 0-3.6-.6-5-1.5-.3-.2-.5-.6-.6-1V59l-.4.6-.1.2a16.6 16.6 0 00-2.1 4c-.3 1-.6 2-1.2 2.6l-.4.1c-.1 0-.3 0-.3-.2-.8-1.6.2-3.4 1-4.7l.2-.2c.7-1.2 2-2.7 3.5-3l.1.3.3-.1a1 1 0 011.3 0l.5.1a12.7 12.7 0 003 1v-.3a12.8 12.8 0 00-.1-.3 8.8 8.8 0 00-.3-.7c-.4-1-1-2-1.5-2.8l-.1-.1-.3-.4c-.4-.6-1-1.4-1-2 .6 0 1.1.4 1.6.7l1.7 1.5a9 9 0 012.2 3.8 3 3 0 01-.3 2.3zm-15.7-8c0-.9.4-2.7 1.6-2.7.7 0 1.2 1.2 1.3 2.5 0 .9-.2 2.7-1.3 2.7-1 0-1.6-1.7-1.6-2.5zm17.2-.3c0-.8-.4-2.7-1.6-2.7-.7 0-1.2 1.2-1.3 2.5 0 .9.2 2.7 1.3 2.7 1 0 1.6-1.7 1.6-2.5zM385 48a11.3 11.3 0 00-1.8.3 26.8 26.8 0 00-4.8 1.5h-.1l-.8.4-1.3.5a12 12 0 014.5-3.5l2.9-1.1.5-.2c.9-.2 1.7-.4 2.5 0 .3.2.5.5.6.8 0 .4 0 .7-.3 1-.1.2-.4.4-.6.4l-.9-.1h-.3zm12.3.1a6.7 6.7 0 00-2.4 0h-1.2a1 1 0 01-.5-.3 1 1 0 01-.3-.7v-.6l.6-.6c.6-.5 1.7-.3 2.5-.2a6 6 0 012.1.7c.7.3 1.2.8 1.7 1.4.4.5.5 1 .7 1.7a7.9 7.9 0 00-3.2-1.4z" fill="#2B283A"/><path fill-rule="evenodd" clip-rule="evenodd" d="M402 57.6c-.7 1-2.1 1.4-3.4 1.3-2.7-.3-3.6-3.5-3.7-5.9 1.9.5-.1-3.2 6.1-3.6 2.3-.2 1.6 1.2 2.6 2.2 0 2-.3 4.3-1.6 6zm-13-2.3c-1.6 7.6-10.5 5.8-11.4-1.1.8-.6.6-2.1 1.7-2.7 1.7-1 3.8-1 5.7-1 2.4.2 3.1 1.2 4.4 2.3 0 .8-.2 1.7-.4 2.5zm16.5-7.1a14.3 14.3 0 00-.3 0l-.2-.2a4.3 4.3 0 00-.7 0c-3.1-.8-10.4.2-10.7 3-1 .3-1.9 0-3 0-1-3.7-16.2-3.2-17-1-.6-.2-1.7-.1-2.5-.2a22 22 0 00-5.1.5c-3.2.5-7.5 1.1-5.3 5.1.4.4 1 0 1-.4-.7-2 1-2.2 2.3-2.7 3.2-1.2 6.4-1.3 9.7-1l1 .7c2.3.4 1.1 2 2.5 2.3-.3 5.8 6.7 9 10.7 5.1 1.6-1.6 2-4 2.3-6 .2 0 .4-.2.4-.3.5-.5.8-1 1.7-1a3 3 0 011.8.1v.2a.6.6 0 00.2.2c-.9 5.7 3.5 9.3 8 6.4 2-1.9 2.3-4.7 2.4-7.2.3-.2.5-.5.4-.9-.2-.5.1-1 .6-1.2.6-.3.5-1.4-.2-1.5z" fill="#2B283A"/><path fill-rule="evenodd" clip-rule="evenodd" d="M315.1 96.6c-1-.4-2-.8-2.8-1.4a23.6 23.6 0 01-5.8-7.4c-2.2-4-3.8-8.1-4.9-12.5-.4-1.9-.6-4-1.7-5.7-2.4-3.5-9.4-3-13.2-2.4-2.5.4-3 3.2-3.6 5.3l-1 5.2c-.6.4-1.3.8-2 1-7.3 2.3-8.5 6.4-11.3 12.8-4.7 9.3-17.4 12.9-19.4 23.9-1.2 7.2 2.3 14 6 20 3.3 6.6 8 9.8 15.6 8.2 7-1.5 13.8-4.2 20.7-6.2 3.4-.9 6.7-3 10.3-2.3a89.9 89.9 0 0022.2 2.2c10.5.5 10.5-9.6 9.4-17.3A24 24 0 00315 96.6z" fill="#fff"/><path fill-rule="evenodd" clip-rule="evenodd" d="M315.8 114a8 8 0 012.2 2.5 229 229 0 01-7.4-1l1-.5c1.2-.7 2.9-1.8 4.2-1zm-41 7.4c-.4-.2-.6-1-.8-1.3l-1.5-3.7c2-.6 3.9-1.2 6-1.5 2.2-.4 4.4-.4 6.7-.4 4.5.2 9 1 13.4 1.7a310.2 310.2 0 0026.6 3.5c.9.1 2.3.4 3-.2.6-.6.6-1.6-.1-2-.4-.3-1-.3-1.5-.3l-1.9-.2h-.7c2-.8 4-1.2 6.3-1.1 0 .7.6 1.5 1 2.1.5 1.1.9 2.2 1.2 3.4.5 2.4.6 5 .4 7.5-.1 2-.5 4.4-2.1 5.8a7.8 7.8 0 01-4.6 1.7 76.2 76.2 0 01-13.5-1.7c-5-1.2-9.8-3.2-14.2-5.8l-6.4-4a27.7 27.7 0 00-15.6-3.6c-.5 0-1.2.2-1.6 0zm-3.2-1.3c.3 1 .5 2 1.2 2.8.6.8 1.5 1 2.5 1.2h3.5a27 27 0 0113 4l5.2 3.3-1.4.7a122 122 0 01-8.8 3.5 139.9 139.9 0 01-12.1 3.7c-2 .5-4 1.1-6 1.2-1.8 0-3.4-.4-4.9-1.5a40.4 40.4 0 01-12.1-19.8c3-.9 6.2-1.7 9.4-2.2a32.7 32.7 0 019 0h.6l1 3.1zm63.7-4l.3-1v-1c0-.5-.4-.8-.6-1.2l-.8-1.1-1.5-2.3-6.2-9.4-5.5-8.3a30.9 30.9 0 00-5.6-6.5 23 23 0 00-9.6-4.3c-.3-.4-.8-.6-1.4-.5-.7-.9-1.3-1.5-1.6-2.6-.2-.5-.1-2-.6-2.3-.6-.4-1 .1-1.1.7-.6 1.8 0 4.3 1.5 6.1-.6 2.2-1.4 5.3-2.9 7-1.6 1.9-3.8 2.4-6.1 2.5a19.1 19.1 0 01-15.4-7.4c-.7-.8-1.4-2-2-3 0-.3-.4-.7 4-1 4.2-.3 4.5-6.2 4.6-7 .1-.6.5-1.6 0-2.1-.2-.3-.6-.3-.8-.2-.5.3-.7 1-.8 1.6-.2.7-.9 5-2.2 5.5-.6.3-1.2.3-1.9.3l-2.3.2-.9.1-.5-.1c-.6-.2-1.2 0-1.8 0-5.5.7-11 2.4-15.7 5.4a24 24 0 00-8.9 11c-2 4.4-3 9.4-4 14.2a103 103 0 00-.8 4.9c-.2 1.5-.5 3.1-.6 4.7 0 .7.2 1.3.4 1.8.2.7.9 1 1.5 1.2 1.3.7 2.6 1.2 4 1.6 1 1.5 1.6 3.2 2.2 4.9-.2.4-.2 1-.2 1.5-.2 1-.2 2-.2 3l.2 6.3.5 11.5c0 .8 0 2 .4 2.6.6 1.1 2.2 1 3 .2 18.2 3.9 52.4 2.7 66.2.8 1.8-.3 1.3 0 1.7-.5.4-.3.6-.9.7-1.4.2-.6 0-1.2-.4-1.7s-.4-1.4-.6-2c-.3-1.5-.5-8-.6-8.8l-.2-.7c2.6.3 5.2.3 7.6-.6a8.8 8.8 0 003.6-2.3c1.2-1.3 1.9-3 2.2-4.6.4-2.2.5-4.5.4-6.8 0-2.6-.5-5.3-1.6-7.7l.9-1.2z" fill="#2B283A"/><path fill-rule="evenodd" clip-rule="evenodd" d="M313.3 36.8c-4-5.6-13.9-6.2-20.1-6.2-12.4-.1-15 14.1-15.6 24-1.4.3-2.6.8-3.5 1.8-1 1.3-1.4 3.4-.5 4.9.7.9 1.8 1.2 2.8 1.3 3.7-.4 4.4 2.8 6.2 5.2C287 74 295 76 302.3 76c2.4.1 5.4.3 7-2 5-8.7 5-20.1 5.4-30 0-2.4 0-5-1.4-7.2z" fill="#fff"/><path fill-rule="evenodd" clip-rule="evenodd" d="M321.8 41.6v.3c.1.4 0 .7-.2 1v.5c.1.9 0 2.1-.9 2.5l-.3.3h-.1c-.4.2-.8.2-1.3.2a8 8 0 01-.8.2 4 4 0 01-2.4 0c-.2 0-.3-.2-.5-.3v1.6a98.5 98.5 0 01-.2 11.4 71 71 0 01-.3 2.3 32.6 32.6 0 01-2 7.5c-.7 1.6-1.5 3-2.5 4.3a11.2 11.2 0 01-3.9 3c-1.5.7-3.1.8-4.7.8l-1.9-.2-1.5-.3a15.4 15.4 0 01-1.2-.4 6.5 6.5 0 01-1.4-.5l-.8-.3a7.8 7.8 0 01-1-.5l-.9-.4a12 12 0 01-1-.6h-.1l-.1-.1a6.8 6.8 0 01-.2 0v-.2c.1-.1.1-.1.2 0v-.1h-.2a.1.1 0 010-.3V73l.4.1h.1l.1.1-.3-.2s-.1 0 0-.2l.3.1c-.2-.1-.1-.3 0-.2h.3a8.9 8.9 0 001.2.7 52.6 52.6 0 003.8 1.5 17.5 17.5 0 003.6.6h.9l1.6-.1h.1l.6-.2a7 7 0 00.3 0h.1a7.8 7.8 0 002.7-1.4l1-.9.8-.9.5-.7c.7-1 1.3-2 1.7-3.2l.8-2.1.2-.8.4-1.7.1-.6.6-3.9a79.4 79.4 0 00.2-13.8v-2.6a15.9 15.9 0 010-2.4V40a7 7 0 00-.4-1.3 4.5 4.5 0 00-.2-.4 2.3 2.3 0 00-.4-.6 2.6 2.6 0 00-.4-.5l-.1-.1a9.2 9.2 0 01-.1 0 1.5 1.5 0 01-.3-.2 26.5 26.5 0 01-.2-.2l-.2-.1v-.2a7.3 7.3 0 00-.5-.5.1.1 0 01-.2 0 8.4 8.4 0 00-.3-.3 7.2 7.2 0 00-.8-.4c-.4-.3-1-.4-1.4-.6h-.3a37.5 37.5 0 01-.2-.1h-.2a130.7 130.7 0 00-16.3.3 130.6 130.6 0 00-4.7.4c-1 .1-2 .2-3 .6a2 2 0 000 .1c0 .5.2 1 .4 1.4v.2c.3.8.6 1.6.6 2.4 0 .6-.2 1.2-.3 1.7-.1.8-.4 1.6-.6 2.3a32.6 32.6 0 00-2 11.7v.5c.2.7-.7 1-1 .6-.2 0-.3-.1-.3-.2a3.1 3.1 0 00-.2-.2l.1.2s-.1.1-.2 0a7.2 7.2 0 00-.2-.2 4 4 0 00-.7-.9 3 3 0 00-1.3-.6 4.4 4.4 0 00-1.1 0c-.5 0-.9.2-1.3.4l-1 .6a3.3 3.3 0 00-.2.3l-.5.9a3.7 3.7 0 00-.2.9V59c0 .4.2.9.4 1.3 0 .3.2.5.4.7 0 .2.2.3.3.5l.8.4h.2a3.5 3.5 0 001.2.3 4.8 4.8 0 001.5-.2l.9-.2.7-.5h.1l.2-.1c.2 0 .4.1.3.3h.2c.2 0 .6.5.5.5l-.4.3c.1 0 .3.2.2.3a2.4 2.4 0 01-.4.3 3.5 3.5 0 01-.6.3 24.3 24.3 0 011 2c.2.5.4.9.7 1.2.3.4.5.8.9 1.1a13 13 0 001.2 1.3l.6.3c.4.4 1 .7 1.5 1a41.8 41.8 0 00.6.5s.2 0 0 .1h-.4a2.4 2.4 0 01.1 0s.3 0 .1.2h-.2a4.2 4.2 0 01-.2-.2.3.3 0 01-.1.1 27.3 27.3 0 00.6.4h-.2a3.2 3.2 0 01-.4-.1.3.3 0 01-.1 0l.4.1s.1.1 0 .2l-.3-.1h-.4A18.6 18.6 0 01281 68l-.9-1.1a15.3 15.3 0 01-1.3-2.6 22.8 22.8 0 01-.3-.6 8.3 8.3 0 01-.6 0h-1.4l-1.6-.5-.8-.5a5 5 0 01-.7-.4 4.2 4.2 0 01-1.5-3 5.1 5.1 0 01.2-2.6 4.3 4.3 0 011.5-2.3 4.2 4.2 0 011.3-.7v-.2h-.2l-.1-.3a.2.2 0 01-.1 0s0 .3-.1.2a10.7 10.7 0 010-.2l-.1-.1-.1-.1v.2a14 14 0 01-.6-1.8 9.5 9.5 0 01-.2-1l-.2-.9a2.6 2.6 0 000-.2 19.8 19.8 0 010-1c-.2-.7-.2-1.4-.2-2.1l-1 .3c-.6.8-1.5 1.4-2.6 1.5a3.4 3.4 0 01-1.1-.2 1.2 1.2 0 01-.1 0h-.9l-1-.4a.8.8 0 01-.3 0c-.7.1-1.5-.3-1.8-1.1-.4-.3-.8-.7-1-1.1a6 6 0 01-1.1-2.1 2 2 0 01-.2-.9c-.1-.7 0-1.5.1-2.2 0-.4.1-.8.3-1.1.2-.5.5-1 .9-1.2 0-.5.2-1 .4-1.3.5-.6 1.2-1 2-1 .4-1 1.6-1.3 2.6-1a2 2 0 011.7-.5c.5 0 1 .3 1.3.6l.3.1h1c.7.1 1 .6 1.4 1 0 .2.1.2.2.3l.3.1.2.3.4.5.3-.6c.2 0 .4 0 .5-.3.5-1.4 1.5-4 2.4-5-1 .6-2.4 1-3.6 1a7.6 7.6 0 01-.2 0h-2a10.6 10.6 0 01-1.3-.6 12 12 0 01-.3-.2h-.1a.8.8 0 01-.3 0c-.3-.2-.7-.4-.9-.7a1.2 1.2 0 010-.2 2.7 2.7 0 01-.9-1.8v-1.1l.1-.1V27l.2-.4v-.3l.1-.2a2 2 0 01.3-2.2c0-.4 0-.8.3-1.1l.6-.6h.2l.3-.3c0-.7.8-1 1.4-1.4l.5-.5c.2-.2.3-.4.6-.5.3-.2.8-.2 1.2-.3h.3c1.2-.2 2.4-.3 3.6-.1.7 0 1.2.4 1.5.9.5 0 1 .5 1.5.9.5.5.9 1 1 1.8.1 0 .2 0 .3.2 0 .4 0 1-.2 1.4 0 .3 0 .5-.2.8v.6c.2.5 0 1.3-.4 1.7v.3c1.2-1 2.3-1.2 3.5-1.5l2.2-.6c1.9-.4 3.8-.7 5.8-.7h-.1a6 6 0 01-2.7-1.2 1.4 1.4 0 01-1-.8 5.2 5.2 0 01-.1-.1c-.6-.2-1-.7-1-1.4-.4-.5-.5-1-.4-1.6-.2-.4-.2-.8 0-1.2-.4-.4-.4-1-.2-1.5a1 1 0 010-1.2l.6-.3a1.1 1.1 0 01.7-.8c0-.3.1-.5.4-.6l.3-.2c.1-.3.3-.5.6-.7.3-.1.7-.2 1 0 .5-.7 1.5-1 2.1-.5.6-.4 1.3-.3 1.8.1.6-.3 1.4-.2 1.9.3.7-.4 1.8 0 2.2.7.8 0 1.5.4 1.7 1.2h.1c.5.1 1 .3 1.2.7l.2.7c.2.2.5.4.6.8l-.1.8c.4.4.5 1 .2 1.6l.2.7c0 .3-.2.6-.4.8.3.6.1 1.2-.3 1.6-.3.9-1 1.5-2 1.9l-1.6.4a29.5 29.5 0 016.7 1.6h.2l1.6 1c0-.6 0-1 .2-1.5l-.4-.8c-.1-.7.2-1.7.8-1.9.2-.6.7-1 1.2-1.2h.2c.1-.2.2-.2.4-.3 0-.3.2-.6.5-.8.4-.2 1-.3 1.3-.1a3.1 3.1 0 01.3 0c.7-.7 1.7-.6 2.3 0 .4-.1 1-.1 1.4.1.3.2.5.5.6.9.6 0 1.2.4 1.4 1 .6.1 1 .6 1.2 1.2.3 0 .7.2.9.6l.2.5c.2 0 .3.2.5.4.2.3.2.7.1 1l.1.1.2.5.2 1 .1.4a4.9 4.9 0 010 2.7.9.9 0 01-.1.1l-.2.6-.6.8a5 5 0 01-.7.8 4.6 4.6 0 01-.6.5l-1.3.7a5.4 5.4 0 00-.2 0c-.6.3-1.4.3-2 .3-.5 0-1-.2-1.5-.4l.1.3c0-.2-.2-.3-.3-.4-.2-.1-.5-.2-.6 0v.5c.2.1.4.5.6.8l.2.5.3.2c0 .2 0 .3.2.4a1.2 1.2 0 010-.2 2 2 0 012.4-.7 5.2 5.2 0 012 0 3.1 3.1 0 01.7.7l.2.2c.3.1.5.5.7.8l.4.6c.5 1 1.1 2 .7 3zM280 59l.4.7v.1h-.2l-.1.2.1.2v.2a1.2 1.2 0 01-.2-.1v.2a1.2 1.2 0 01-.3-.1h-.1l-.4-.2a1 1 0 01-.2-.2h-.1a1.8 1.8 0 00-.5-.7 1.9 1.9 0 00-.4-.4 4.8 4.8 0 00-.3-.3 2.7 2.7 0 00-.6-.2h-.1a5.9 5.9 0 00-.2 0 4.6 4.6 0 00-1 0l-.2-.2a4.9 4.9 0 00-.3 0V58a5.6 5.6 0 01.4 0v-.1a4.3 4.3 0 00-.7 0l.1-.2s-.1-.2 0-.2h.1v-.1h-.2l.1-.2h.1l.1-.1.7-.1v-.1a6.1 6.1 0 011.4 0l.9.5a5.5 5.5 0 011 .8 9.7 9.7 0 01.7.7z" fill="#2B283A"/><path fill-rule="evenodd" clip-rule="evenodd" d="M305.4 68.3a5.2 5.2 0 01-5.3-1.5c-.6-.7-1-1.5-1-2.3a.4.4 0 01.2-.3.4.4 0 01.2-.1h.2a.3.3 0 01.2.2l.3.4a5 5 0 002.8 2c.6 0 1.3 0 1.8-.2a4 4 0 001.7-1.2c.2-.2.4-.3.7-.3.2 0 .5.1.7.3.2.2.3.5.3.8 0 .2 0 .4-.2.7-.7.7-1.6 1.3-2.6 1.5zm0-12.2c1 .6 2.4 2 1.4 3.4-1.3 1.3-3-.2-3.9-.8-.8-.6-1.7.8-1 1.4 6.3 4.6 8.9-3.8 4-4.7-.6 0-.8.5-.5.7zm-9-2.6a1 1 0 00-1.1 0c-.3 0-.9.6-1.3 1.2-.3.4-.4 1-.4 1.5l-.1.2-.2.1a.6.6 0 01-.3 0 .4.4 0 01-.2-.2 3 3 0 01.1-2.2c.4-1 1.2-1.8 1.7-2 .8-.5 1.8-.5 2.6 0 .7.3 1.2 1 1.6 1.6l.3.4c.2.2.2.5.1.7 0 .3-.3.5-.5.6a1 1 0 01-.8 0 1 1 0 01-.5-.5 3 3 0 00-1-1.4zm15.7 1.1c-.2.1-.4.2-.6.1a.9.9 0 01-.4-.2.7.7 0 01-.2-.4c0-.3-.2-.6-.5-.8a1 1 0 00-.8-.3 2 2 0 00-1 .6l-.1.3a2 2 0 01-.4.5.4.4 0 01-.2 0 .3.3 0 01-.1 0c-.4-.3-.4-.6-.4-.8 0-.3.1-.6.3-.8.4-.6 1.1-1.1 1.7-1.2.7-.2 1.4 0 2 .4.5.4 1 1 1 1.7v.6l-.3.3zm-14.2-7.4c-.4.4-1 .4-1.4.5A6.8 6.8 0 00292 50l-.3.3-.3.4v.1a2.9 2.9 0 01-.2.3l-.2.2h-.3c-.2-.2-.3-.5-.3-.8 0-.5.2-1 .4-1.4a7.6 7.6 0 014-3.6 5 5 0 011.9-.4c.4 0 .9.1 1.2.5.2.2.3.5.3.8 0 .3 0 .6-.3.8zm15 3.7a.2.2 0 010 .1.2.2 0 01-.2 0 .2.2 0 01-.1 0 .2.2 0 010-.1c-.4-1.3-1-2.2-2-2.8-.7-.3-1.3-.5-2-.6l-.5-.1a2 2 0 01-1.6-.7c-.3-.3-.4-.7-.3-1 0-.3.2-.6.6-.8.8-.4 2 0 2.8.4h.2c.8.4 1.6.9 2.2 1.5.5.6 1 1.4 1.2 2.2.2.7.1 1.4-.2 2z" fill="#2B283A"/><path fill-rule="evenodd" clip-rule="evenodd" d="M315.7 57.6c-.8 1-2.1 1.4-3.4 1.3-2.7-.3-3.6-3.5-3.7-5.9 1.8.5-.1-3.2 6.1-3.6 2.2-.2 1.6 1.2 2.6 2.2 0 2-.4 4.3-1.6 6zm-13-2.3c-1.7 7.6-10.5 5.8-11.4-1.1.8-.6.6-2.1 1.7-2.7 1.6-1 3.8-1 5.7-1 2.4.2 3.1 1.2 4.4 2.3 0 .8-.2 1.7-.5 2.5zm16.5-7.1a13 13 0 00-.3 0 .8.8 0 00-.2-.2 4.2 4.2 0 00-.7 0c-3.1-.8-10.4.2-10.7 3-1 .3-1.9 0-3 0-1-3.7-16.2-3.2-17-1-.6-.2-1.7-.1-2.5-.2a22 22 0 00-5.1.5c-3.2.5-7.5 1.1-5.3 5.1.4.4 1 0 1-.4-.7-2 1-2.2 2.3-2.7 3.2-1.2 6.4-1.3 9.7-1 .3.3.6.6 1 .7 2.2.4 1 2 2.5 2.3-.3 5.8 6.7 9 10.7 5.1 1.6-1.6 2-4 2.3-6 .2 0 .4-.2.4-.3.5-.5.8-1 1.7-1a3 3 0 011.8.1v.2a.6.6 0 00.2.2c-.9 5.7 3.5 9.3 8 6.4 2-1.9 2.3-4.7 2.4-7.2.3-.2.4-.5.3-.9 0-.5.2-1 .7-1.2.6-.3.5-1.4-.2-1.5z" fill="#2B283A"/><path fill-rule="evenodd" clip-rule="evenodd" d="M471.6 67.3c-1.5-.4-3.3-.4-5-.3-1.5.1-3.3.3-4.8 1a6 6 0 00-3.1 2.6c-.6 1-.8 2.2-1 3.3l-.2 1.5v1l-.2 1a6.6 6.6 0 01-1.2 3c-1.5 2.1-4.1 2.8-6.4 3.7-1.5.5-2.7 1.5-3 3.2-.4 1.5-12.4 14.7-13.6 15.8-1 .8-.8 2.4-1 3.5l-.3 3.7a333.2 333.2 0 00-1.8 36.4v.6l.1 3.6c0 1.2.4 2.4 1.5 3 1 .6 2.3.5 3.4.6h.1a202.3 202.3 0 0018.5.4c9.9 0 19.7-.3 29.5.2 2.5.2 10.5-.7 13-.4 2.4.2.3 1.4 1.8 1.3 4.8-.3 9.4-1.3 14-2.6.6-.2 1-.8 1-1.4a641.9 641.9 0 00-2.1-45.5l-.1-1.1c-.1-1.4-.2-2.9-.5-4.3a8 8 0 00-1.8-3.7c-.8-1-10-8.5-12.3-9.9-2.2-1.4-4.4-2.5-6.6-3.8-.9-.5-1.8-.3-2.6-1-.4-.3-6.3-2.6-8-3.4a9 9 0 01-3.2-2.2 10 10 0 01-.8-3.2c0-1.3 0-2.6-.3-3.7a4.2 4.2 0 00-3-3zM469 99l9.5 18.5h-6.2l4.5 10.3H467l3.5 14.4-19.8-24.7h7.4l-7.4-9.7h5.1l-5.1-8.3L469 99z" fill="#fff"/><path fill-rule="evenodd" clip-rule="evenodd" d="M437 109.4zm18.5-5.4c.9 1 1.8 3.3 2.6 4.4l.4.5c.3.5-.2 1.2-.7 1.2l-3.4-.2c2.3 2.5 4.2 5.8 6.4 8.5l.4.6c.5.7 0 1-.7.8l-.5-.1-3.2-.9-1.8-.4h-.7a197.4 197.4 0 003.5 5.3c2.7 4 5.8 7.9 8.8 11.7l2.3 3-2.1-4.2-4-7.8-.2-.4c-.3-.5.1-1 .7-1a94.8 94.8 0 018.8 2.2l.3.1v-.2c0-.1.1-.2 0-.4-1.6-4.1-3.7-8-6.3-11.6h.3c2.8 0 5.6.5 8.3 1.2l-.2-.8-1-2.2-2.2-4.5-2.1-4.4-1-2.3-.8-2c-.7.3-9.5.3-11.7.5h-1.6c-.4.1-1 .2-1.3-.2v.1l2.7 3.5zm34.6-21.2h-.2l-.2.2.4-.2zm-61.9 65a569.3 569.3 0 011-15c.4-6.6 1-13.3 1.7-20 .3-2.7.8-5.5 1.3-8.2l-.2-.2c0 .8-1 1.2-1.5.5a5.7 5.7 0 01-.1-.2 20 20 0 01-1.4-4.5c.1-.5.5-1 .8-1.5a96.7 96.7 0 012.2-3.6 27.6 27.6 0 0111.2-9.6c1-.5 1.9-1 2.8-1.2 0 0 .1 0 0 .1l-.7.6c.7-.3 1.5-.4 2.2-.5l4.3-1.5a7.7 7.7 0 003.8-2.3c.8-1 1.3-2.4 1.7-3.6l1-4.2c0-.1.2-.2.2 0 .3 1.4.3 3 .1 4.5-.1 1.6-.6 3-1.5 4.3a9.1 9.1 0 01-4.3 3l-4 1.5a16.3 16.3 0 002.8 1.5l4.5 1.5a41.5 41.5 0 0030.6-4.6l1.4-.7a3.2 3.2 0 01-.1 0l-3-.6c-2-.5-4-1.4-6-2.3a9.4 9.4 0 01-4.3-3.2c-.5-.8-.7-1.8-1-2.8l-.6-3.2c0-.3 0-.8.5-1l.4-.2c.4 0 .8.3 1 .7l.5 3c.2 1 .3 1.8.8 2.6.8 1.4 2.4 2 3.8 2.7a64.6 64.6 0 007.6 3c0-.1 0-.3.2-.5l.6-.6c.3-.2.7-.4 1-.3l.4.1 1.4.6a53.4 53.4 0 0120 15c.7.9 1.4 1.8 1.6 2.8 0 .1-.1.2-.1 0a3 3 0 00-.2-.4v1.5c-.3.6-.7 1-1.2 1.1a187.9 187.9 0 012.1 17.5 247.6 247.6 0 01.1 29.8c0 1 0 2-.9 2.5v.1c-.2.8-1.1.5-1.2-.1-.7-.6-.6-1.4-.5-2.3l.1-2.7a412.5 412.5 0 00.5-15.5c0-7-.3-13.8-.8-20.7l-.5-8.6c-.4-.2-.5-.7-.3-1a52.3 52.3 0 00-13.2 12.7l-.5.8.4 2c.3 1.3.4 2.7.6 4.1l.9 8.4c.4 5.6.7 11.1.8 16.7 0 3.1.2 6.3 0 9.5a1 1 0 01-1 1.2c-.5.1-1-.2-1.2-.6l-4.8.3h-6.4l-12.7-.3-25.4-.8-7-.2c-1.1 0-2.4.3-3.3-.5a1.6 1.6 0 01-.3-.5c-.2 0-.5 0-.7-.2-.3-.4-.5-.7-.5-1.2l.2-1.4a232 232 0 002-18.5c.6-7 .8-14 .8-21v-2a.7.7 0 01-.1.1h-.1c-.3.3-.8.5-1.2.2l-1-1a45.3 45.3 0 00-3.4-3.4l-.1-.2-.1 6.7c0 3.4-.3 6.7-.4 10l-1 19.7-.3 5.5-.1 2.8-.1 1.5c0 .5 0 1.1-.2 1.6-.4 1.2-2.2 1.3-2.5 0-.2-.8 0-1.8 0-2.6l.1-2.6z" fill="#2B283A"/><path fill-rule="evenodd" clip-rule="evenodd" d="M461.3 22.6c-6.8 0-15.3 7.7-17.8 11-2 2.8-1.8 17-1.8 25.6 0 1.7.8 5 1.1 6.8 1.1 6.2 5.7 11.4 15 11.4 7.4 0 13.1-2.4 18.7-8.4 1.3-1.4 7.5 3.5 8.7 1.8 3.4 0 6.1-31-.4-40.3s-16.7-8-23.5-8z" fill="#fff"/><path fill-rule="evenodd" clip-rule="evenodd" d="M481.7 24.8a20.5 20.5 0 00-14.4-5.2 26.6 26.6 0 00-11.8 3.2l-1.2.8c-1 .4-2 1-2.8 1.9a12 12 0 00-5 .5 12 12 0 00-5.8 3.9 10.6 10.6 0 00-2 7.5v.4c.2 2.4.6 5.5 2.5 7l.5.4a27.8 27.8 0 00-2.9 7 51 51 0 002.3 28c.2.7 1.4 1.2 2 .4a6 6 0 014-2.4c1.1-.1 2.1 0 3-.4a2 2 0 001-.8c1.7.6 3.5.9 5.2.8a11 11 0 007.9-3.3c.3-.3.4-.7.3-1a4.2 4.2 0 00-.7-.3 16.8 16.8 0 01-8.2 2.5 8 8 0 01-4.8-1.2l-.8-.8c-3-1.9-5-5-6-8.4a26 26 0 01-.4-9.7l.2-1.7.5-7.6c-.7 0-.7-1 0-1 1.6.2 3.1 0 4.7 0 0-.7 0-1.5.3-2.2.1-.4.9-.5 1 0v2l7.2-.2c.4-.4.6-1.3.8-1.8v-.3l.8 2.4h.6c3.3 0 6.7.2 10 .8.2-.1.3-.4.3-.7.3-1.8.6-3.5 1.2-5.2v-.3h.1a13 13 0 002.6 3l1 1.2v2.6a11.7 11.7 0 001.2 4.2v.2c.1.6.2 1.2.6 1.7-.4.4-.8 1-1 1.6-.1.6.7 1 1 .6l1.1-.9h.1c1.1-.6 3-.4 4 .2 1.3.7 1.9 2.1 1.7 3.6-.1 1.3-.7 3-2 3.7a1.7 1.7 0 01-2-.1c-.4-.4-.8-.6-1.2-.6-.5-.1-1 0-1.1.5-.1.3-.3.6-.2 1a1.8 1.8 0 00.6 1.2c-4.7 5-5.3 13-2.9 19.3l.4.8c.4 1 2 .6 2.1-.3a19 19 0 01.6-2.3l.1-.2.4-1.2v-.1l.3.5.7 1.6c.4.8 1.5.4 1.5-.4v-.4c0-1 .3-2 .5-2.8h.1c1.5 1.9 3.2 3.5 5.5 4 .5 0 1.2-.6.8-1.2l-.5-.7a5 5 0 00.4-.2 7 7 0 002.2-2c1.3-1.7 1.8-3.8 1.9-5.9a20.7 20.7 0 00-1.7-9.3v-.2a35 35 0 002.1-11.6 37 37 0 00-2.4-14 34.1 34.1 0 00-8-12.1zM484 66c.3-.5 1.2 0 .9.5-.6.8-.8 1.7-1.1 2.6-.2.6-1.1.4-1-.2l.1-.2c.3-1 .6-1.9 1.1-2.7zm-2.8-9.8h-.2c-.7-.4-1.3-.6-2.1-.3-1 .3-2.2 1.6-1.5 2.7.3.5.7.6 1.2.5.9-.1 1-.9 1.5-1.5v-.1c.3-.4.6-.9 1-1 .2 0 .2-.2 0-.3zm-.6-24.8v-.1c-.5-.4.1-1 .6-.7 2.1 1.9 2.8 4.8 4 7.3.2.5-.7 1-.9.5-1-2.4-1.7-5.2-3.7-7zm-25.3-.9c.5-.2 1 .6.5.9-1.9.8-2.7 2.7-3.5 4.5-.2.6-1 0-.8-.5l.2-.3c.7-1.8 1.7-3.7 3.6-4.6zm-3-1.1c.6-.2.9.7.3 1a7.3 7.3 0 00-3.6 3c-.3.5-1.1 0-.8-.5 1-1.5 2.3-2.9 4.2-3.5z" fill="#2B283A"/><path fill-rule="evenodd" clip-rule="evenodd" d="M452.4 58c-1 .6-2.4 2-1.4 3.4 1.2 1.3 3-.2 3.8-.8.8-.5 1.8.8 1 1.4-6.3 4.6-8.8-3.8-3.9-4.7.5 0 .7.5.5.7zm8.6-11h-.2l-.2-.1c-.7-.1-1.5-.2-2 .4-.3.3-.4.9 0 1.2.6.5 1.4.3 2.2.3.6 0 1.2.2 1.9.4a13 13 0 013.6 1.9c.2 0 .3-.1.3-.3-.7-1.3-2-2.4-3.3-3-.7-.4-1.5-.7-2.3-.8zm-6.3 18.3c-2.1.1-6.7-.9-8.6.6-7.1 8.9 21.1 11.2 18 1.4-1.9-3.2-6.3-2-9.4-2zm.3 5.3c.5 0 1.2.4 1.3.7.2.3.1 1 .1 1.1h-2.7c.2-.7.2-1.7 1.3-1.8zm-4.2 1.3c.2-1 .9-1.2 1.4-1 .6.1 1 .8.9 1.4a15.7 15.7 0 01-2.3-.4zm6.5-1.1c.3-.5 1-.7 1.6-.7.8.2.9 1.3.9 1.5a14.5 14.5 0 01-2.8.7V72c0-.3 0-1 .3-1.4zm-9.3 0c.8-1.4 2.6-.5 2.5 1a17.4 17.4 0 01-2.5-1zm6.6-4.5c1.1-.2 2-.1 2.8 0v.3c.1.8.2 1.7-.2 2-.4.3-1.6.2-2.4 0-.2 0-.5-1.8-.2-2.3zM453 66c.1.9.2 2-.1 2.2-.4.3-1.6.3-2 0-.3-.1-.2-1-.1-2l2.2-.2zm5 .2h.6c.5 0 1 0 1.6.2 1 2.3-2.8 2.7-2.2 0v-.2zm-7.7 0v.2c0 .7 0 1.5-.4 1.8-.5.3-1.5.2-2-1.3.1-.5 2-.6 2.4-.6zm10.3-13.7a1 1 0 00-.6.2l-.5.6a3.8 3.8 0 000 3.8l.5.6.6.2c.3 0 .5 0 .7-.2l.5-.6a4 4 0 00.5-2c0-.6-.2-1.3-.5-1.8l-.5-.6a1 1 0 00-.7-.2zm-14.3 0a1 1 0 00-.6.2l-.6.6c-.2.5-.4 1.2-.4 1.9s.2 1.4.4 1.9l.6.6.6.2c.2 0 .4 0 .6-.2l.6-.6c.2-.5.4-1.2.4-2 0-.6-.2-1.3-.4-1.8l-.6-.6a1 1 0 00-.6-.2zm2-6.2h-.4c-2 .5-4.4 1.3-5.4 3.2v.4l.2.1a5.7 5.7 0 001.3-.4l.3-.2 1.3-.6 3-.6.5-.2c.2-.2.3-.3.3-.5.1-.3 0-.5 0-.8a1 1 0 00-.5-.4 1 1 0 00-.6 0z" fill="#2B283A"/><path fill-rule="evenodd" clip-rule="evenodd" d="M521.4 90.4c1-4.3 2-6.1 4-7.6 1.9-1.4 4.5-2.5 8.4-3.4 4-.7 4.2-2.8 5.2-6.2.3-1 1.8-1.3 2.4-.5l.3-.3c-.1-.5.6-1.9.6-2.3-.3-4.9 1.3-7.3 5.3-8.2a47 47 0 017.5-.1c3.7 1 7.3 4.2 6.8 8.1a7.2 7.2 0 004 3l11.9 1.2c7.7 1.3 15 5.3 20 11.3.4.6.5 1.3.1 2 .4 1.3 2.1 4.5.7 5.5 2.3 5.5 7.6 16.1 7.7 19.2 0 12.7-1.4 29.4-14 36.4-.5.5-.6 1-.8 1.8-.6 2.3-2.6 4-4.8 3.9-10.8.2-21.4-1.1-32.2-1.2-4.8 0-10.6.7-14.7 1.2-4.2.5-8.4 0-12.4-1.2-.3.6-1 .9-1.7.7-4.2-.8-7.5-3.4-10.4-6.1-1-1.7-4.4-6.3-3-7.9a25 25 0 011-16c-.3-1 .3-2 0-3-.2-.6-.6-.9-.9-1.6-.3-1 0-2.2.4-3.2.2-.5-.3-1-.4-1.5-.6-2.4.8-2.2 1.7-3.7l-.2-1.2c-.2-.8.2-1.8.5-2.5.3-.4.7-.7 1.2-.7a46.8 46.8 0 00-6-12.2c-.6-1 .3-2.2 1.4-2.2 3.5-.3 7-.8 10.4-1.5z" fill="#fff"/><path fill-rule="evenodd" clip-rule="evenodd" d="M531.6 110.9c1.3-.5 2.9-.8 4.4-1l-2.5-.3c-.6 0-1 0-1.5.4-.3.3-.4.6-.6 1l.2-.1zm-15-5.1c2.2.1 4.5.6 6.6 1.6.8.4 1.6 1 1.8 2 .2.5.1 1 0 1.5 0 .3 0 .8-.3 1a.7.7 0 01-.2.2c.8.3 1.5.7 2.1 1.2a4 4 0 011.5 1.6v-.2a6 6 0 012.4-3.2c-.2-.1-.3-.4-.3-.6.3-1.3 1.4-2.3 2.7-2.3 1.4.1 2.9.6 4.2 1.3h1.3a32.3 32.3 0 00-3.7.8c-1 .3-2 .5-3 1-1.9 1-3 3.3-2.8 5.3 0 .3.2 1.4.6 1.2.4 0 .6-.9.7-1.2.4-.8 1-1.3 1.9-1.7l2.9-1 1.6-.6c.6-.1 1.1-.4 1.7-.3.4.1.4.5.2.8-.3.4-.8.5-1.2.6l-1.8.6-2.7 1 .2.2c-.2.8-.4 1.8-.2 2.6.2.6.8 1.4 1.5 1.2a.4.4 0 010-.5c.2-.6 4-3 4.4-2.2-.3 0-.8.5-1 .7l-1 .7-1.1.8-.8.5a.7.7 0 01.3.4c.2.5.4.9 1 1.1.4.2 1 .1 1.5.2.7 0 1.3.4 1.8.8 1.1 1 1.7 2.9 3.2 3.3 1 .3 2 .1 2.8 0 1-.1 2-.2 3.1-.1 1 .1 2 .5 2.8 1a9 9 0 012.6 1.3l.4-1.4c.3-1.2.4-2.3.5-3.5l-.1-3.4-.2-1.7v-.4c-1.4-.8-2.8-1.4-4.3-2l-.1-.1a.9.9 0 01-.3-.4c-2-1.4-3.8-3.2-5-5.4a17 17 0 00-1.8-2.6 5 5 0 00-2.8-1.7l-3.9-.6-2.3-.1c-.5 0-1 0-1.6.2-.7.2-1.1.7-1.6 1.3a37.1 37.1 0 00-2.3 3.3l-.5 1-.2.4-.1.3c.6 0 .6 1 0 1-2.4-.2 1-4.9 1.6-5.6.7-.9 1.4-2.1 2.6-2.5a6 6 0 01-.8-1.2c-.3-.3-.6-.8-.7-1.3 0-.3.3-.5.5-.2.3.4.4.9.6 1.3l.6 1.3 1.5-.3a62.8 62.8 0 01-3.6-5.7c-.6-1-1-2.2-1.6-3.3l-1-1.9-.4-.6-.1-.1h-.2c-.2-.2-.2-.5-.4-.6-.2-.3-.5-.3-.8-.3h-2.2a132.7 132.7 0 00-3.3.1h-1l-4.7.4-4.1.5a131.8 131.8 0 006.4 13.2zm10.4 11.5l.8.5v-1c-.2.3-.5.4-.8.5zm-13-7.7a2 2 0 01-.3 2.5c-.4.4-1.2.8-1.2 1.4 0 .4.6.8.8 1.2.2.4.3.8.1 1.2-.2.5-.8.7-1 1.2-.2.6.2 1.3.5 1.9l.8 1.5c1.5.8 3 2 4.1 3.3 1.3 1.3 2.4 3 4.5 2.9a41.1 41.1 0 005.2.3v-3.4c-.3.7-1 1-1.8 1l-3.9-.5-2-.4c-.6 0-1.3 0-1.7-.5a.3.3 0 010-.4h1a72.1 72.1 0 006.3 1c.5 0 1 .1 1.4-.2.8-.8.4-2-.1-2.8l-1.5-.4-2.7-.4-5.8-.7c-.4 0-.4-.8 0-.7 2.8.2 5.5.5 8.2 1l2 .5 1 .2h.1c.7 0 .8-.6.4-1a3.7 3.7 0 00-.1-.3 9.8 9.8 0 00-2.3-1.7l-2.7-.6-6.5-1.5c-.5-.1-.3-.8.1-.7l5 1.1 2.5.6 1.6.4h.9c.7-.2.8-1.2.4-1.8-.3-.7-1-1-1.7-1.4-1.1-.7-2.3-1.2-3.5-1.7l-.6-.1c-1.2-.3-2.6-.4-3.7-1-.4 0-.2-.6.1-.6 1 0 1.8.3 2.7.5l2.8.6.7.2.1-.4v-1.2c0-.9-.8-1.3-1.6-1.6a17.5 17.5 0 00-6.6-1.6c-.5 0-1 0-1.2.4a9 9 0 00-.8 2.7zm2.4 28.2c.4-1.3.3-2.7.5-4l.5-2 .5-1.6h-.1c-.5.3-1 1-1.2 1.4-.4.6-.7 1.3-.9 2-.4 1.2-.8 2.8-.2 4.2.2.4.7.4.9 0zm11.3-16.9a8 8 0 01-.9-.1c.4.3.7.7.9 1.2v-1zm3 26.5c.6-.4 1-1 1.4-1.4a.5.5 0 00-.7-.7c-.4.4-.7.9-1.2 1.2-.2.2-.3.4-.2.7.2.2.5.3.7.2zm3-14.7c-1-.4-1.9-.9-3-1.2-.6-.2-.8.8-.2 1l2.8 1c.6.3 1-.5.5-.8zm10.6-.3c.3-.6-.7-.9-1-.3l-.8 2c-.3.7.7 1 1 .3l.8-2zm10.5 12c.1.3.4.4.6.2.3-.1.4-.5.2-.7a18 18 0 00-1.5-1.8.5.5 0 00-.7.7l1.4 1.6zm1.4-67.5A9 9 0 00555 78c-.5.5.2 1.2.7.7l1-1c.3 0 .4-.4.2-.6 0-.2-.4-.3-.7-.2zm-15.1 16.3c.2.5.5 1 .5 1.6 0 .6 1 .6 1 0a5 5 0 00-.6-2.2c-.3-.5-1.2 0-1 .6zm-5.6-13c-.5-.4-1 .4-.5.8l1.3.9c.6.3 1-.6.5-1l-1.3-.8zm24.2 22.7c0 .7 1 .4 1-.3l-.7-2.9c-.1-.6-1.1-.3-1 .3l.7 3zm3.5 11.6c.6 0 .6-1 0-1s-1.2.1-1.7.3c-.7.1-.4 1.1.2 1l1.5-.3zm1.3 23.2l.7.4 1.3.6 2.9 1.3 5.6 2.5 5.8 2.7 2.7 1.2c.8.4 1.7 1 2.6 1-.3-.4-.8-.6-1.2-.8l-1.4-.7-2.7-1.5-5.5-2.7c-2-1-3.8-2-5.7-2.8a1091.3 1091.3 0 00-4.2-2l-.6-.3-.8-.2c-.5-.1-.7.5-.3.8l.8.5zm6.7 10.4c.1-.3 0-.6-.3-.6-.3-.1-.5 0-.6.3-.3.7-.7 1.3-1.2 1.8s.2 1.2.7.7a7 7 0 001.4-2.2zm5-16.2c.5-.5-.3-1.2-.7-.7l-1.3 1.3c-.5.5.2 1.2.7.7l1.3-1.3zm13.4-2.1c1 .2 2 .5 2.7 1.3-.7-1.8-3.1-2.3-4.7-3l-3.6-1c.2-1.4-.2-2.8-.3-4.2a87.5 87.5 0 01-.3-8.8c0-1.5.3-3 .3-4.4 0-.1-.1-.1-.2 0-.5 1.3-.7 2.9-.9 4.3a35.1 35.1 0 000 9l.3 2.2c0 .5 0 1 .2 1.6l-2.2-.5-6.9-1.5-3.3-1-3.3-.7c-.4 0-.4.5-.1.7.8.6 2 1 3 1.4l3.1.8 6.6 1.5 6.5 1.4 3.1.9zm5.2-27c.5.3 1-.6.5-.9a17 17 0 00-2.3-1c-.6-.3-.9.7-.3 1 .7.2 1.4.5 2 .9zm2 37.5c.6.3 1-.6.5-1l-2.4-1c-.6-.4-1.1.5-.5.8l2.4 1.2zm1-21.3c-.6.5-1.3.7-2 1-.6.3-.4 1.2.2 1 .9-.4 1.8-.7 2.5-1.3.4-.5-.3-1.2-.8-.7zm-6-29c-.7.3-.4 1.3.2 1l2-.7c.6-.2.3-1.2-.3-1l-2 .8zM581 78.7c-.7-.1-1 .9-.3 1 .8.1 1.6.3 2.3.6.6.2.9-.8.3-1-.8-.3-1.5-.5-2.3-.6zm-3.5 28c.5-.3 0-1.2-.6-1-.6.4-1.2.6-1.9.8-.6 0-.3 1 .3 1l2.2-.8zm-3.4-15.8c-.6-.2-.9.8-.2 1l3.3.7c.6.2 1-.8.3-1l-3.4-.7zm-14-5c-.7.2-.4 1.2.2 1h2c.7 0 .7-1 0-1h-2.2zm-46 5.3l5-.3h.2v-.1c.6-.8 1-1.6 1.3-2.5a8.1 8.1 0 013.4-4.7l1.4 1.3c.5.4 1.2-.3.7-.8a11.1 11.1 0 00-1.2-1l1.5-1a76.5 76.5 0 015.9-3l2.8-1.1 1.5-.7c0-.4 0-.8.3-1l.7-.4c-.2 0-.2 0 0 0l.4-.9c.3-.7.4-1.5 1-2.1.6-1 1.7-1.3 2.7-1 0-1 .1-2.2.5-3.2h.1c.4.8.5 1.6.5 2.4l-.1 2.4a4.3 4.3 0 001.2.6c.7.3 1.5.4 2.2.4 2 .1 3.9 0 5.7-.4 2-.3 4.8-.8 6.5-1.8 1.1-.6 2.1-1.4 3.2-2.1a5.7 5.7 0 01-.1-3.5c0-.2.2-.2.3 0 .2 1 .3 2 .6 2.9l.3-.2c.2-.1.5 0 .7.2 2.1 3.4 5.6 3.6 9.2 4.2 4 .7 8 1.4 11.8 2.8a25.9 25.9 0 0111.7 7.7 9 9 0 00-1.6.4c-.6.2-.4 1.1.2 1a9 9 0 012-.4 61 61 0 019.3 25.6l-1.1-.7c-.6-.3-1 .6-.5.9l1.9 1a66.7 66.7 0 01-2.6 26.5 28 28 0 01-4 8.3 14.6 14.6 0 01-4.7 4c-.8.5-1.8.6-2.4 1.2a2 2 0 00-.6.7v1.5c0 .2-.2.3-.3.4v.1a4.2 4.2 0 01-.1 0 .5.5 0 01-.2 0l-5.7-.2.4-1.3c.3-.6-.7-.9-1-.3l-.5 1.6-6.1-.2-13.1-.3c-6.8-.2-13.6-.5-20.4-.2l-.8-1.4c-.3-.6-1.2-.1-.9.5l.6 1-4.2.3-7 .8c-2.3.3-4.7.2-7-.2a1 1 0 01-.8-.6l-.4-.4-.4-.2a5 5 0 00-1-.3h-1.2a9.5 9.5 0 01-2.6-.8l-1.3-.8a16.4 16.4 0 01-3.2-3.7l-1.5-2.7a10 10 0 01-.5-.8c1-.3 1.9-.5 2.8-.5.7 0 .7-1 0-1a12 12 0 00-3.2.5 8.7 8.7 0 01-.1-.4 7.3 7.3 0 01-.3-.9l-.2-.4-.3-1.4a19 19 0 01-.6-2.3l-.2-1.5a29 29 0 01-.2-6.2c0-.5 0-1 .2-1.6 0-.8.2-1.5.4-2.3l.4-1.6a30.1 30.1 0 011.4-3.4l.1.1v-.1l.3-.2c-.5-.6-.8-1.3-1.2-1.9a5 5 0 01-.6-1.6c0-.5 0-1 .4-1.5.4-.4 1-.6.7-1.3-.5-.8-1.1-1.5-.5-2.3.3-.5.9-.7 1.2-1.1.5-.4.7-1 .7-1.7h-.1c-.4-1-.1-2.3.3-3.4.2-.6.6-.7 1.1-.8-2.2-4.2-4.2-8.5-6-13l-.2-.4c-.1-.2 0-.5.3-.5 1.6-.4 3.2-.5 4.8-.7z" fill="#2B283A"/><path fill-rule="evenodd" clip-rule="evenodd" d="M532.6 11.8c7-2 31 0 31.5.5 1 .8 5.7 3.4 6.4 4 6.7 7 .3 17.5.8 26 0 3 1.3 5.7 1.9 8.6a7 7 0 01-.6 4.5c-1.4 2.4-4.3 3-6.7 4-1.2.4-2.3 1.1-3.4 2-6.8 6-10.6 10.2-20.6 8.8-.1.5-.5 1-1 .7l-3.7-1.5c-.3.7-1 .9-1.6.3a17 17 0 01-4.8-7.1 30 30 0 01-1.9-5v-.5c-2.2-7.5-3-15.5-2.4-23.3.1-1.6.4-3.3.4-4.9-.1-1.5-.7-2.9-1.2-4.2-2.5-5.8 1.3-11 6.9-13z" fill="#fff"/><path fill-rule="evenodd" clip-rule="evenodd" d="M531.7 2.4l-.1-.1c-.8-.6-1.6-1.5-2.7-1.2-1 .3-1.4 1-1.6 2a21 21 0 01-.8-1c-.8-.8-2.4-.3-2.6.8a17.3 17.3 0 00.2 7.6l-1.4-1.9c-.4-.7-1.4-.3-1.5.4a8.2 8.2 0 000 .6c-.3.2-.5.5-.4.9a59.8 59.8 0 001.7 6.4c-1.1-.6-2.4-1-3.6-.5-1.8.6-2.3 2.7-1.9 4.4.5 2.2 1.9 4 3.8 5.3l.6 1c0 1 .2 1.9.5 2.8a6 6 0 002 2.5c.3.7 1.1 1.2 1.8 1l-.4 2c-1 5-.5 10.3.4 15.3v.2c.9 4.5 1.9 9.1 3.8 13.3 1.7 3.7 4.7 7 9 7.8 4.9 1 10.4-.5 14.7-3 1.5-1 .1-3.4-1.4-2.5a21.8 21.8 0 01-7.2 2.8c-2.4.5-5.1.6-7.4-.3-3.2-1.4-5-4.7-6.3-7.7a38.7 38.7 0 01-2.4-31.3l.2-.4c.5-1 1-2 1.3-3 .4-.7.7-1.3 1.2-1.8l1.7-1.5c-1.6-1-3-2.3-4-3.9 0-.3 0-.5.2-.6.8 1 1.8 1.8 2.9 2.5l1.7 1.3a16.3 16.3 0 005 0c2.7-.3 13.8-3.3 18.5-2.1 1 .2 1.5 1 2 2 .5.6 1 1.2 1.7 1.7 1.4 1 4.1 4 5.3 6.6a39.8 39.8 0 012.2 13.6c-1.7.3-2.6 1.1-4 2.1-.1 0 0 .2 0 .2l3-.7a5 5 0 012.5.2c1.3.4 2 1.5 2.2 2.7l.1 1.5v.1c0 1.6-.2 3.3-1.4 4.4-.4.5-1 .8-1.8 1-.7 0-1.2-.3-1.8-.5-.8-.2-1.4.3-1.4 1l-.4.4-.3.2a2 2 0 00-.4.4 1 1 0 00-.6.4 19.4 19.4 0 00-1 1.4l-1.6 1.8-2 2.2-.3.3-1 1.2-.1.1c-.3.4-.6.7-.6 1.2s.4.7.7.6c.6-.1.9-.6 1.2-1l.5-.6.5-.7.7-.9c0 .6.7 1 1.2 1h.2c1.2.1 2.8 0 3.8-1 .4.5 1 .8 1.6 1a3 3 0 003.7-1.6c1.2.5 2.6.6 3.9.2a1 1 0 00.4-1.7l.2-.5c0-.3-.2-.5-.1-.7.1-.8 1.4-.2 1.8 0h.3c.6.2 1.3-.7 1-1.4l-2.3-4.6h.3c1.4.4 3-.3 2.7-2 0-.3-.4-.6-.8-.7-.6-.3-1.1 0-1.7-.3-.6-.2-1.2-.7-1.7-1.1a9 9 0 01-1.5-1.5 6 6 0 00-.9-2.3c3-.8 2.5-3.8 3.9-6.4v-.2c1-1.8 1.8-3.7 1.3-5.7a4.8 4.8 0 00-.3-1h.7c.6.1 1.1-.6.9-1.1a9.4 9.4 0 00-.4-.8 9 9 0 00-1.4-2l2.8-.1c.9-.1 1.8-.6 1.7-1.6 0-1-.8-1.7-1.6-2.2-.8-1-1.7-1.8-2.8-2.5h.7a5 5 0 001.8-.6c.5-.2.5-.9.2-1.3-1.1-1.1-2.7-.7-4 0l.3-.4c.7-.6-.2-1.6-.8-1a4.3 4.3 0 00-.6.6 12 12 0 00-3.4-4.3l-.3-.3c-2.5-2.1-3.3-3.1-6.7-2.8l.1-1.9c-.1-2.2-1-4.7-3-5.7-.5-.2-1.1.2-1 .8l.4 1.3-1.5-1.4c-2-1.6-4.9-3-7.6-2.6-1.5.2-2.7 1.2-4 2a10 10 0 01-4.2 1.4c-2 .3-4.1 0-6.2-.3a40.3 40.3 0 01-6.5-3.7zm37 46.2h-1.4c-1.2.3-2.2 1.2-2.3 2.4 0 .6.4 1.1 1 1.2.5.2 1 0 1.3-.5.4-.5.5-1 1-1.5.4-.4 1-.9 1.5-.8 0 0 .1-.1 0-.2-.4-.2-.6-.5-1.1-.6zm-6-5.7c-.2-.2-.4 0-.3.3.2.5 0 1-.4 1.5-.2.4.3.7.6.6 1-.5.9-1.8.1-2.4zm-3.4-15.1c0-.2-.1-.2-.2 0-.6 2-.8 3.7-.7 5.9v.1c.1 2.1.5 4.3 1.7 6 .3.4.9.1.8-.4-.4-2-1.1-3.8-1.4-5.8-.3-2-.5-3.8-.2-5.8zm6.5 7.3c0-.5-.9-1-1.3-.5-.2.1 0 .4.2.4.1.1.3 0 .4 0 .2 0 .3.1.3.3.1.2.5 0 .4-.2zm.4-4.3c-.3-.5-1-.9-1.6-.5-.2 0-.1.4.1.4h.2c.4 0 .8 0 1.1.2.1.1.2 0 .2 0zm-1-15c1.6-.8 3.2-.1 4.6 1l.2.2a17.5 17.5 0 00-5.1-1l.2-.2z" fill="#2B283A"/><path fill-rule="evenodd" clip-rule="evenodd" d="M537.9 56c1.3-.6 3.8 0 4.7.2 2 .5 4 1.5 4.7 3.2.7 1.9-.7 2.5-1 2.4-1.3 0-3-.8-4.5-1-1.2-.3-2.5-.4-3.6-1-.8.4-2.7.6-4.2 1-1.3.4-1.8 1.1-3 1-1.5-.2-.9-3.2.7-4.4 1.7-1.4 4.7-2 6.2-1.4zm-2.7 12.8c1.2.3 1.3-2.3 1.4-3.2.1-.7.7-2.5 2.2-2.5 1.5.1 2 1.7 2 2.6-.1.6-.7 3.8 1.2 4.2 1.1 0 2.5 0 3.7-.3 1.4-.3 3.3-1.5 3.8.8.2.8-6.2 3.2-9 3.4-2.9.6-6.2-.3-8.3-2.5-.4-.5-1.7-2.6-1.8-3-.2-1.1.2-1.8 1.6-1.4.9.5 2.5 1.8 3.2 2z" fill="#2B283A"/><path fill-rule="evenodd" clip-rule="evenodd" d="M537.4 57.4c-.5-.8-2-.7-2.1.3-.5 2 1.9 3.8 3.7 3.9 1.8 0 3.8-1.5 3.6-3.5-.1-.4-.7-.4-1 0-.6.8-1.4 1.7-2.5 1.5a2 2 0 01-1.2-.8c-.3-.4-.3-1-.5-1.4zm11.4-14.6a1 1 0 00-.7 0c-.5.2-.9.6-1 1a2.3 2.3 0 010 .1l-.2.4v.6a6 6 0 00-.5 0h-.2c-.8 0-1.7.2-2.2 1-.3.3 0 1 .5 1.1.8.1 1.4-.3 2.2-.4l2.2.1c1.5.3 3 .9 4.4 1.3h.2c.2 0 .5-.3.2-.5a12 12 0 00-4-2.2c.1-.3.2-.8 0-1.1a3 3 0 000-.2v-.2a1 1 0 00-.1-.2 1 1 0 00-.8-.8zm-14.9 0a1 1 0 00-1 0h-.1l-.8.8-.3 1c-.7 0-1.5.2-2 .8-.2.2-.3.5-.2.8v.1c.2.5 1 .8 1.4.2.3-.7 1.5-.6 2.1-.6a8.2 8.2 0 011.7.4l.2.1s.5.2.2.2c0 0-.1 0 0 .1.3.2.6-.1.6-.5 0-.5-1-.8-1.4-1a8.2 8.2 0 00-.5-.3 2.5 2.5 0 00.4-1 .5.5 0 000-.2.8.8 0 000-.2c0-.3-.1-.5-.3-.6zM539 49c-1.2.4-3.2 1.4-2.6 3 1 1.5 3.3.4 4.4 0 1-.4 1.6 1 .6 1.5-8.2 3.2-8.2-5.4-2.7-5.2.6 0 .7.6.3.7zm11-11.2h-.3c-1-.3-2.2-.9-3.2 0-.3.3-.4 1-.1 1.4.6 1 1.5.8 2.5.9a7.9 7.9 0 013.8 1.4c.5.4.9 1 1.4 1.3.2 0 .4 0 .4-.2.3-.7-.1-1.5-.5-2-.4-.8-1-1.3-1.7-1.8l-2.4-1zm-16-.7c-1.7 0-3.5 1-4.5 2.5-.4.5-.1 1.3.4 1.6.5.3 1.1 0 1.5-.4a5.7 5.7 0 013.7-2.3h1.1c0 .2 0 .3.1.2.5-.2.4-.7 0-1-.5-.5-1.5-.6-2.2-.6z" fill="#2B283A"/><path fill-rule="evenodd" clip-rule="evenodd" d="M526.5 49.2c1.4 1.5 3.8 2 5.8 1.1 5-2 2.5-8.6-1.3-10.4l-1.7-.5h-.3c-4.3.5-5.2 7.1-2.5 9.8zm16 .4a6.1 6.1 0 007.2 1.8c5-2 3.2-7.8-.2-10-7-2.7-10 4.1-7 8.2zm10.7-4.9zM523 42.3c.4 0 1 .1 1.3.4.8-2.8 3.8-5.4 6.5-3.5 2 .7 3.6 2.2 4.4 4.1 1.6-.9 4-.5 5.4.8 1-3 3.1-4 5.7-4.2 2.9-.5 5.7 2.3 6.6 4.6.8-.1 1.9-.4 2.6 0a37.5 37.5 0 0113.3-1.1c.6.3 1 1.8 0 1.9-.7-.1.2-1.1-.6-1.3-4.3-.2-8.4.6-12.7 1-.4.5-1.6.7-2.2.5 1 3.8-1.2 6.4-4.5 7.2-5.1 1.2-9.6-3.5-8.3-8.3a7.3 7.3 0 00-5-.3c2.8 10.5-14 10-11.3-1-1.8.8-2.1-.6-1.2-.8z" fill="#2B283A"/><path fill-rule="evenodd" clip-rule="evenodd" d="M683.2 117.3l-76.3 6v.6c-1.3 8.3-2 14-2 17s-1 7.7-2.7 14l-.1.5 81.2.1 1-19.3-1-18.9zM638.1 76c-3.1.1-6.3 1.5-6.5 2.3-.6 1.9-1.4 10-4.3 11.2-2.8 1.3-8.9.1-10.6 3.1-1.8 3-7.5 15.1-7.5 18 0 1.8 18.6 2.5 55.8 1.9-.5-15.2-2.5-23.1-6-24h-.2c-5-1-8-1.1-9.8-2.9-1.8-1.8-2-4.9-2.8-7.3-.4-1.3-4.3-2.5-8.1-2.3z" fill="#fff"/><path fill-rule="evenodd" clip-rule="evenodd" d="M631.3 80.6c-.3.1-.4.3-.5.6 0 .3-.2.7-.4 1l-.7 2.1a29.4 29.4 0 01-1.5 3.1l-.5.8a1.3 1.3 0 000-.2h.1a.8.8 0 00-.3-.4c-.4-.4-8.7 1.6-11 3.8-4.1 4-6.9 9.1-8.7 14.4l-2.9 9-3 9.3c-.3.7.2 1.3.8 1.6l3.4 1.1c-.5 2.2-1 4.4-1.2 6.6-.6 4.6-.7 9.2-1.6 13.8l-.7 3-.1.3-.5 1.8-.6 1.5c-.1.6.1 1.3.7 1.6.4.2 1 .1 1.4-.3a.8.8 0 000-.4l.2-.2v-.2l.3-.8.4-1.3v-.2l1-3.1c.9-3.7 1-7.6 1.3-11.4v-.2c.3-3.4.4-6.8.1-10.3l1.2.4.8.2h.2l.1.1 1.1.2 1.8.2a392.2 392.2 0 01-2.5 25c-.1.8-.4 1.6-.2 2.4 0 .2.2.4.4.6a1 1 0 001.4-.5l.8.2H623l20 .4h2.6l11.2.1a230.5 230.5 0 008.4-.1h2.4c.2.4.7.5 1 .1.5-.9.7-2.1.8-3.2v-.4a107 107 0 00-.1-25.4v-3.7c.6 0 1.1-.2 1.6-.3a91.2 91.2 0 006.5-1.5l.3-.1a28.6 28.6 0 005.4-2.2v1l.2 2.1v.7l.2 3.2a177.9 177.9 0 01-1 24.9c-.2 1.2-.5 2.3-.6 3.5-.1 1.2 1.7 1.4 2 .3.3-1.3.4-2.6.6-4a91.2 91.2 0 00.1-25.6v-.3l-.5-3-.1-.4-.5-2.7.5-.5c.3-.1.7-.4.6-.9-.1-1.7-.7-3.4-1.3-5a46 46 0 00-1.9-4.7 43.8 43.8 0 00-10.7-14.2c-2.4-2-5-4-8-5.2A18.4 18.4 0 00656 87c-.6-.4-1.4-.2-2 .2h-.2v.1l-.2.3c-.3.3-.3.6-.2 1-.9.7-1.4 1.8-2 2.9-.7 1.1-1.5 2.1-2.5 3-3.7 3-9.1 4.4-13.8 3-3.4-1.1-6.3-4-7.1-7.5h.6c.9-.3 1.3-1.3 1.6-2.1a19 19 0 001.3-5.2v-1.4c0-.3 0-.5-.2-.7zm15-2.4h-.2c-.8 1.7-.2 4 .5 5.6a11.2 11.2 0 004.1 4.5c1.2.8 2.3-1.4.9-1.9a8 8 0 01-3.4-3.4 10 10 0 01-1.2-2.3l-.8-2.5z" fill="#2B283A"/><path fill-rule="evenodd" clip-rule="evenodd" d="M650.2 32c-7-.5-13-2.4-18 2 0 0-7.8-6-9.2-3.7-.8 1.5.4 3.5 0 5.4-2 3.6-2 9.8-2 11.3-.4 3.6-2.3 17.4-2.3 20.7 0 1.6 1.4 6 2.2 8.4 2 5.4 5.6 8.2 11.5 8.2s15.7-5 18.8-9.4c.3-.4 2 .7 3.9-1.3 2-2 3.1-6.1 3.1-8.6 0-3 2-5.1 1.8-9-.6-8.8-2.3-23.7-9.8-24z" fill="#fff"/><path fill-rule="evenodd" clip-rule="evenodd" d="M651 21.7h-.3a2 2 0 00-.3 0c-.5.2-1 .4-1.3.8a3.4 3.4 0 00-.5.5v-.1a3.1 3.1 0 00-.3-.2 3 3 0 00-1.1-.6h-.1a2.9 2.9 0 00-1-.2c-.3 0-.7 0-1 .2l-1.1.8-.6.5a4.1 4.1 0 00-1 1.7 18.7 18.7 0 00-1.3-.1 16.7 16.7 0 00-5.8.7 5 5 0 00-.8.3 5.8 5.8 0 00-1.2.6l-.3.2a16.8 16.8 0 00-1.5 1 11 11 0 00-1.2 1.2l-1.9 1.4a14 14 0 00-4.5-1.6 11.9 11.9 0 00-.6 0l-.5-.1h-.3l-.2.1v.2a2.2 2.2 0 00-.1 0l-.3.2-.1.2a79.1 79.1 0 00-.1 2.4v1l.3.7v.3l.7 1.7-.5.6a2.7 2.7 0 000 .1.1.1 0 00-.1 0h-.2a3 3 0 00-.7 1.2l-.1.2v.1l-.4 1a6.2 6.2 0 00-.1.9 35.2 35.2 0 00-.6 2.8l-.3.2-.8 1-.6 1.1v.1l-.1.2-.2.5-.2 1.1c0 .6 0 1.2.2 1.7 0 .5.4 1 .8 1.3l.3.2c.2.2.4.2.7.1h.1l.2.1v.1h.3v.2L620 53a54 54 0 01-.3 3.8l-.1.5-.7 4.3a28.5 28.5 0 00-.4 2 7.6 7.6 0 00-.3 1.4 14.7 14.7 0 00-.2 1.5c-.2.4-.2.7-.2 1V69l.2 1.4.5 1.9a18.2 18.2 0 002.3 4.8 17 17 0 009.3 7.4l1.6.4c1.2.2 2.4.2 3.5 0a10.6 10.6 0 003.8-1.2l.8-.5a8.8 8.8 0 001.5-1.3c.1 0 0-.1 0-.1v-.1h.1v-.4h-.2v-.1a1 1 0 00-.2 0h-.1c.1-.1 0-.2 0-.2h-.1l-.3.1a9 9 0 01-.4.4l-.2.1a8.6 8.6 0 01-.5.4l-.2.1-.8.5-2.6.9h-.1l-.9.1a7.7 7.7 0 01-1.7 0 5.8 5.8 0 01-1.2-.1 11.7 11.7 0 01-4.3-1.6 13.5 13.5 0 01-.8-.5 16.6 16.6 0 01-1.7-1.4 12.2 12.2 0 01-.7-.7l-.7-.7-.2-.2a23 23 0 01-3.3-6 14.2 14.2 0 01-.3-1.2 6.4 6.4 0 01-.4-1.5v-.4a9.1 9.1 0 010-.5 9 9 0 010-.5V67l.1-1.3v-.5l.1-.3v-.1l.2-.9v-.1l.3-1 .2-1 .3-1.9.5-3v-.2a41.7 41.7 0 00.3-2.9 40.2 40.2 0 000-3V50l1.6-.1a13 13 0 001.6-.2h.2v.2h.2a3.3 3.3 0 001.1 0l.3-.2.9-.2h.9c.3 0 .6.2.9 0h.2c.4 0 .7-.3 1-.4a.5.5 0 01.4 0l.2.1.1.2.5.5.6.2h.5c.5.1 1.1.2 1.7 0 .2 0 .4 0 .6-.2a2.5 2.5 0 00.3-.1l1.1.5h.1c.4.3.8.5 1.2.4a15.4 15.4 0 001.7-.2h.6c.9.3 1.9.6 2.8.3.3 0 .7-.1 1-.4h.2v-.1c.5-.2.8-.7.7-1.2v-.5l.5.5 1.7 2.2.2.2.8 1.3a43.7 43.7 0 001.8 2.5l.2.2.4.6a12.8 12.8 0 011.3 2.4l.2.3a10.7 10.7 0 01.6 2.3v.5h-.2c-.1.1-.3.2-.2.3l.2.4.4.9a4 4 0 00-.3.2 2 2 0 00-.6.4l-.4.4a3.3 3.3 0 00-.5.6l-.3.6a1.3 1.3 0 000 .4c.1.9 1.2.3 1.2.2.2-.6.3-1 .7-1.4l.7-.3c0 .1 0 .2.2.2h1.5c.3 0 .5.2.7.3a4.3 4.3 0 011.3 1.8c.4 1.5 0 3-.6 4.3a35.5 35.5 0 01-1 1.7l-.5.5-.6.6a3 3 0 01-.1 0c-.1.2-.2.2-.4.3a2.3 2.3 0 01-.1 0 1.7 1.7 0 01-.7.2 2.6 2.6 0 01-1-.1l-.5-.4h-.2a1.6 1.6 0 01-.1-.2h-.1l-.3.2-.1.2c-.3 0-.6.3-.6.3a.8.8 0 00.2.3h.1l-.1.2a.7.7 0 000 .1l-.5.7a5.6 5.6 0 01-.7 1.2 4.8 4.8 0 01-.8 1l-.8.5-.1.1c-.1 0-.2 0-.1.2a6.7 6.7 0 01-.5.3c-.1 0-.2.1-.1.2l.4-.2-.1.1-.1.2h.2l.2-.1a5.7 5.7 0 01-.3.3c-.1 0-.2.1-.1.2l.3-.1.2-.1h-.2l-.2.3h.3v-.1h.3l.3-.2.2-.1a9 9 0 002.1-1.7 9 9 0 001.1-1.8l.1-.2a3.2 3.2 0 001.7 0c.5-.1 1.1-.4 1.6-.7l.7-.4a9.5 9.5 0 001-1l.6-.8.6-.9a7.3 7.3 0 001.2-4 5 5 0 00-.1-.9v-.1h.1l.3-.2.5-.6a5.9 5.9 0 001-2.8 6.9 6.9 0 000-.2v-1.7h-.1V61c.7-.8 1.2-1.7 1.2-2.8 0-.4-.1-.7-.3-1 .6-.2 1.1-.6 1.5-1.1a3.4 3.4 0 000-.1c.7-.6 1.2-1.4 1.5-2.2a5 5 0 00.4-1.5 4.5 4.5 0 000-.1c.2-.9.2-1.7.1-2.6a12.6 12.6 0 00.5-2.3V47c.2-2.4-.3-4.8-1.2-7a24.6 24.6 0 00-.3-.5v-.2c-1-1.4-2.2-2.6-3.3-3.8-.4-.4.2-1 .6-.6l2.2 2.4a3 3 0 001-.1c.6 0 1-.3 1.5-.6s1-.8 1-1.4a1.2 1.2 0 000-.2v-1a1.6 1.6 0 00-.1-.2l-.6-.7a1.2 1.2 0 00-.2-.2l.4-.7a3.1 3.1 0 00.3-1.3v-.2c0-.4 0-.9-.2-1.3a2.6 2.6 0 00-.1-.3l-.7-1a2.8 2.8 0 00-.5-.3 2.1 2.1 0 00-.4-.2 2 2 0 00-.8-.3l-.4-1.8-.7-1.1a1.8 1.8 0 00-.7-.5h-.1l-.8-.2a2 2 0 00-1.2.4 3.6 3.6 0 00-.2-.3l-.7-1h-.2a4.5 4.5 0 00-.4-.4 3.8 3.8 0 00-1.1-.5 3.7 3.7 0 00-1.4-.2h-.2a4.2 4.2 0 00-2.6 1.1 2 2 0 00-.3-.4h-.1a2 2 0 00-.1-.1 2.7 2.7 0 00-.4-.3 1.9 1.9 0 00-.6-.3 2.3 2.3 0 00-.6 0zm2.3 45.5l-1.6.6-1.4.9c0 .6 0 1.3.5 1l.2-.1h.1c1-.7 2-1.2 3.2-1.5 0 0-.5-.9-.7-.8l-.3-.1zm-10.5-24a514 514 0 005.2.2l.6-.1.5.3 1.7 1.4a32 32 0 013.4 3 19.5 19.5 0 014.4 6.7c.1 1 .6 2 .8 3 .1 1 0 1.8-.7 2.5-.1.2-.4.2-.6 0 0 .2-.2.2-.2-.2l-.7-1c-.1-.3 0-.5.3-.5a15.4 15.4 0 00-3.6-6.3l-.1-.1h-.1l-.1-.2h-.1l-.3.1v.2l-.2.1c-.2 0-.5.3-.4.3l.3.3-.1.2 1.1 1.4a10.6 10.6 0 01.8 1.2 14.9 14.9 0 011.7 5.3v1.7a5.5 5.5 0 01-.7.3 3.4 3.4 0 01-.1 0 .9.9 0 00-.1 0 3 3 0 00-.8-.2 3.2 3.2 0 00-.5 0 3.2 3.2 0 00-.3 0v-.1c.1-.6.1-1 0-1.6a22.5 22.5 0 000-.7 12.1 12.1 0 00-.2-.7l-.6-1.7c-.6-1.6-1.6-3-2.5-4.4l-2-3.1a37 37 0 00-4.2-5 16 16 0 00-.4-.3 18 18 0 00-2.3-1.7h-.4a9.2 9.2 0 00-.2-.1l-.1-.1a40.1 40.1 0 001.8-.2zm-7.7-7.4h2.1c-.5.5-.9 1-1.1 1.6-.3.7.8 1 1 .3.3-.6.8-1.1 1.4-1.4a3.6 3.6 0 01.3.2 4 4 0 011.2 1.6 4.5 4.5 0 01.2.9c0 1.1-.3 2.2-.8 3.2a10.4 10.4 0 00-1.6-.7 14.4 14.4 0 00-1.3-.8 14 14 0 00-3.1-1.2h-.1a13.5 13.5 0 00-.8-.2h-.2v-.2a4.8 4.8 0 011.7-3l.6-.2h.1l.4-.1zm13.4-1a17.7 17.7 0 016.5.6l-.3.5a27 27 0 01-2.2 3.7 5.9 5.9 0 01-.7.7 3.5 3.5 0 01-.2.2 4 4 0 01-.7.6 5 5 0 01-.7.4h-.1l-.8.3h-.2l-.2.1a2.7 2.7 0 00-.1 0h-.2a3.5 3.5 0 01-.6.1h-.4v.1c-1 0-1.7 0-2.6-.2l-3.5-.3c-.2 0-.3.1-.2.2l-.2.1.4-1v-.5l.1-.7a3.7 3.7 0 000-.3v-.2l.7-.2 2-.3a15.7 15.7 0 012.4.3l.2-.2h.2s.2-.1 0-.2a4.6 4.6 0 00-.1 0h.3c.1 0 .1-.2 0-.2 0 0 .1-.2 0-.2h-.1V38h.2l-.1-.1h-.1l-.1-.2a11.4 11.4 0 00-1-.3 7.7 7.7 0 00-.6-.1 7.5 7.5 0 00-1.5 0 8.1 8.1 0 00-.3 0 7 7 0 00-.5 0 7.3 7.3 0 00-1.3.4h-.1a6.2 6.2 0 00-.3.1 4.5 4.5 0 00-.2-.5v-.1h.1A13 13 0 01644 36a12.3 12.3 0 012.6-.9 11 11 0 012-.3zm-25.2 1.7c0 .2.1.4.3.5.4.8 1 1.5 1.7 2.1a5.5 5.5 0 00-.5 0l-.9.2h-.1a5.8 5.8 0 00-1.7.8 4 4 0 010-.5 9 9 0 01.6-2.3 7.2 7.2 0 01.6-.8zm-.2-6.2l.7.2 1.2.3 1.7.7a13.3 13.3 0 013.6 2.4l.5.6.7.8.2.1h-.2v.3h.2v.1a.7.7 0 00.1 0l-.2.3v.1a.8.8 0 00.2 0v.1l.4-.1-.8 1.2a9.4 9.4 0 00-.3-.3h.2l-.1-.1a5.1 5.1 0 00-1-.7 4.6 4.6 0 00-.8-.4l-2-.8h-.3c-.1 0-.3 0-.2.2a1.6 1.6 0 00-.1 0h-.1l-.3.3c-.1 0-.2.2 0 .2l.1.1h.2a2.8 2.8 0 00-.1.2l-.1.2h.1v.2c.9.2 1.6.6 2.4 1a7.2 7.2 0 001.8.6l.2-.1h.1a4.9 4.9 0 00-.2 1 1.4 1.4 0 000 .1 12.8 12.8 0 00-.4 0 15 15 0 00-2.6 0l-1-.6a12 12 0 01-.3-.3l-1.5-1.6a10.9 10.9 0 01-1-1.8 11.4 11.4 0 01-.8-1.8l-.2-1.7a4.8 4.8 0 010-.3v-.7zm8 7.4h.2v.1h-.2a.4.4 0 000-.1zm-7.8-9h-.5.5z" fill="#2B283A"/><path fill-rule="evenodd" clip-rule="evenodd" d="M629.9 77.3c.8-.3 1.5-.9 2-1.6.2-.2.2-.4.2-.7a1 1 0 00-1.2-.8 1 1 0 00-.6.4 3 3 0 01-1.2 1c-.4.2-.9.3-1.4.3-1-.2-1.6-.7-2.4-1.4l-.2-.3a.4.4 0 00-.2-.1.5.5 0 00-.3 0 .5.5 0 00-.3.2.4.4 0 000 .2 3 3 0 001 2c.6.5 1.4 1 2.1 1 .9.2 1.7.1 2.5-.2zM627 65.9c-.9.6-2.2 1.8-1.3 3.2 1.2 1.2 2.8-.2 3.6-.8.7-.5 1.6.7.9 1.3-5.8 4.3-8.1-3.5-3.6-4.3.5 0 .7.5.4.6zm10.4-5c-.1-1.1-2-1.4-2.2-.2-.1 1 0 2 .5 3s1.7.5 1.8-.3l-.1-2.4zm-14.2-.5a1 1 0 00-1-.4c-1.4.4-1 2.4-.5 3.4.2.5 1 .6 1.5.2.6-.8 1-2.3.1-3a1 1 0 000-.2zm12.6-4.7h-.3c-.6-.2-1.5-.3-2 .2-.2.3-.3.9 0 1.1.6.5 1.3.3 2 .4a8 8 0 011.8.3c1.2.3 2.3 1 3.4 1.7 0 .1.2 0 .2-.2a7 7 0 00-3-2.8c-.7-.3-1.4-.6-2.1-.7zm-11.3-.6h-.2c-1.8.4-4.2 1.2-5 3v.3l.1.2h.1l1-.5.4-.1 1.2-.5a14 14 0 012.7-.6l.5-.2c.1-.1.3-.3.3-.5v-.7a.9.9 0 00-.5-.3 1 1 0 00-.6 0z" fill="#2B283A"/><path fill-rule="evenodd" clip-rule="evenodd" d="M746.2 156c-2.3-.1-1.4-4-1.2-5.4 1.7-5.3 1.3-11 2-16.5l1.5-15.3c1-10.5 7.5-31.6 15-35 1-4.2 5-8 9.9-8 3.4-4 7.5-7 12.7-6.3 2.2 0 4.3 2.4 6.3 2.8 1.2.2 11.5-.3 13.5 1 1.5.7 2.8 2 2.3 3.8-.6 2 1.5-.2 5.8 2 9 5.4 3.6 12.6 3.4 12.8 5.5 7.7 10.4 14 12.6 23.4 1.5 7 1.3 14.2 2.6 21.3a62 62 0 001.8 7.2c.7 3 1.1 10.8 1.5 10.9.8.2-.4 1.8-1.2 1.8-22.9 3.7-46.1.1-69.1-.5-6.5-.2-13-.3-19.4 0z" fill="#fff"/><path fill-rule="evenodd" clip-rule="evenodd" d="M780.8 92.6h-.2l-.1 1.5-.5 5.7a147.1 147.1 0 00-.4 7.2c-.2 8.3-.2 16.6-.2 25a942.1 942.1 0 00-5.7-.5h-2l-.8-.1c-.5 0-1.1-.2-1.5.3-.1.2-.2.4 0 .7.3.5.8.5 1.3.5h1.6a328.2 328.2 0 007 .3c0 3.5.2 7 .4 10.5v1.6l.8 12.8c0 .3.5.3.5 0a608.4 608.4 0 001-25h14.1a.1.1 0 000 .1c-.4.8-.4 1.8-.4 2.6 0 1 .1 1.9.4 2.8.7 3.3 2.8 6.3 5 8.7h.1c.6.7 1.2 1.2 1.5 2 .4.7.5 1.6.7 2.4l.6 3.1c.3 1 .3 2.4 1 3 .8.7 1.7.4 2-.5.3-.6 0-1.3 0-2l-1.3-5a9 9 0 00-.9-2.5c-.4-.7-1-1.3-1.7-1.9a21.6 21.6 0 01-5.7-8c-.3-.7-.6-1.5-.7-2.3l-.4-2.3v-.2h-.1l-3.7-.3a876 876 0 01-9.9-.6h-.5l-.1-14c0-4.3 0-8.6-.2-12.8 0-2.2-.2-4.3-.4-6.4l-.6-6.4zm34.7 24.7c0-.2-.3-.4-.4-.2a18.4 18.4 0 00-2.7 8 47 47 0 000 7.8l.5 8.2.2 4.2.7 10.5c0 .7.2 1.4.9 1.8l.3.2c.3.2.8 0 1-.3h-.1l.2-.1.2-.3c.2-.2.3-.4.3-.7v-1.2l-.5-6.9-1-16a89.3 89.3 0 01.4-15zm-13.6-46.1h-.1a15 15 0 00-9.4 1h1c2.9 0 5.8-.1 8.6.6h.3c1 .3 2.1.6 3 1.3.7.6 1.1 1.6 1.5 2.5v.2a5 5 0 001.8 2.3c1 .7 2.4.7 3.6.8 2.2.1 4 1.7 5 3.7.5 1.2.7 2.5.7 3.8v2l-.4 1c-.3-.1-.6 0-.7.3a48.6 48.6 0 00-13.6-9 .9.9 0 01.4 0h.1c-.6-.7-1.3-.8-2-.6a18.1 18.1 0 00-.4-.2s-.1.1 0 .2h.1c-.7.3-1.5.8-2 1.2-1.7 1.1-3.2 2.5-4.7 3.8l-.3.3a31.8 31.8 0 01-6.6 4.5c-.7.3-2 .5-2.3 1.3-.3.4-.2.8.2 1 .6.8 1.8.3 2.5 0 1-.3 1.8-.7 2.6-1.2 1.5-.9 3-2 4.3-3.2l4.1-4 1.8-1.7.3-.3 1.2-1 2.6 1.6A62.2 62.2 0 01815 91c3.6 3.5 6.6 7.5 9.3 11.7l.2.3a34.7 34.7 0 015.9 16.7l.7 9.3c.3 3.1 1 6.2 1.7 9.3l.2.7a62.5 62.5 0 012 13c0 1.5-.3 3-.4 4.5-.1.6.5 1.1 1 1.2.6 0 1-.3 1.2-.9a23.5 23.5 0 00.1-10.7c-.6-3.6-1.6-7-2.4-10.5-.8-3-1.3-6.1-1.5-9.2-.3-3.3-.5-6.5-1-9.8a32 32 0 00-2.8-9.1 62.8 62.8 0 00-11.3-15.8l.7-.2c.6-.4 1-1.2 1-2a14 14 0 00-.2-5c-.7-2.7-2.5-5-5.2-6a7 7 0 00-2-.3c-.8 0-1.5 0-2.2-.2-1-.3-1.4-1.5-1.8-2.5a6.2 6.2 0 00-2.2-3 10 10 0 00-4-1.3zm-29.7 4.7c-1-.4-2.1 0-3 .2a8.4 8.4 0 00-4.8 4.2l-.1.1c-.5 1-1 2.3-.8 3.3-1.8 1-3.5 2.1-5 3.6A28 28 0 00754 93a60 60 0 00-6.4 27.6l-.2 2.4c-.3 5.1-.6 10.3-1.6 15.4v.4c-1.1 5.3-2.6 10.6-2.4 16.1 0 1.7 2.4 1.6 2.5 0 .3-6.1 1.7-12 2.7-18 1.7-10.6.8-21.6 3.2-32a43.4 43.4 0 018.1-17c1.2-1.3 2.5-2.6 3.9-3.8.4.5 1.3.2 1.5-.4l.3-1.4c0-.5.2-1 .4-1.3a7.9 7.9 0 013.6-4.1c.8-.5 1.7-.6 2.6-1zm-3.6 56.6h-.1c-.4.3-.6.7-.8 1a22.3 22.3 0 01-2.9 3.7 28.5 28.5 0 01-2 2l-2.3 2c-1.5 1.7-1.7 3.9-2 6v.1l-.6 3.7-.2 1.8v.2c0 .6 0 1.1.3 1.7.3.5 1.1.7 1.6.2.8-1 .7-2.5.8-3.7 0-1 .2-1.9.3-2.8v-.5l.6-3.3c.2-1 .6-1.6 1.3-2.3l2-2a20.4 20.4 0 003-5h.1c.3-.9.9-1.9.9-2.8zm-12-34c-.1-.2-.3-.2-.3 0v2.8c-.2 7.7 0 15.3-.9 23a94 94 0 01-1.8 10.7l-1.2 5.4c-.4 1.8-.8 3.6-1 5.3-.4 1.8-.6 3.6-.8 5.3v.3c0 .8-.3 2 .2 2.8.5.9 1.5.9 2 0 .6-.6.4-2 .5-2.8a136.1 136.1 0 011.1-8c.6-3.6 1.5-7.2 2.2-10.8a60 60 0 001.2-11.2c0-3.8-.4-7.5-.6-11.3l-.7-11.6zm36.2-24c-.2-.6-1-1-1.6-.9-.7.2-1.2 1-1 1.7.3.7.8 1.3 1.2 2 .4.6 1 1.1 1.3 1.7l-.4.5-.7.6-.7.8a71.7 71.7 0 01-8.6 7.5l-.2.1c-.3.2-.7.4-1 .4-1 0-1.8-1-2.5-1.7-1.6-1.5-3-3.2-4.3-5a36.2 36.2 0 01-.9-1.2c.7-.7.5-2.1.5-3v-2c0-.4.1-.7-.2-1-.4.1-.5.4-.6.8l-.6 1.3-.5 1.3a28 28 0 00-.4 1l-.2.2c-.2.1-.3.3-.4.6-.2.5.2 1 .5 1.5a36.4 36.4 0 006.5 7.5l.1.2c.8.6 1.6 1.2 2.6 1.4 1.2.1 2.1-.4 3-1.1A50.2 50.2 0 00791 83c1.3-1.6 2.7-3.4 3.5-5.4 0-.1 0-.2-.2-.1l-1.2 1.2v-1.9c0-.7 0-1.5-.2-2.2z" fill="#2B283A"/><path fill-rule="evenodd" clip-rule="evenodd" d="M760.6 58.3c.8-5.4 2.5-10.7 2.7-16.2l.5-7c0-1.5 2-2 2.6-.7 1.7-1.8 4.7-1.5 7-1.5 13.2.5 25.9 9.5 30.5 22l-.1 1c2.1 7-5.4 11.6-10.5 14.8a25.6 25.6 0 01-17.5 7.7c-.8 0-1.3-.6-1.4-1.2-1-.3-3 0-3.6-1.1a17.4 17.4 0 01-10.2-17.8z" fill="#fff"/><path fill-rule="evenodd" clip-rule="evenodd" d="M763.8 39.1c0-.2-.3-.2-.3 0-.4 1.1-.9 2.3-1.2 3.5a102.9 102.9 0 00-1.8 9.4c-.7-.5-1.4-.5-2.2-.1-.3.1-.5.6-.4 1l.3.8-.6.7c-.3.6-.2 1.4.1 2a3 3 0 000 .2c-.5.8-.2 1.6 0 2.4.3.7.2 1.4.7 1.8a4.8 4.8 0 001.2 2c0 1 .2 1.9.4 2.8.7 3.6 3 6.7 5.7 9a18.5 18.5 0 0014.5 3.7h.2c1.5-.3 3.4-.8 4.4-2 .6-.6.3-2-.7-1.8-.5 0-1 .2-1.5.4a17.1 17.1 0 01-3.5.9 17 17 0 01-13-4.1 12.8 12.8 0 01-4.3-8.9c-.3-3.9.2-7.9.6-11.8.1-2 .4-4 .7-6l.7-5.9zm23-12.6h-.2a27 27 0 00-15 1.4c-.8.3-1.7.8-2.5 1.4l-1.8-.1c-.8 0-1.5.3-1.6 1-.7.2-1.3.4-1.7 1a1.6 1.6 0 00-.3.6l-1.3.5c-.5.2-.7.9-.6 1.4l.2.3v.1c-.4.7-.1 1.5.5 1.9.4.2.9.5 1.4.6l-.1.6s0 .1.1 0l-.4 1.2c-.1.3.2.5.3.2l1-2c.2 0 .5 0 .8-.2.2 0 .3-.2.4-.4 1 1.3 2.8 1.7 4.2 2 1.6.5 3.1.7 4.7 1l8.3.4h.5a7.6 7.6 0 006.6 1.7c.3.3.6.6 1 .7.1 1.5 1 3 2.3 3.9-.3 1.4-.3 2.9.9 3.8.1.1.3.3.5.3v.1c-.7 1.5-.9 3 .3 4.2a1 1 0 001.6-.2v-.1l.2.1c.5.2.6 0 1-.1a6.2 6.2 0 012.1-.6c2 .8 3.4 3.2 3 5.4 0 1.2-.8 2.5-2 3-.4.2-1 .3-1.6.2-.7 0-1.3-.6-2.1-.3-.3.1-.5.4-.5.7 0 .5.1.9.5 1.2-.6.4-1 1-1.5 1.6a32.5 32.5 0 01-3.8 3.3c-.9.6-2 1.1-2 2.3 0 .3.2.6.5.8 1 .7 2.2-.2 3-.8l1-.8.7-.1.5-.3c.5.1 1 0 1.3-.2.5.1 1.1.1 1.6 0 .4 0 .8-.3 1.2-.6a2 2 0 002-.2 2 2 0 001-1l.1-.5a2 2 0 001.6-.7c.5-.4.7-1 .7-1.5a3 3 0 001.5-1c.7-1 .8-2 .4-3a1.9 1.9 0 00.1-.1 5 5 0 00.9-2.6v-.5a1.7 1.7 0 00.4-2.7 2.4 2.4 0 00-.2-2.3 1.7 1.7 0 000-.3v-.4c.1-1.3-.8-2.4-1.8-3a6 6 0 00-1-.4c-.2 0-.5 0-.7-.2V48l-.1-.2v-.9c0-1.3 0-2.7-.2-4a16.1 16.1 0 00-6.4-11.8c-3.3-2.6-7.4-4-11.6-4.6zm15.4 31c.4-1-1.6-1-2.2-1-1.2.2-3.1.7-3.6 2-.2.5.4 1 .9.9.5-.2.7-.6 1.1-.9l.3-.2-.2.5c-.7.5.4 1.4.8.7.2-.4.3-.8.2-1.2a1.4 1.4 0 000-.4h.1c.5-.3 2.5-1.1 2.4-.4 0 .1.2.1.2 0z" fill="#2B283A"/><path fill-rule="evenodd" clip-rule="evenodd" d="M771 76.4s4.9.8 7-.3c2.3-1 4.4-2 6.4-3.3 2-1.4 3.8-3 5-5.2 1.2-2 2.2-4 3.1-6l.9-1.8c.3-.6 1.1-.4 1.1.5 0 1 0 8.3-1.6 11.2a18.8 18.8 0 01-6.7 6 28.9 28.9 0 01-10 4.2 11 11 0 01-8.8-2.9c-2.4-2.2-3-5.2-4.2-8-.3-.7.7-1 1-.5a52 52 0 006.7 6.1z" fill="#2B283A"/><path fill-rule="evenodd" clip-rule="evenodd" d="M774.1 70.4c.9-.4 1.7-1 2.2-1.7.2-.3.3-.6.2-.8a1.1 1.1 0 00-1.2-1 1 1 0 00-.7.5c-.4.5-.8.9-1.3 1.1-.5.2-1 .4-1.5.3-1.1-.1-1.8-.7-2.6-1.5a23.3 23.3 0 01-.3-.3.4.4 0 00-.2-.1h-.3a.5.5 0 00-.3.2.5.5 0 000 .3c0 .8.4 1.5 1 2a4.8 4.8 0 005 1zm-3-12.4c-1 .6-2.5 2-1.5 3.4 1.3 1.3 3-.2 3.9-.8.8-.5 1.7.8 1 1.4-6.3 4.6-8.9-3.8-4-4.7.6 0 .8.5.5.7zm11.2-5.4c-.2-1.3-2.2-1.6-2.4-.3-.1 1.2 0 2.3.6 3.3.5 1 1.8.6 1.9-.4l-.1-2.6zm-15.4-.5c-.3-.4-.7-.7-1.2-.5-1.5.4-1 2.6-.5 3.6.3.6 1.2.7 1.7.2.6-.8 1-2.4 0-3.2a1 1 0 000-.1zm13.6-5.2h-.2c-.8-.2-1.7-.3-2.2.3-.3.3-.4.9 0 1.2.6.5 1.4.3 2.2.3.6 0 1.2.2 1.9.4a13 13 0 013.6 1.9c.2 0 .3-.1.3-.3-.7-1.3-2-2.4-3.3-3-.7-.4-1.5-.7-2.3-.8zm-12.2-.6h-.2c-2 .4-4.6 1.3-5.5 3.2v.4l.2.1 1.2-.4.4-.2 1.2-.6 3-.6.6-.2a.9.9 0 00.3-.5l-.1-.8a1 1 0 00-.5-.4 1 1 0 00-.6 0z" fill="#2B283A"/><path fill-rule="evenodd" clip-rule="evenodd" d="M760.2 58.3a5 5 0 005.3 1c4.6-1.9 2.3-8-1.2-9.5l-1.6-.5h-.2c-4 .5-4.8 6.5-2.3 9zm14.7.3c1.5 2 4.3 2.7 6.6 1.7 4.5-1.8 2.9-7-.2-9.2-6.5-2.5-9.2 3.8-6.4 7.5zm9.7-4.4zM757.1 52c.3 0 .9 0 1.2.3.7-2.5 3.5-4.9 5.9-3.2 1.9.6 3.3 2 4 3.8 1.5-.8 3.8-.5 5 .7.9-2.8 2.9-3.7 5.3-3.9 2.6-.4 5.2 2.2 6 4.2.7 0 1.7-.3 2.3.2A34.6 34.6 0 01799 53c.6.2 1 1.6.1 1.7-.7 0 .1-1-.6-1.1-4-.3-7.7.5-11.6.9-.4.4-1.5.6-2 .4.9 3.5-1.2 5.9-4.2 6.6-4.7 1-8.8-3.2-7.6-7.6-1.4-.7-3-.7-4.6-.3 2.6 9.6-12.7 9.2-10.3-1-1.6.9-2-.4-1.1-.6z" fill="#2B283A"/><path fill-rule="evenodd" clip-rule="evenodd" d="M761.8 141.8c.4 3.1 1.2 6.6-.3 9.6 1 0 .2.3-.4.4-.2.3-.6.3-1 .3-2 .4-3.9.6-5.8.8-24.2 2-48.5 1.5-72.7.6-.7 0-1.3-.6-1.3-1.4a350 350 0 01-1.3-34c.4-4-2.7-2.4-1-7.7a74 74 0 015.6-16c1.7-3.4 3.3-7 5.9-9.7.8-.1 1.5-1 2.2-1.4.6-.1 1.2-.7 1.9-.9 1.3-.3 4.3-1 5.5-.2h.1c.2.2.5 0 .7-.2.6-.4 3-.5 3.4-1.1 1.4-1.4 1.8-4.2 1.8-5.9.6-.6.6-.5 1.4-.8a10 10 0 012.6-2.4c5.6-3.6 13.7.2 15 6.6a23 23 0 006.7 4.1c1.3-.6 2.7-.8 4-.8 1 0 2.3-.6 3 .4 10.6 3.5 17 13.7 21.7 23.3.6 1.4 1.4 2.8 1.2 4.4-.1 1.9-2.2 3-1.8 5l1.8 16.3 1.1 10.7z" fill="#fff"/><path fill-rule="evenodd" clip-rule="evenodd" d="M683.6 115.7c.7.3 1.7.5 2.2 1.1l.2-1.6h-4.4l2 .5zm3.2 33.1l1.5.1a2665.1 2665.1 0 0020.4.7l23.3.6 6.4.3c1.1 0 2.2 0 3.4.2l2.7.4-.1-3.6-.2-3.4c-3.6.2-7.3.2-11 .3l-11.4.1-22.9-.1-6.4-.1h-4.9c-.5 0-.9-.2-1.3-.6-.2-.2-.2-.7 0-.9.3-.2.6-.5 1.1-.5h4.4l5.8.1 11.5.2c3.7 0 7.5 0 11.3.2 3.8 0 7.7.3 11.5.4l12.3.6-.3-6.4a462.8 462.8 0 01-49.7.4h-3.6l-1.8-.1c-.5 0-1 0-1.4-.3-.8-.4-.9-1.7 0-2 .6-.2 1.1 0 1.3.5h1.4l3 .1a1283.2 1283.2 0 0016.9.4l22.4.4 11.5.3-.3-6.9v-.8l-1.7.3c-1 0-2 .2-2.9.3l-5.5.4a463.8 463.8 0 01-33.7.7l-12.2-.1h-.8l-.6 10.8-.5 7.3c.4-.2.7-.3 1.1-.3zm70.3-36.6c.7-.4 1.5-.7 2-1.2.8-.5 1-1.1.7-2v-.2l-15.2-.3a859.2 859.2 0 00-57.1.5v5.1h5.8c4.8-.1 9.6 0 14.3.1l28.7.7 7.8.2.3-1.3c.2-.6.4-1.3.9-1.8.3.6.2 1.2.2 1.8l-.1 1.4c1.6 0 3.2.2 4.8.4l1.4-.7c1.8-1 3.6-1.8 5.5-2.7zm-58.7 16.7h11.3c7.5 0 15-.2 22.4-.4a323.4 323.4 0 019.4 0h2v-6.4c-7.2 1-14.4 1.3-21.6 1.6a781 781 0 01-31 .3h-1.7c-.5 0-.9-.2-1.3-.6a.5.5 0 010-.8c.7-.7 1.6-.5 2.5-.5a635.8 635.8 0 0019 0c7.4 0 14.7-.2 22-.4l12 .1a65.2 65.2 0 01.4-5.1l-6-.1a1953 1953 0 01-28.4-.5c-4.8-.1-9.5-.1-14.2-.4l-7.7-.4v.7a294.2 294.2 0 01-.4 12.7l11.3.2zm59.7-25l-1.5-3.3c-2.1.6-4.4 1-6.6 1.2a97 97 0 01-7.1.4c-4.7 0-9.4-.2-14-.4a733 733 0 00-43.1-.5h-1l-1-.3c-.4-.2-.7-.9-.2-1.1.6-.3 1-.4 1.6-.4a607.8 607.8 0 015.6-.1 575.8 575.8 0 0121.5.1c9.6.2 19 .9 28.6 1.2h8c2.5 0 5-.3 7.6-.4l-3-5.4a194.3 194.3 0 01-19.4-.3h-3.4l-1.6-.1c-.6 0-1.2 0-1.7-.2l-.3-.1a32 32 0 01-15.7 2.9c-3-.3-5.9-1-8.4-2.4-5.9.5-11.8.2-17.6.2-.6 0-.8-.5-.7-1a80 80 0 00-4.3 12.7l-2 8h.1c0-.3 0-.6.5-.6h7.1l.2-1.7.3-2.4.1-.9-5.6.2c-1.2 0-1.2-1.9 0-1.9l30.9-.8c10.3-.2 20.6-.3 30.9.2 5.6.3 11.2.7 16.7 1.7l-1.5-4.5zm-8.8-14.2c-.2 0-.2.2-.5.2l-1 .1-2 .1-3.8.2c-2.6 0-5.3.2-7.9 0-.6 0-.9-.5-.8-1a15.2 15.2 0 01-1.6 1.7c-1 .9-2 1.6-3 2.3h2a11609.7 11609.7 0 0110 .5c4.3.2 8.4.5 12.6.9a35.4 35.4 0 00-4-5zM681 98.4c1.8-4.9 4-10 8.2-13.3 2-1.7 4.4-2.9 7.1-3.5 0 0 .1.1 0 .2-4.6 1.5-8 5.5-10.3 9.6l-1.2 2.3c.2-.2.3-.3.6-.3 5.4.1 11 0 16.4.5l-.4-.2a18 18 0 01-4-3.9c-.6.2-1.3.3-2 .3l-2.7.2h-2.8c-.6 0-1.8.2-1.8-.8s1.2-.8 1.8-.8h2.8l2.6.2c.5 0 1 0 1.6.2a16.1 16.1 0 01-2.4-5.4c0-.6.5-1 1-1 2.3-.3 4.7-.6 6.5-2 .8-.8 1.5-1.5 2-2.4.8-1 1-2 1-3.2 0-.1.1-.1.1 0 .4 2.3-.1 5-1.8 6.7a10.5 10.5 0 01-6.1 2.7c.9 2.7 2.4 5 4.6 6.9 2.4 2 5.5 3.1 8.6 3.6 3.4.4 6.9.2 10.2-.5a22.4 22.4 0 0012.5-7.5c.8-1 1.5-2.2 2.2-3.4-2.7.8-6-.2-8.4-1.7a13.6 13.6 0 01-5.3-6.4 2 2 0 01-.2-.7l.1-.6c.2-.2.3-.2.1-.2.2-.4.8-.5 1.2-.2l.6.4.2.6a10 10 0 001.4 2.7 13.2 13.2 0 006.6 4.7c1.4.4 2.8.5 4.2.7.1-.1.2-.1.2 0 .2.1.2.4 0 .5a9.5 9.5 0 01-1.3 3.8l-.9 1.4a1 1 0 01.3 0c2.6-.1 5.3 0 7.9.1l3.8.2 2 .1 1 .1a29.7 29.7 0 00-12.4-7.4c7.1.7 13 5.2 17.2 10.8a49 49 0 017.7 15.7c.3 1 .4 2 0 2.9-.4.7-1 1.2-1.6 1.6l-.2.1c.7 2.3 1.1 4.7 1.6 7a172.7 172.7 0 012.8 29.8c0 .8 0 1.7-.4 2.5-.5 1-1.6.6-2 0a2.3 2.3 0 01-.2-.3 1.1 1.1 0 010-.3c-.2-.5-.1-1-.1-1.4v-2a147 147 0 00-.5-11.7l-1.5-15.3-.6-7.8-1.8 1c-1.1.5-2.3 1-3.4 1.7l-3.3 1.6c-1 .6-2.2 1.3-3.4 1.4-.7.1-1-.8-.5-1.2.5-.5 1.1-.9 1.8-1.2h-2.7v3.5l.6 8.4c.4 5.8.8 11.6 1 17.4l.3 4.3v2c.1.8 0 1.8-.6 2.3-.5.3-1 .2-1.5-.3-.5-.6-.5-1.5-.5-2.3v-.5l-2.4.3-2.9.2h-5.8l-11.7-.1a1568.8 1568.8 0 01-33-1c-1 0-2.2.2-3.2-.4v1c0 .7-.5 1.2-1.2 1.2-.6 0-1.2-.5-1.2-1.2l1.2-17.2 1.2-15.8a1 1 0 01-.5.2c-.7 0-1.4-.4-2-.7a21 21 0 00-3.3-.8v2.5l.2 3.7.1 7.5a435.5 435.5 0 001 21.3c0 .7.1 1.4-.2 2.1-.2.6-1 .9-1.4.2-.6-1-.5-2.5-.5-3.7a317.4 317.4 0 01-.2-26.4l.3-4.2.3-3-2.4-.3c-.8 0-1.3-.7-1.1-1.4a136 136 0 015.1-17z" fill="#2B283A"/><path fill-rule="evenodd" clip-rule="evenodd" d="M693.3 47c0-3 .2-6.1 1.7-8.8a29 29 0 015-6.8c.9-.8 2-1.7 1.8-3 0-1.3-.9-4.2-1-5.6-.2-2.7 1.7-3.4 4-4.7 2.6-1.5 5.8-1.3 8.8-.6 5.4 1.3 11.9 3.4 14 9.2.5 1.4.3 3 .4 4.4.1 1.4.7 2.7 1.2 4a40.5 40.5 0 012.3 19.9c1.5.3 3 1.5 3.3 3 .5 2.8-2.3 4-4 5.5-2 1.8-3.6 4.1-5.5 6.1-12 13.4-38.8 7.2-33.3-13.6.8-3 1.4-6 1.3-9z" fill="#fff"/><path fill-rule="evenodd" clip-rule="evenodd" d="M717.3 17.7c-3-1.1-6.3-1.6-9.5-1.2a16.8 16.8 0 00-7.2 2.7c-.6.4-1.1 1-1 1.6a.8.8 0 000 .4l1.6 7.2.3 1.6a23.2 23.2 0 00-8.7 11.3c-1.3 4.6-.7 9.3-1.2 14 0 1-.3 2.2-.6 3.2-.3 1.2-.8 2.3-1 3.4-.6 2.4.2 4.6 1.4 6.6 2.3 3.7 5.7 6.8 9.7 8.4a18 18 0 006.5 1.3 12 12 0 006.5-1.8c1.2-.8.2-2.5-1.2-2l-.3.2c-1 .4-1.8.8-2.8 1-1.1.2-2.2.2-3.4.2-2.1-.2-4.2-.9-6-2-1.7-1-3.3-2.2-4.6-3.6l-.1-.2a16 16 0 01-3.3-4.6c-.4-.9-.6-1.8-.4-2.8.2-1.1.6-2.1 1-3.2.5-2 .7-4.2.7-6.3V53c.1-4.4-.2-8.7 1.3-12.9 1.4-3.7 4.3-6.6 6.6-9.7l.4 1.5.4 1.9v.4h.1c.1.3.3.6.7.7.4 0 .6-.1.8-.4h1.8c1.2 0 2.5.2 3.6 0 .2 0 .2-.3 0-.4-1-.3-2.3-.3-3.5-.4l-1.7-.2a7.6 7.6 0 01-.3 0l-.7-2.8-.7-3.2-1.3-6a15 15 0 014.2-.4h.2a3 3 0 011.6.4c.6.4.6 1.3.8 1.9l.8 5.3.3 2.5v1.2l.3 1c0 .6.7 1.2 1.1.7.5-.6 1-1.3 1.6-1.8.6-.6 1.2-1 2-1.5a17.7 17.7 0 014.5-1.9c1.6.5 3.1 1 4.6 1.9 3.3 1.8 6 4.9 6.9 8.6a27.5 27.5 0 01.6 10.3c-.2 1.2-.7 2.3-1 3.5-.1.3 0 .5 0 .8-.8 0-2.2.4-2.3 1.2 0 .2 0 .4.3.4.4 0 .6-.3 1-.5h.1c2-1.1 4.3.5 4.7 2.4.4 1.8-.2 3.9-2 4.7-.8.4-1.8.6-2.6 1.2-.7.4-1.2 1-1.8 1.6l-2.8 4.1a9 9 0 01-1.4 1.7c-.6.5-1.5.7-1.7 1.6-.1.3 0 .7.3.8 1.1.6 2.3-.4 3-1.1.8-.8 1.5-1.6 2-2.5 1-1.5 1.8-3.2 3.2-4.3.9-.7 2-1 2.9-1.5 1-.5 1.9-1.4 2.3-2.5.9-2.1.7-4.7-1-6.4-.5-.5-1.1-.9-1.8-1a19.7 19.7 0 001.2-8.5V45c-.1-2.6-.4-5.2-1.3-7.6-.8-2-2-3.8-3.5-5.3a16.7 16.7 0 00-.5-.5h.1c.4-.5.3-1.2.3-1.8l-.3-2a13.8 13.8 0 00-8.9-9.6 19.1 19.1 0 00-1.9-.6zM732 57.4c-.7-.4-1.7-.3-2.5 0-.8.4-1.7 1-2 2-.4.7.8 1 1.2.5l.7-1a1 1 0 01.1 0c.2.2.4.4.6.4.2 0 .5-.2.5-.4.1-.3 0-.6-.2-.7.5-.4 1-.4 1.6-.7 0 0 .1 0 0 0zm-19.5-38.6c3.7 0 7.7 1 10.4 3.6a14.1 14.1 0 013.7 6.5l.2 1.4v.4a12 12 0 00-9.5-2.4v.3h.5c-1.5.1-3 .6-4.2 1.3-1.3.6-2.6 1.6-3.6 2.8l.1-.5v-1.4l-.2-3v-.5L709 22c-.2-1-.8-1.6-1.5-2a9.6 9.6 0 014.8-1.2zm-6.8-.5a15 15 0 015.1-.7c-.6.1-1.2.4-1.8.7-.7.4-1.3 1-1.7 1.6-.4-.2-1-.3-1.4-.3-1.2 0-2.4 0-3.6.2a14.4 14.4 0 013.4-1.5z" fill="#2B283A"/><path fill-rule="evenodd" clip-rule="evenodd" d="M696.3 73.5l1.2-.4c2-1 4.3-1.2 6.4-.3 1 .4 2 1.1 3 1.6l.7.2A21.6 21.6 0 00711 73l.3-.4-2-.5c-2-.5-3.8-1.4-5.7-2a9 9 0 00-5.5 0c-.9.2-1.6.8-2.5 1.1-.4.2-1 .4-1.4.4a7 7 0 001.3 2.1l.7-.2zm-4.1-6c.1 0 .8.5 1 .8h.3c0-.2.2-.2.4-.2 1-.5 2-1.2 2.8-2.1.6-.6 1.2-1.3 2-1.6 1-.5 1.9-.3 2.9-.2 1 0 2-.2 3.1 0 .8 0 1.5.4 2.1.8 1.3 1 2.2 2.3 3.3 3.4a9 9 0 004.3 2.5h.1a23 23 0 003.3-3.7c1-1.3 3.5-7.2 4.1-7.7l.8-.3c.5 0 1 .3 1.2.9.3.8.1 2 .1 3a46 46 0 01-.2 3.4 49.9 49.9 0 01-.5 3.4 44.6 44.6 0 01-.3 1.7 3 3 0 01-.2.4l-.2.9a9.8 9.8 0 01-2.4 4.9 17.6 17.6 0 01-5 3.1 34 34 0 01-5.3 2c-1.5.7-3.2 1.3-4.9 1.6-1.8.3-3.8.3-5.6-.3a9.8 9.8 0 01-2.4-1.3c-1-.6-2-1.3-2.8-2.3-1.4-1.8-2-4-2.4-6.3l-.4-3.1-.2-3.4c0-.5.6-.6 1-.4z" fill="#2B283A"/><path fill-rule="evenodd" clip-rule="evenodd" d="M703.8 70.4c.9-.4 1.6-1 2.2-1.7.2-.3.3-.6.2-.8a1.1 1.1 0 00-1.2-1 1 1 0 00-.7.5c-.4.5-.8.9-1.3 1.1-.5.2-1 .4-1.5.3-1.1-.1-1.8-.7-2.6-1.5a18 18 0 01-.3-.3.5.5 0 00-.2-.1h-.3c-.2 0-.2 0-.3.2a.5.5 0 000 .3c0 .8.4 1.5 1 2a4.8 4.8 0 005 1zm-3-12.4c-1 .6-2.5 2-1.5 3.4 1.2 1.3 3-.2 3.9-.8.8-.5 1.7.8 1 1.4-6.3 4.6-8.9-3.8-4-4.7.6 0 .8.5.5.7zm11.2-5.4c-.2-1.3-2.2-1.6-2.4-.3-.2 1.2 0 2.3.6 3.3.5 1 1.8.6 1.9-.4l-.1-2.6zm-15.4-.5c-.3-.4-.7-.7-1.2-.5-1.5.4-1 2.6-.5 3.6.3.6 1.2.7 1.6.2.7-.8 1-2.4.2-3.2a1 1 0 000-.1zm13.6-5.2h-.2c-.8-.2-1.7-.3-2.2.3-.3.3-.4.9 0 1.2.6.5 1.4.3 2.2.3.6 0 1.2.2 1.9.4a13 13 0 013.6 1.9c.2 0 .3-.1.3-.3-.7-1.3-2-2.4-3.3-3-.7-.4-1.5-.7-2.3-.8zm-12.2-.6h-.2c-2 .4-4.6 1.3-5.5 3.2v.4l.2.1a5.7 5.7 0 001.2-.4l.4-.2 1.2-.6 3-.6.6-.2a.9.9 0 00.3-.5l-.1-.8a1 1 0 00-.5-.4 1 1 0 00-.6 0z" fill="#2B283A"/><path fill-rule="evenodd" clip-rule="evenodd" d="M688 54.7c1 7.2 8.4 8 9.7.8-.2 0-.4-.2-.3-.6 0-1.5-.5-3.2-1.9-4-1.4-1-3.1-1-4.8-1-3.1 0-3 2.6-2.7 4.8zm10.8-3.1c1 0 2.3 0 3.2.6.2-.7.9-1.4 1.5-1.8-2.4.1-4.8-.1-7.2-.3.5.4 1 1 1.4 1.7.3-.2.8-.2 1.1-.2zm4.4 3.9c2.8 9.5 9.6 5.4 10.4 4.1 1.3-2 1.6-7 .4-8.3-1.7-1.1-4-.8-6-.9-3.7 0-6.3 1.2-4.8 5zM684.8 51a4 4 0 012.2.2 3 3 0 011.6-2c.1-.2.1-.2.4-.2 2-.6 4.1-.3 6 .3l9 .8c2.7-1.3 11-1.4 11.5 1.6.7 0 1.8-.6 2.3.1 4-.7 8.2.3 12.2.7 1 .2 1.6 2.3.4 2.2-.6-.2 0-1.2-.8-1.3-4-.5-7.7-1-11.7-1.1.2.6-2.6.7-2.6.3.7 2.5 0 6.2-1.2 7.8-1.7 2-6 2.7-7.9 1.3-2.5-1.2-5-7.4-4.3-9.4a8.4 8.4 0 00-4-.1c.4.9.9 3 .1 3.3.2 4.3-3.7 7-7.3 5.2-3.1-1.5-4.2-6.1-3.8-9-.4.8-3.7 0-2.1-.7z" fill="#2B283A"/></svg>