<svg width="1476" height="2424" viewBox="0 0 1476 2424" fill="none" xmlns="http://www.w3.org/2000/svg">
<path fill-rule="evenodd" clip-rule="evenodd" d="M302.537 2352.83L302.877 2353.31C315.298 2370.71 329.04 2383.81 343.624 2390.52L344.114 2390.75L344.159 2390.77C348.317 2393.2 351.768 2397.04 353.122 2400.99C354.706 2405.61 353.366 2409.97 348.866 2413.16L348.729 2413.25L348.706 2413.27C343.042 2416.97 336.358 2419.27 329.792 2419.73L329.549 2419.74L329.231 2419.76L328.959 2419.59C327.217 2418.52 325.543 2417.9 321.964 2416.88L320.456 2416.45L319.834 2416.27L319.524 2416.17C318.219 2415.78 317.343 2415.48 316.426 2415.11L316.135 2414.99L315.16 2414.67C297.648 2408.74 280.35 2401.96 263.326 2394.34L262.325 2393.89L260.791 2393.2L260.755 2392.59C259.976 2379.36 260.008 2368.79 261.118 2358.84L261.154 2358.52L263.151 2358.7C262.859 2362.58 266.747 2365.87 270.42 2364.63L270.531 2364.59L270.583 2364.57L270.736 2364.53C271.771 2364.19 272.631 2363.71 274.161 2362.67L275.294 2361.9L275.582 2361.7L275.791 2361.56C275.892 2361.5 275.99 2361.44 276.09 2361.37L276.23 2361.28C282.519 2357.35 289.288 2354.7 296.162 2353.58C296.73 2353.47 297.316 2353.39 297.956 2353.3L298.664 2353.22L299.392 2353.14L301.651 2352.92L302.537 2352.83ZM418.62 2139.38L419.07 2139.86C420.559 2141.46 421.69 2143.02 422.404 2144.63C423.296 2146.64 423.485 2148.63 422.82 2150.55L422.767 2150.7L422.755 2150.73C421.636 2153.29 419.014 2155.56 413.996 2158.86L413.233 2159.36C412.429 2159.88 410.259 2161.28 409.604 2161.71L409.315 2161.91C408.135 2162.69 407.247 2163.33 406.538 2163.91L406.421 2164.01L404.743 2165.17L401.291 2167.57L398.73 2169.35L396.968 2170.58C390.233 2175.28 383.731 2179.84 377.38 2184.32L377.057 2184.54L376.803 2184.71L376.439 2184.97L375.925 2185.33L374.216 2186.55L373.874 2186.79L373.537 2187.03L373.197 2187.26L372.852 2187.5L372.513 2187.73C369.039 2190.05 366.48 2191.2 363.754 2191.36C361.813 2191.48 359.984 2191 358.283 2189.87L358.162 2189.79L358.109 2189.75L357.926 2189.59L357.773 2189.45L357.623 2189.31L357.476 2189.17C356.695 2188.41 355.984 2187.6 354.869 2186.22L353.93 2185.05L353.555 2184.59L353.278 2184.25L353.08 2184.01C352.47 2183.29 352.006 2182.78 351.482 2182.27L351.309 2182.1L350.124 2180.98L351.668 2180.43C357.897 2178.25 362.989 2171.29 365.082 2163.33L365.156 2163.05L365.171 2163C365.55 2161.94 365.686 2160.85 365.723 2159.07L365.741 2157.72L365.75 2157.27L365.758 2156.97L365.768 2156.67C365.847 2154.55 366.083 2153.33 366.756 2151.99L366.842 2151.83L366.87 2151.77L366.905 2151.72C366.947 2151.66 366.951 2151.65 366.934 2151.62L366.579 2151.02L367 2150.48C367.186 2150.24 367.391 2150.01 367.63 2149.76L367.734 2149.65L367.967 2149.41L368.299 2149.35C378.719 2147.71 389.416 2145.28 402.16 2141.81L403.443 2141.46L404.082 2141.29L404.513 2141.18L404.94 2141.07C409.155 2139.97 411.73 2139.55 414.674 2139.59L414.924 2139.59C415.196 2139.6 415.428 2139.61 415.822 2139.65L416.23 2139.68L416.417 2139.7L416.597 2139.71C417.26 2139.76 417.612 2139.73 417.957 2139.62L417.999 2139.6L418.62 2139.38Z" fill="white"/>
<path fill-rule="evenodd" clip-rule="evenodd" d="M131.292 1972.69C137.812 1971.11 138.926 1955.5 142.863 1957.72C145.139 1959.7 141.416 1963.43 140.758 1965.66L140.469 1966.23C139.133 1968.82 137.622 1971.41 134.99 1972.91C133.298 1974.69 128.24 1972.94 128.983 1975.78C131.58 1984.32 145.363 1990.23 153.486 1992.89C166.112 1997.63 186.536 1996.03 189.503 1980.15C182.577 1978.88 177.457 1966.4 181.726 1961.21C181.871 1966.25 183.252 1971.46 187.219 1974.88L187.438 1975.08C188.136 1975.72 189.039 1976.48 189.94 1976.34C190.819 1975.11 192.525 1975.81 193.027 1977.1C232.457 1983.91 241.241 2026.38 266.072 2051.38C271.032 2056.6 276.217 2061.59 281.336 2066.65C286.563 2070.79 290.263 2076.57 290.52 2083.35C290.988 2087.12 290.756 2090.89 290.256 2094.67L290.222 2095.01C289.99 2097.35 289.853 2099.87 288.737 2101.95C288.544 2102.65 288.622 2103.54 288.012 2104.04C288.279 2108.35 288.025 2112.74 287.295 2117.03L289.198 2117.88C310.132 2127.19 331.308 2135.97 353.136 2142.95C355.002 2142.61 354.849 2144.78 353.946 2145.76C354.184 2146.92 354.21 2148.13 353.931 2149.27C357.928 2149.85 361.988 2149.37 365.934 2148.64C367.182 2145.9 370.498 2146.04 373.062 2145.96C376.248 2145.77 379.428 2145.45 382.591 2145.01C390.383 2143.27 398.035 2140.99 405.752 2138.98C410.917 2137.53 416.486 2137.59 421.666 2138.93C422.546 2139.92 423.359 2140.97 424.045 2142.08C428.781 2149.42 424.115 2156.14 417.504 2159.99C406.899 2167.5 396.29 2175 385.637 2182.44L384.863 2182.99C372.189 2192.05 357.93 2203.52 351.161 2181.46C348.886 2181.2 346.892 2179.67 344.773 2178.77C345.343 2181.42 343.64 2184.09 342.466 2186.36C341.961 2187.65 340.579 2188.08 339.303 2188.07C338.211 2189.14 336.161 2188.72 335.446 2187.45C329.652 2185.79 324.865 2181.92 319.737 2178.92C312.445 2174.49 304.795 2170.72 297.398 2166.49C309.686 2217.3 306.681 2270.23 303.411 2321.95L303.388 2322.42C302.982 2329.97 301.249 2333.54 294.977 2338.17C296.07 2341.5 297.047 2344.84 297.792 2348.27C298.056 2349.06 299.267 2348.31 299.277 2349.4C301.504 2348.88 306.032 2349.44 304.453 2352.52C308.926 2356.27 311.954 2361.34 315.875 2365.62C322.781 2373.89 331.808 2380.04 340.66 2386.1C361.007 2396.46 362.173 2414.4 338.367 2420.53L338.128 2420.59C334.85 2421.37 330.902 2423.18 327.724 2421.66C322.97 2420.74 318.251 2418.89 313.6 2417.48C294.872 2411.29 276.554 2404.05 258.805 2395.72C258.162 2395.42 257.797 2394.72 257.781 2394.03C257.979 2388.32 256.425 2357 262.358 2356.32C263.683 2349.93 263.892 2343.32 263.651 2336.79C261.726 2336.19 259.78 2335.6 257.786 2335.23C255.85 2334.62 252.823 2334.48 251.527 2332.91C251.061 2332.75 250.72 2332.33 250.79 2331.67C251.838 2321.86 252.633 2312.02 253.212 2302.17C255.198 2269.12 254.524 2235.98 252.263 2202.97C247.602 2207 242.292 2210.52 236.38 2212.4C233.116 2215.66 227.884 2216.36 223.429 2216.76C217.701 2217.11 212.074 2215.97 206.42 2215.26C196.821 2214.05 187.288 2215.12 177.758 2216.3L174.502 2216.71C151.171 2219.26 125.956 2219.79 104.211 2209.83C100.117 2210.2 95.0342 2205.78 92.4801 2202.82C91.3523 2203.52 90.2441 2202.16 89.3454 2201.45C87.8622 2201 86.1797 2200.35 84.8337 2199.41C81.4189 2200.52 79.577 2196.09 78.2799 2193.69C57.6928 2158.48 80.6199 2123.43 78.8954 2086.1C79.9396 2056.83 66.5708 2026.33 79.4915 1998.26C82.1054 1986.38 97.3928 1978.16 108.9 1975.15C112.608 1974.53 126.645 1969.47 128.191 1973.73C128.923 1972.77 130.172 1972.7 131.292 1972.69ZM302.061 2353.89C300.132 2354.09 298.25 2354.21 296.344 2354.56C289.383 2355.7 282.744 2358.39 276.763 2362.13C274.826 2363.34 273.097 2364.86 270.874 2365.53C266.306 2367.19 261.816 2363.08 262.151 2358.63C260.878 2369.8 261.096 2381.3 261.757 2392.53C279.625 2400.61 297.892 2407.8 316.492 2414.06C320.68 2415.81 325.64 2416.37 329.486 2418.74C336.046 2418.33 342.648 2416.03 348.157 2412.43C357.296 2406.1 351.229 2396.06 343.654 2391.64C326.977 2384.12 312.782 2368.91 302.061 2353.89ZM265.523 2337.36C265.175 2340.67 267.695 2345.83 267.339 2352.44C267.066 2354.5 266.422 2356.66 266.646 2358.73C267.672 2366.41 275.996 2356.65 279.436 2355.58C284.319 2352.9 289.626 2351.07 295.08 2350.07C295.047 2348.3 293.873 2347.6 293.719 2345.85C293.497 2343.27 293.509 2340.79 293.392 2338.19C286.299 2341.41 273.048 2339.13 265.523 2337.36ZM303.743 2353.39C303.619 2353.47 303.489 2353.54 303.355 2353.6C304.341 2354.79 305.195 2356.12 306.364 2357.14L305.866 2356.37C305.2 2355.34 304.519 2354.32 303.743 2353.39ZM83.4333 2078.7C83.0759 2080.15 82.4249 2081.51 81.4498 2082.67C86.4855 2123.45 60.5772 2157.44 84.3975 2195.35C84.6986 2195.49 84.9733 2195.67 85.2378 2195.89C85.3778 2195.79 85.5179 2195.69 85.6553 2195.6C96.8201 2175.87 112.713 2158.85 125.377 2139.97C127.807 2135.23 131.808 2130.46 133.34 2124.98C107.892 2114.94 97.7268 2100.3 83.4333 2078.7ZM418.338 2140.55C417.259 2140.93 416.058 2140.61 414.907 2140.59C410.818 2140.51 406.823 2141.57 402.913 2142.65C391.541 2145.75 380.108 2148.51 368.457 2150.34C368.221 2150.59 367.996 2150.84 367.792 2151.1C367.993 2151.44 368.024 2151.87 367.732 2152.29C365.974 2155.64 367.395 2159.75 366.118 2163.34C364.267 2170.61 359.346 2178.8 352.002 2181.38C354.452 2183.71 356.207 2186.71 358.73 2188.96C364.931 2193.21 371.76 2186.88 376.822 2183.49C386.461 2176.69 396.124 2169.93 405.814 2163.21C410.155 2159.62 419.759 2155.09 421.836 2150.33C423.167 2146.68 420.745 2143.12 418.338 2140.55ZM351.914 2149.81C347.766 2158.26 345.371 2167.25 342.975 2176.32C345.467 2177 347.762 2178.08 350.211 2178.8C353.661 2179.57 358.532 2172.91 360.262 2170.27C362.045 2167.31 363.294 2164.07 363.873 2160.66C364.361 2157.33 363.841 2153.87 365.292 2150.78C360.798 2151.24 356.239 2151.34 351.914 2149.81ZM105.271 2132.38C109.167 2131.29 100.305 2140.09 99.7942 2141.03C94.0316 2147.82 88.7518 2155 83.5124 2162.2L81.924 2164.38C81.7715 2164.61 80.7196 2166.16 81.4802 2165.96C81.5498 2165.94 81.5823 2166.03 81.527 2166.07C76.6815 2166.93 102.935 2132.98 105.271 2132.38ZM200.249 2128.22C200.565 2127.27 199.069 2126.87 198.754 2127.81L197.761 2130.8C194.013 2142.08 190.288 2153.39 185.808 2164.41C185.434 2165.33 186.932 2165.74 187.304 2164.82C192.176 2152.83 196.157 2140.5 200.249 2128.22ZM243.814 2124.27C242.448 2130.75 238.996 2136.58 236.904 2142.77C240.834 2141.91 243.862 2138.25 246.153 2135.1L246.221 2135C247.302 2133.34 248.558 2130.74 251.013 2131.91C254.739 2134.08 252.07 2141.74 252 2145.38C251.528 2150.36 249.906 2155.02 248.801 2159.85C251.641 2157.92 252.458 2154.09 253.842 2151.11L259.17 2138.35C263.087 2132.99 261.268 2149.04 261.065 2150.55C260.747 2153.88 259.343 2157.23 259.894 2160.58C262.103 2158.21 263.494 2155.22 264.663 2152.2C266.285 2147.99 267.765 2143.72 269.308 2139.48C269.842 2138.13 271.865 2138.6 271.571 2140.1C271.472 2144.91 271.393 2149.72 271.316 2154.53L271.258 2158.13C271.248 2158.82 270.909 2160.81 272.092 2160.26C278.303 2153.75 279.895 2140.73 279.087 2131.99C266.878 2132.28 254.422 2130.7 243.814 2124.27ZM352.461 2148.56C352.411 2148.72 352.353 2148.88 352.295 2149.04C352.331 2149.04 352.368 2149.05 352.403 2149.06C352.426 2148.89 352.446 2148.73 352.461 2148.56ZM81.4913 2148.56C80.137 2147.56 102.9 2118.37 101.425 2126.8C95.0746 2134.3 87.669 2140.88 81.4913 2148.56ZM282.518 2084.06C261.23 2079.07 242.484 2097.72 221.106 2094.9C221.353 2101.59 221.697 2108.31 221.562 2115C249.952 2117.34 246.722 2129.41 279.403 2128.19C283.626 2125.37 285.361 2108.05 285.004 2102.83C285.277 2096.65 279.952 2093.87 274.648 2092.79C272.732 2093.94 269.293 2090.5 272.139 2089.28C275.885 2088.16 279.389 2086.39 282.518 2084.06ZM125.471 1974.53C117.898 1975.28 110.397 1977.34 103.436 1980.52C77.7058 1987.94 73.9957 2018.03 77.0896 2040.82C78.3716 2058.16 83.3215 2075.11 93.7285 2089.21C121.435 2131.41 167.324 2124.73 210.791 2119.14C212.358 2118.06 215.013 2118.83 216.523 2117.39C216.365 2117.34 216.223 2117.26 216.101 2117.17C216.827 2116.6 217.388 2115.61 217.555 2114.56L217.869 2114.59C218.176 2108.04 217.93 2101.63 218.029 2095.13C203.747 2091.22 188.429 2089.22 173.954 2085.33C172.309 2086.47 170.412 2085.15 168.805 2084.53C164.638 2082.76 160.435 2081.08 156.2 2079.48L155.141 2079.08C152.381 2078.05 149.623 2076.99 146.888 2075.88L145.864 2075.47C144.298 2074.83 140.342 2072.46 138.633 2073.94L138.771 2074.23C139.784 2076.44 143.275 2084.61 138.984 2082.99C135.5 2080.55 133.693 2063.51 130.242 2063.36C129.055 2066.53 128.205 2069.83 128.011 2073.22C127.941 2073.98 126.937 2074.62 126.333 2073.91C122.24 2068.53 128.423 2062.66 128.588 2056.98C128.978 2050.37 126.051 2044.19 124.593 2037.87L124.503 2037.43C123.648 2033.33 122.317 2028.35 122.67 2024.67L123.519 2027.87C124.371 2031.06 125.244 2034.26 126.245 2037.41C128.73 2045.28 133.216 2053.39 130.723 2061.81C135.725 2061.98 136.571 2069.86 138.449 2073.47C141.489 2069.53 162.878 2078.97 167.759 2080.49L168.7 2079.42C183.987 2062.11 195.022 2050.39 218.714 2064.09C214.621 2050.9 214.226 2036.89 213.528 2023.2C213.767 2020.59 212.26 2013.72 214.386 2012.3C214.754 2012.35 215.113 2012.46 215.452 2012.61L215.452 2013.96C215.462 2016.58 215.584 2020.91 216.682 2021.9L217.186 2027.07C218.505 2040.54 220.001 2053.99 224.026 2066.96C233.688 2072.36 242.504 2079.11 250.798 2086.4L251.743 2086.06C261.991 2082.31 274.321 2077.51 284.799 2082.18C284.623 2079.54 283.603 2077.02 282.18 2074.78C279.806 2074.2 278.253 2071.69 276.554 2070.03C271.168 2064.25 265.64 2058.61 260.378 2052.71C237.926 2028.58 228.374 1988.97 193.117 1979.61C190.786 1999.11 165.817 2002.22 150.77 1995.55L150.199 1995.33C140.846 1991.72 130.275 1986.28 126.99 1976.36L126.854 1976.08C126.516 1975.38 126.113 1974.67 125.471 1974.53ZM131.021 2085.47C131.048 2085.44 131.101 2085.48 131.078 2085.51C126.694 2091.01 123.127 2098.5 127.483 2105.07C128.289 2106.54 126.407 2107.96 125.202 2106.84C119.155 2099.98 125.864 2090.68 131.021 2085.47ZM283.538 2086.71C281.128 2088.43 278.543 2089.86 275.805 2090.98C275.813 2091.3 275.66 2091.64 275.521 2091.88C279.125 2092.17 282.879 2093.1 285.409 2095.73C285.532 2094.77 285.652 2093.8 285.744 2092.84C285.977 2090.36 285.552 2088.14 283.538 2086.71ZM117.775 2062.42L117.803 2062.29C117.822 2062.14 118.051 2062.13 118.044 2062.29C117.96 2064.25 116.529 2065.65 115.317 2067.05C113.519 2069.12 111.72 2071.2 109.921 2073.27C106.913 2076.89 102.482 2080.52 103.478 2085.76C103.497 2087.62 101.163 2088.02 100.217 2086.65C96.451 2079.48 108.305 2073.37 112.3 2068.75C114.176 2066.74 117.133 2065.27 117.775 2062.42ZM174.214 2083.96C174.27 2084.05 174.31 2084.14 174.332 2084.24C174.963 2084.31 175.591 2084.38 176.22 2084.46L174.214 2083.96ZM79.9286 2067.18C80.0411 2067.93 80.1464 2068.68 80.2472 2069.43L80.3466 2070.18L80.362 2070.12C80.4135 2069.92 80.5106 2069.75 80.6375 2069.62L80.6809 2069.58C80.4195 2068.78 80.1688 2067.98 79.9286 2067.18ZM252.986 2059.42C254.496 2059.26 247.652 2064.18 247.274 2064.78C246.722 2065.26 246.077 2064.41 246.666 2064C248.792 2062.5 250.888 2060.96 252.986 2059.42ZM239.67 2044.96C240.721 2044.53 241.435 2046.28 240.438 2046.77C236.807 2048.54 232.968 2049.8 229.622 2052.13C229.475 2052.23 229.291 2051.99 229.43 2051.89L229.832 2051.57C232.914 2049.12 235.992 2046.47 239.67 2044.96ZM81.1824 2022.86C82.1972 2027.63 87.6879 2029.2 91.9492 2030.47L93.2806 2030.98C97.0435 2032.42 100.942 2034.04 103.649 2037.08C104.71 2040.5 97.1388 2034.53 96.0818 2034.23C90.9116 2031.03 81.5696 2030.48 81.1824 2022.86ZM193.272 1978.29C193.3 1978.53 193.314 1978.78 193.322 1979.03C193.64 1979.03 193.956 1979.03 194.275 1979.04C193.904 1978.82 193.564 1978.57 193.272 1978.29Z" fill="black"/>
<path fill-rule="evenodd" clip-rule="evenodd" d="M203.728 1888.18H203.215L203.137 1887.51L203.137 1887.51L203.137 1887.51L203.137 1887.51L203.135 1887.49L203.127 1887.43C203.119 1887.37 203.107 1887.28 203.091 1887.17C203.058 1886.95 203.007 1886.63 202.936 1886.24C202.793 1885.46 202.568 1884.43 202.243 1883.39C201.914 1882.35 201.496 1881.34 200.983 1880.59C200.462 1879.83 199.929 1879.46 199.395 1879.4C198.751 1879.34 197.795 1879.6 196.562 1880.15C195.36 1880.68 194.022 1881.43 192.652 1882.21L192.246 1882.44L192.246 1882.44C191.022 1883.14 189.783 1883.85 188.653 1884.4C187.427 1884.99 186.198 1885.47 185.184 1885.47C184.673 1885.47 183.972 1885.33 183.179 1885.14C182.367 1884.94 181.39 1884.65 180.298 1884.32C179.227 1883.99 178.002 1883.59 176.693 1883.17L176.692 1883.17C175.375 1882.75 173.972 1882.3 172.556 1881.85C166.789 1880.06 160.413 1878.31 155.947 1878.31C151.556 1878.31 147.452 1880.12 144.041 1882.65C140.629 1885.18 137.964 1888.38 136.461 1891.04C135.126 1893.4 136.068 1896.15 137.587 1898.51C138.329 1899.66 139.168 1900.65 139.826 1901.36C140.154 1901.71 140.434 1901.99 140.631 1902.18C140.73 1902.27 140.808 1902.34 140.86 1902.39C140.886 1902.42 140.905 1902.43 140.918 1902.45L140.932 1902.46L140.935 1902.46L140.935 1902.46L140.935 1902.46L140.935 1902.46L141.463 1902.93L141.029 1903.48L141.029 1903.48L141.029 1903.48L141.029 1903.48L141.027 1903.49L141.018 1903.5L140.981 1903.55C140.948 1903.59 140.899 1903.65 140.837 1903.74C140.713 1903.9 140.535 1904.14 140.321 1904.43C139.893 1905.02 139.323 1905.83 138.755 1906.72C138.184 1907.61 137.625 1908.57 137.21 1909.45C136.782 1910.36 136.558 1911.09 136.558 1911.56C136.558 1912.81 136.822 1915.44 137.094 1917.82C137.229 1918.99 137.364 1920.09 137.465 1920.89C137.515 1921.29 137.558 1921.62 137.587 1921.84L137.621 1922.11L137.63 1922.17L137.633 1922.19L137.633 1922.2L137.633 1922.2L137.633 1922.2L136.89 1922.3L137.633 1922.2L137.791 1923.38L136.656 1923.01L136.655 1923.01L136.653 1923.01L136.643 1923L136.603 1922.99C136.586 1922.99 136.566 1922.98 136.541 1922.97C136.514 1922.96 136.481 1922.95 136.444 1922.94C136.306 1922.9 136.103 1922.83 135.851 1922.76C135.346 1922.61 134.644 1922.4 133.855 1922.2C132.254 1921.79 130.375 1921.41 129.052 1921.41C127.9 1921.41 126.837 1922.05 126.009 1922.8C125.604 1923.16 125.279 1923.52 125.056 1923.8C124.945 1923.93 124.86 1924.05 124.804 1924.12C124.776 1924.16 124.755 1924.19 124.742 1924.21L124.729 1924.23L124.727 1924.23L124.727 1924.23L124.726 1924.23L124.726 1924.23L124.726 1924.23L124.504 1924.57H124.102H123.816C123.618 1924.1 123.424 1923.6 123.233 1923.07H123.721C123.771 1923 123.829 1922.93 123.893 1922.85C124.152 1922.53 124.531 1922.11 125.007 1921.68C125.941 1920.84 127.353 1919.91 129.052 1919.91C130.581 1919.91 132.621 1920.34 134.226 1920.75C134.9 1920.92 135.512 1921.09 135.997 1921.24L135.977 1921.08C135.875 1920.27 135.739 1919.17 135.604 1917.99C135.335 1915.64 135.058 1912.91 135.058 1911.56C135.058 1910.73 135.412 1909.75 135.853 1908.81C136.306 1907.85 136.904 1906.83 137.491 1905.91C138.08 1904.99 138.668 1904.16 139.108 1903.55C139.229 1903.38 139.339 1903.23 139.435 1903.11C139.24 1902.91 138.999 1902.67 138.728 1902.38C138.031 1901.63 137.13 1900.57 136.326 1899.32C134.752 1896.88 133.378 1893.45 135.155 1890.3C136.762 1887.45 139.568 1884.1 143.148 1881.44C146.729 1878.79 151.14 1876.81 155.947 1876.81C160.678 1876.81 167.273 1878.64 173.002 1880.42C174.472 1880.88 175.863 1881.33 177.163 1881.75L177.163 1881.75C178.448 1882.16 179.644 1882.54 180.74 1882.88C181.825 1883.22 182.769 1883.49 183.539 1883.68C184.328 1883.88 184.872 1883.97 185.184 1883.97C185.819 1883.97 186.772 1883.64 187.999 1883.05C189.08 1882.52 190.272 1881.84 191.506 1881.14L191.909 1880.91C193.27 1880.13 194.671 1879.34 195.953 1878.77C197.204 1878.22 198.477 1877.8 199.543 1877.91C200.719 1878.03 201.593 1878.83 202.22 1879.75C202.855 1880.67 203.326 1881.84 203.674 1882.94C204.024 1884.06 204.261 1885.15 204.411 1885.97C204.442 1886.14 204.47 1886.29 204.494 1886.44L203.055 1885.74C203.265 1886.49 203.49 1887.3 203.728 1888.18ZM204.982 1886.68L205.368 1886.86C205.479 1886.8 205.588 1886.74 205.697 1886.68H204.982Z" fill="#ECDCBF"/>
<path fill-rule="evenodd" clip-rule="evenodd" d="M182.647 1972.03C175.436 1972.77 166.868 1971.06 162.061 1965.2C161.917 1965.02 161.854 1964.83 161.85 1964.63C161.846 1964.42 161.918 1964.21 162.041 1964.05C162.171 1963.89 162.356 1963.77 162.568 1963.73C162.747 1963.7 162.951 1963.72 163.16 1963.84L163.602 1964.08C166.886 1965.9 170.296 1967.45 174.017 1968.11C177.848 1968.79 181.749 1968.71 185.546 1967.85C192.463 1966.27 198.06 1962.25 202.18 1956.94C206.778 1951.02 209.539 1943.51 210.243 1936C211.096 1926.89 209.117 1917.84 207.071 1909.02C204.92 1899.75 202.57 1890.54 199.839 1881.43C199.757 1881.15 199.734 1880.9 199.758 1880.66C198.953 1880.34 198.096 1880.43 197.242 1880.72C195.684 1881.25 194.131 1882.43 192.835 1883.41C192.366 1883.77 191.93 1884.1 191.538 1884.37C189.932 1885.47 188.176 1886.26 186.213 1886.38C184.172 1886.51 182.17 1885.88 180.316 1885.08C179.374 1884.68 178.447 1884.26 177.524 1883.84C174.895 1882.65 172.298 1881.48 169.459 1880.71C165.655 1879.69 161.728 1879.19 157.789 1879.22C150.759 1879.29 143.707 1881.1 139.398 1887.05C137.652 1889.46 136.514 1892.23 137.402 1895.2C137.885 1896.82 138.796 1898.29 139.79 1899.64L140.131 1900.1C140.677 1900.84 141.151 1901.58 141.294 1902.37C141.413 1903.03 141.32 1903.72 140.85 1904.49C140.554 1904.97 140.177 1905.4 139.799 1905.83C139.526 1906.14 139.252 1906.45 139.016 1906.78C138.541 1907.45 138.121 1908.18 137.791 1908.93C137.145 1910.41 136.871 1912 136.814 1913.6C136.744 1915.53 137.016 1917.42 137.285 1919.32C137.476 1920.66 137.667 1922.01 137.744 1923.37C137.758 1923.6 137.685 1923.78 137.583 1923.91C137.459 1924.07 137.278 1924.17 137.071 1924.2C137.008 1924.21 136.944 1924.21 136.878 1924.2C136.91 1924.34 136.939 1924.47 136.963 1924.6C136.833 1924.43 136.694 1924.27 136.547 1924.11C136.538 1924.11 136.529 1924.1 136.519 1924.1C136.368 1924.01 136.24 1923.89 136.16 1923.72C135.952 1923.53 135.732 1923.35 135.502 1923.18C134.302 1922.28 132.901 1921.75 131.496 1921.73C130.142 1921.71 128.784 1922.18 127.74 1923.15C125.664 1925.09 125.056 1928.25 125.035 1930.97C125.013 1933.74 125.654 1937.06 128.069 1938.79C129.038 1939.48 130.221 1939.89 131.413 1939.9C132.401 1939.91 133.347 1939.56 134.278 1939.23C134.565 1939.13 134.851 1939.02 135.136 1938.93C135.459 1938.83 135.754 1938.83 136.012 1938.91C136.302 1939 136.548 1939.18 136.732 1939.42C136.915 1939.65 137.035 1939.95 137.072 1940.27C137.108 1940.57 137.067 1940.88 136.938 1941.17C136.906 1941.24 136.872 1941.31 136.837 1941.37L137.368 1942.25C139.402 1945.59 141.472 1948.86 144.186 1951.73C145.744 1953.38 147.395 1954.93 149.206 1956.29L149.467 1956.49C149.624 1956.6 149.797 1956.74 149.982 1956.9C150.51 1957.33 151.143 1957.91 151.734 1957.93C151.91 1957.94 152.063 1957.92 152.202 1957.9C152.539 1957.85 152.821 1957.84 153.099 1957.95C153.322 1958.04 153.554 1958.21 153.791 1958.57C153.952 1958.8 154.035 1959.1 154.035 1959.41C154.035 1959.71 153.951 1960.01 153.803 1960.25C153.495 1960.75 153.123 1961.06 152.719 1961.23C152.268 1961.43 151.771 1961.46 151.254 1961.36C149.979 1961.13 148.569 1960.07 147.671 1959.38L147.497 1959.25C145.508 1957.73 143.623 1956.05 141.966 1954.17C139.144 1950.97 136.609 1947.2 135.308 1943.08C134.39 1943.68 133.256 1943.97 132.071 1944.02C130.344 1944.08 128.516 1943.64 127.17 1943C124.202 1941.59 122.399 1938.93 121.554 1935.86C120.573 1932.3 120.892 1928.21 122.134 1925.02C122.17 1924.92 122.207 1924.83 122.246 1924.74C118.422 1915.04 117.246 1904.28 117.574 1893.93C117.727 1889.09 118.056 1884.01 119.198 1879.29C119.71 1877.17 120.599 1875.15 122.019 1873.49C122.828 1872.54 123.821 1871.8 124.819 1871.06C125.683 1870.42 126.55 1869.78 127.28 1868.98L127.625 1868.6C127.7 1868.52 127.775 1868.44 127.849 1868.36C129.11 1866.97 130.337 1865.62 131.866 1864.48C133.64 1863.16 135.598 1862.12 137.632 1861.26C142.013 1859.41 146.729 1858.3 151.395 1857.44C161.488 1855.59 171.849 1855.5 181.819 1858.11C186.454 1859.32 190.952 1860.98 195.443 1862.64C195.86 1862.79 196.277 1862.95 196.694 1863.1C200.184 1864.39 203.675 1865.67 207.167 1866.95C208.79 1867.54 210.413 1868.14 212.035 1868.73C212.387 1868.86 212.732 1869.14 212.928 1869.49C213.12 1869.82 213.177 1870.22 213.022 1870.61C212.027 1873.13 210.771 1875.5 209.241 1877.71C209.773 1878.08 210.225 1878.56 210.567 1879.12C211 1879.83 211.256 1880.67 211.273 1881.57C211.332 1884.56 208.608 1886.59 206.348 1888.06C206.138 1888.2 205.929 1888.28 205.728 1888.32C207.917 1896.69 210.013 1905.1 211.794 1913.57L211.917 1914.16C213.751 1923.03 214.935 1932.08 213.2 1941.06C211.706 1948.8 208.235 1956.27 202.811 1962.03C197.496 1967.68 190.364 1971.23 182.647 1972.03ZM135.162 1921.02C134.218 1918.02 133.717 1914.76 134.078 1911.72C134.306 1909.81 134.88 1907.97 135.815 1906.28C136.35 1905.32 137.003 1904.43 137.715 1903.58L137.96 1903.3C138.085 1903.16 138.208 1903.03 138.247 1902.86C138.269 1902.76 138.246 1902.66 138.188 1902.53C138.058 1902.25 137.816 1901.98 137.59 1901.72C137.446 1901.55 137.306 1901.39 137.188 1901.23C135.118 1898.42 133.575 1895.09 134.077 1891.53C134.566 1888.06 136.838 1884.83 139.256 1882.39C144.581 1877.03 152.837 1875.8 160.069 1876.09C164.279 1876.26 168.482 1877.01 172.492 1878.3C174.469 1878.94 176.402 1879.72 178.28 1880.62L178.696 1880.81C178.921 1880.92 179.145 1881.03 179.369 1881.14C180.838 1881.86 182.311 1882.59 183.905 1882.98C187.018 1883.75 189.13 1882.14 191.349 1880.51C192.11 1879.96 192.882 1879.39 193.703 1878.9L193.872 1878.8C195.353 1877.94 197.124 1877.36 198.825 1877.39C200.303 1877.41 201.729 1877.88 202.89 1879C203.128 1879.23 203.266 1879.48 203.33 1879.72C203.458 1879.9 203.562 1880.12 203.63 1880.37C204.046 1881.93 204.46 1883.5 204.872 1885.06L205.21 1884.84C206.209 1884.19 207.296 1883.45 207.786 1882.36C207.975 1881.95 207.948 1881.25 207.71 1880.74C207.627 1880.56 207.517 1880.4 207.365 1880.3C207.255 1880.23 207.121 1880.19 206.966 1880.21C206.59 1880.25 206.244 1880.2 205.951 1880.07C205.612 1879.93 205.343 1879.7 205.168 1879.41C204.989 1879.12 204.907 1878.78 204.951 1878.43C204.988 1878.12 205.119 1877.8 205.378 1877.51C207.083 1875.54 208.519 1873.37 209.61 1871.02L202.392 1868.34C199.818 1867.39 197.244 1866.44 194.669 1865.49L193.259 1864.97C188.576 1863.25 183.866 1861.57 178.996 1860.47C169.318 1858.27 159.226 1858.79 149.574 1860.86L148.991 1860.98C144.941 1861.87 140.836 1862.94 137.119 1864.79C135.294 1865.71 133.56 1866.82 132.07 1868.22C131.413 1868.84 130.818 1869.51 130.223 1870.19C129.389 1871.14 128.554 1872.08 127.563 1872.88L126.643 1873.62C125.274 1874.72 124.04 1875.8 123.267 1877.51C122.46 1879.3 122.074 1881.28 121.76 1883.2C120.966 1888.06 120.653 1892.99 120.683 1897.9C120.734 1906.15 121.987 1914.24 123.569 1922.29C124.839 1920.48 126.623 1919.07 128.913 1918.77C130.406 1918.57 131.886 1918.85 133.169 1919.51C133.911 1919.89 134.587 1920.4 135.162 1921.02ZM132.763 1930.82C131.091 1930.17 129.335 1929.96 127.566 1930.27C127.381 1930.3 127.204 1930.26 127.056 1930.17C126.905 1930.09 126.787 1929.95 126.722 1929.8C126.648 1929.62 126.644 1929.43 126.71 1929.26C126.767 1929.11 126.875 1928.97 127.075 1928.87C128.991 1927.96 131.12 1927.55 133.233 1927.84L133.442 1927.87C134.522 1928.03 136.041 1928.37 137.181 1929.03C138.076 1929.55 138.731 1930.27 138.894 1931.21C138.979 1931.7 138.857 1932.21 138.575 1932.58C138.302 1932.94 137.886 1933.18 137.346 1933.17C136.394 1933.14 135.831 1932.74 135.152 1932.22C135.07 1932.15 134.986 1932.09 134.898 1932.02C134.243 1931.53 133.527 1931.11 132.763 1930.82Z" fill="black"/>
<path fill-rule="evenodd" clip-rule="evenodd" d="M167.243 1939.18C169.982 1937.53 180.219 1938.74 188.26 1939.18C194.646 1939.52 199.207 1938.83 200.667 1939.81C203.965 1942.03 202.363 1952.75 196.68 1954.21C190.997 1955.68 169.93 1957.73 166.297 1954.21C162.665 1950.7 162.33 1942.13 167.243 1939.18Z" fill="white"/>
<path fill-rule="evenodd" clip-rule="evenodd" d="M170.79 1936.34C175.089 1935.82 179.255 1937.13 183.458 1937.8C185.676 1938.14 187.898 1938.41 190.143 1938.5C190.595 1938.52 191.047 1938.53 191.498 1938.54C191.541 1938.15 191.763 1937.78 192.246 1937.56C193.235 1937.12 194.026 1936.91 195.112 1936.96C196.106 1937 197.103 1937.1 198.082 1937.28C199.859 1937.6 201.644 1938.34 202.944 1939.62C205.952 1942.59 205.494 1947.36 203.169 1950.59C198.367 1957.27 189.602 1957.58 182.094 1957.49L181.402 1957.48C174.566 1957.39 164.787 1958.41 161.681 1950.64C160.539 1947.78 160.698 1944.47 162.096 1941.73C163.764 1938.47 167.274 1936.77 170.79 1936.34ZM192.142 1947.46L192.081 1947.46C188.929 1947.59 185.778 1947.67 182.625 1947.73C182.719 1948.54 182.816 1949.34 182.926 1950.15C183.012 1950.79 183.105 1951.42 183.201 1952.05C183.242 1952.32 183.391 1952.74 183.349 1953L183.334 1953.11C183.496 1953.18 183.643 1953.3 183.752 1953.47C183.79 1953.53 183.818 1953.59 183.845 1953.65C186.293 1953.67 188.928 1953.62 191.423 1953.18L191.428 1953.12C191.474 1952.8 191.606 1952.59 191.783 1952.44C191.958 1951.43 191.942 1950.35 192.01 1949.34C192.052 1948.71 192.098 1948.09 192.142 1947.46ZM180.217 1947.77C177.945 1947.81 175.673 1947.84 173.401 1947.81L172.37 1947.79C172.588 1948.96 172.825 1950.12 173.022 1951.3C173.227 1952.52 172.149 1953.3 171.215 1953.27C171.32 1953.28 171.425 1953.3 171.529 1953.32C174.446 1953.73 177.475 1953.62 180.435 1953.62C180.276 1952.69 180.34 1951.64 180.316 1950.87L180.312 1950.75C180.267 1949.75 180.235 1948.76 180.217 1947.77ZM164.787 1947.56C164.866 1948.16 165.019 1948.76 165.249 1949.31C166.218 1951.64 168.441 1952.73 170.793 1953.19C170.385 1953.05 170.061 1952.71 169.979 1952.13C169.775 1950.69 169.702 1949.23 169.697 1947.77C168.057 1947.75 166.407 1947.72 164.787 1947.56ZM200.69 1947.06C199.523 1947.33 198.167 1947.21 197.022 1947.26C195.949 1947.31 194.876 1947.35 193.803 1947.39C193.854 1948.12 193.903 1948.85 193.957 1949.59C194.026 1950.53 194.032 1951.53 194.214 1952.47C196.372 1951.73 198.307 1950.55 199.758 1948.67C200.12 1948.2 200.444 1947.64 200.69 1947.06ZM170.297 1940.17C168.354 1940.63 166.516 1941.6 165.528 1943.38C164.941 1944.43 164.683 1945.68 164.733 1946.91C166.375 1946.72 168.045 1946.64 169.707 1946.58C169.713 1946.29 169.72 1945.99 169.729 1945.69L169.754 1944.93C169.799 1943.47 169.822 1941.64 170.297 1940.17ZM180.352 1940.35L179.497 1940.25C177.122 1939.98 174.748 1939.7 172.372 1939.86C172.028 1939.88 171.679 1939.92 171.33 1939.97C171.749 1941.49 171.714 1943.26 171.89 1944.76C171.957 1945.34 172.043 1945.91 172.138 1946.49L172.55 1946.47C175.099 1946.33 177.65 1946.24 180.201 1946.14C180.201 1945.66 180.204 1945.19 180.211 1944.71L180.221 1944.23C180.25 1943.01 180.171 1941.63 180.352 1940.35ZM192.281 1940.15C189.793 1940.55 187.222 1940.64 184.778 1940.64C183.802 1940.64 182.827 1940.58 181.851 1940.5C181.915 1941.02 181.948 1941.54 181.996 1942.05C182.092 1943.09 182.202 1944.12 182.322 1945.15L182.428 1946.05C185.564 1945.91 188.699 1945.75 191.834 1945.6L192.276 1945.57L192.4 1943.84C192.485 1942.68 192.578 1941.53 192.709 1940.38L192.61 1940.34C192.495 1940.29 192.385 1940.23 192.281 1940.15ZM193.362 1940.58C193.499 1942.22 193.575 1943.86 193.675 1945.5L195.742 1945.39C196.086 1945.37 196.431 1945.35 196.775 1945.33C198.114 1945.25 199.835 1944.85 201.159 1945.22C201.26 1944.02 200.916 1942.85 199.83 1942.04C197.923 1940.63 195.495 1941.13 193.362 1940.58ZM186.301 1925.98C189.379 1924.22 197.1 1922.42 197.589 1927.95C197.814 1930.49 195.919 1932.6 193.706 1933.54L193.623 1933.58C191.548 1934.43 187.87 1935.39 186.075 1933.54C184.58 1932.01 186.563 1929.25 188.42 1930.51C189.374 1931.16 191.383 1930.68 192.448 1930.37L192.515 1930.35C193.664 1930.02 195.196 1928.94 194.721 1927.52C194.3 1926.27 192.511 1926.05 191.39 1926C189.717 1925.94 188.089 1926.33 186.432 1926.46C186.169 1926.48 186.088 1926.1 186.301 1925.98ZM199.048 1917.09C203.225 1916.89 205.823 1921.44 204.862 1925.17C204.696 1925.82 203.975 1926.45 203.279 1926.38L203.104 1926.36C203.014 1926.35 202.925 1926.34 202.843 1926.32C202.182 1926.14 201.589 1925.45 201.637 1924.74L201.65 1924.53C201.747 1922.77 201.556 1920.74 199.458 1920.31C197.679 1919.95 196.686 1921.66 196.665 1923.23C196.661 1923.51 196.346 1923.71 196.099 1923.56C194.813 1922.78 194.59 1921.22 195.081 1919.88C195.704 1918.19 197.262 1917.17 199.048 1917.09ZM168.054 1918.06C171.093 1917.05 174.372 1918.67 175.844 1921.35C176.361 1921.5 176.876 1921.9 176.804 1922.51C176.701 1923.38 176.545 1923.93 175.937 1924.6C174.986 1925.63 173.206 1925.1 172.81 1923.83L172.794 1923.77C172.345 1922.12 170.523 1921.03 168.864 1921.6C166.926 1922.28 166.982 1924.32 165.622 1925.51C165.463 1925.65 165.271 1925.68 165.079 1925.58C163.635 1924.89 163.895 1922.79 164.41 1921.59C165.085 1920.01 166.397 1918.61 168.054 1918.06ZM163.914 1908.85C166.377 1906.34 172.8 1903.91 174.485 1908.54C174.806 1909.42 174.122 1910.61 173.202 1910.8C171.695 1911.1 170.358 1910.44 168.861 1910.56C167.649 1910.66 166.385 1911.06 165.416 1911.81C162.732 1913.89 162.142 1917.4 160.272 1920.04C160.181 1920.17 160.004 1920.12 159.987 1919.96C159.562 1916.12 161.217 1911.59 163.914 1908.85ZM196.035 1906.37C197.67 1905.8 199.52 1905.85 201.163 1906.36C202.818 1906.87 204.338 1907.85 205.508 1909.13C206.039 1909.71 206.531 1910.35 206.925 1911.03C207.134 1911.4 207.355 1912.14 207.593 1912.59C208.88 1913.33 209.43 1915.02 208.278 1916.22L208.226 1916.28L208.072 1916.43C207.452 1917.04 206.518 1917.31 205.672 1917.06C203.779 1916.52 203.549 1915.03 202.894 1913.45C202.461 1912.4 201.72 1911.48 200.821 1910.8C198.696 1909.2 195.212 1908.69 192.654 1909.44C192.518 1909.48 192.358 1909.31 192.455 1909.18C192.94 1908.56 193.219 1908.04 193.868 1907.54C194.527 1907.02 195.246 1906.65 196.035 1906.37Z" fill="black"/>
<rect x="386" y="424.002" width="116" height="36" fill="white" stroke="black" stroke-width="4"/>
<path d="M432.459 434.202V449.002H429.039V434.202H432.459ZM436.657 436.682C436.057 436.682 435.564 436.509 435.177 436.162C434.804 435.802 434.617 435.362 434.617 434.842C434.617 434.309 434.804 433.869 435.177 433.522C435.564 433.162 436.057 432.982 436.657 432.982C437.244 432.982 437.724 433.162 438.097 433.522C438.484 433.869 438.677 434.309 438.677 434.842C438.677 435.362 438.484 435.802 438.097 436.162C437.724 436.509 437.244 436.682 436.657 436.682ZM438.357 437.842V449.002H434.937V437.842H438.357ZM445.856 445.802L448.276 437.842H451.916L447.956 449.002H443.736L439.776 437.842H443.436L445.856 445.802ZM463.875 443.242C463.875 443.562 463.855 443.895 463.815 444.242H456.075C456.129 444.935 456.349 445.469 456.735 445.842C457.135 446.202 457.622 446.382 458.195 446.382C459.049 446.382 459.642 446.022 459.975 445.302H463.615C463.429 446.035 463.089 446.695 462.595 447.282C462.115 447.869 461.509 448.329 460.775 448.662C460.042 448.995 459.222 449.162 458.315 449.162C457.222 449.162 456.249 448.929 455.395 448.462C454.542 447.995 453.875 447.329 453.395 446.462C452.915 445.595 452.675 444.582 452.675 443.422C452.675 442.262 452.909 441.249 453.375 440.382C453.855 439.515 454.522 438.849 455.375 438.382C456.229 437.915 457.209 437.682 458.315 437.682C459.395 437.682 460.355 437.909 461.195 438.362C462.035 438.815 462.689 439.462 463.155 440.302C463.635 441.142 463.875 442.122 463.875 443.242ZM460.375 442.342C460.375 441.755 460.175 441.289 459.775 440.942C459.375 440.595 458.875 440.422 458.275 440.422C457.702 440.422 457.215 440.589 456.815 440.922C456.429 441.255 456.189 441.729 456.095 442.342H460.375Z" fill="#333333"/>
<rect x="385.5" y="423.502" width="117" height="37" fill="white" stroke="black" stroke-width="3"/>
<path d="M432.398 438.662C430.838 438.662 429.638 439.322 428.838 440.362C428.158 439.262 426.958 438.662 425.558 438.662C424.258 438.662 423.278 439.122 422.598 439.882V438.962H419.398V449.002H422.598V444.082C422.598 442.402 423.358 441.542 424.518 441.542C425.478 441.542 426.218 442.262 426.218 443.402V449.002H429.418V444.082C429.418 442.402 430.198 441.542 431.378 441.542C432.318 441.542 433.058 442.262 433.058 443.402V449.002H436.238V442.722C436.238 440.282 434.538 438.662 432.398 438.662ZM443.382 438.662C440.302 438.662 437.762 440.822 437.762 443.982C437.762 447.162 440.302 449.302 443.382 449.302C446.422 449.302 448.962 447.162 448.962 443.982C448.962 440.822 446.422 438.662 443.382 438.662ZM443.382 446.582C441.982 446.582 440.842 445.562 440.842 443.982C440.842 442.422 441.982 441.382 443.382 441.382C444.742 441.382 445.882 442.422 445.882 443.982C445.882 445.562 444.742 446.582 443.382 446.582ZM457.389 438.822C455.769 438.822 454.669 439.582 453.929 440.702V438.962H450.729V449.002H453.929V445.862C453.929 443.262 455.149 442.102 457.389 442.102H457.969L458.109 438.902C457.869 438.842 457.669 438.822 457.389 438.822ZM469.258 443.982C469.198 440.702 466.918 438.662 464.078 438.662C461.158 438.662 458.758 440.822 458.758 443.982C458.758 447.162 461.158 449.302 464.058 449.302C466.358 449.302 468.178 448.282 469.038 446.162L466.198 445.582C465.658 446.562 464.798 446.742 464.058 446.742C462.978 446.742 462.158 446.002 461.898 444.802H469.258V443.982ZM464.078 441.262C464.998 441.262 465.798 441.762 466.098 442.842H461.958C462.258 441.822 463.178 441.262 464.078 441.262Z" fill="#333333"/>
<rect x="386" y="2" width="116" height="36" fill="white" stroke="black" stroke-width="4"/>
<path d="M432.459 12.2V27H429.039V12.2H432.459ZM436.657 14.68C436.057 14.68 435.564 14.5067 435.177 14.16C434.804 13.8 434.617 13.36 434.617 12.84C434.617 12.3067 434.804 11.8667 435.177 11.52C435.564 11.16 436.057 10.98 436.657 10.98C437.244 10.98 437.724 11.16 438.097 11.52C438.484 11.8667 438.677 12.3067 438.677 12.84C438.677 13.36 438.484 13.8 438.097 14.16C437.724 14.5067 437.244 14.68 436.657 14.68ZM438.357 15.84V27H434.937V15.84H438.357ZM445.856 23.8L448.276 15.84H451.916L447.956 27H443.736L439.776 15.84H443.436L445.856 23.8ZM463.875 21.24C463.875 21.56 463.855 21.8933 463.815 22.24H456.075C456.129 22.9333 456.349 23.4667 456.735 23.84C457.135 24.2 457.622 24.38 458.195 24.38C459.049 24.38 459.642 24.02 459.975 23.3H463.615C463.429 24.0333 463.089 24.6933 462.595 25.28C462.115 25.8667 461.509 26.3267 460.775 26.66C460.042 26.9933 459.222 27.16 458.315 27.16C457.222 27.16 456.249 26.9267 455.395 26.46C454.542 25.9933 453.875 25.3267 453.395 24.46C452.915 23.5933 452.675 22.58 452.675 21.42C452.675 20.26 452.909 19.2467 453.375 18.38C453.855 17.5133 454.522 16.8467 455.375 16.38C456.229 15.9133 457.209 15.68 458.315 15.68C459.395 15.68 460.355 15.9067 461.195 16.36C462.035 16.8133 462.689 17.46 463.155 18.3C463.635 19.14 463.875 20.12 463.875 21.24ZM460.375 20.34C460.375 19.7533 460.175 19.2867 459.775 18.94C459.375 18.5933 458.875 18.42 458.275 18.42C457.702 18.42 457.215 18.5867 456.815 18.92C456.429 19.2533 456.189 19.7267 456.095 20.34H460.375Z" fill="#333333"/>
<rect x="385.5" y="1.5" width="117" height="37" fill="white" stroke="black" stroke-width="3"/>
<path d="M432.398 16.66C430.838 16.66 429.638 17.32 428.838 18.36C428.158 17.26 426.958 16.66 425.558 16.66C424.258 16.66 423.278 17.12 422.598 17.88V16.96H419.398V27H422.598V22.08C422.598 20.4 423.358 19.54 424.518 19.54C425.478 19.54 426.218 20.26 426.218 21.4V27H429.418V22.08C429.418 20.4 430.198 19.54 431.378 19.54C432.318 19.54 433.058 20.26 433.058 21.4V27H436.238V20.72C436.238 18.28 434.538 16.66 432.398 16.66ZM443.382 16.66C440.302 16.66 437.762 18.82 437.762 21.98C437.762 25.16 440.302 27.3 443.382 27.3C446.422 27.3 448.962 25.16 448.962 21.98C448.962 18.82 446.422 16.66 443.382 16.66ZM443.382 24.58C441.982 24.58 440.842 23.56 440.842 21.98C440.842 20.42 441.982 19.38 443.382 19.38C444.742 19.38 445.882 20.42 445.882 21.98C445.882 23.56 444.742 24.58 443.382 24.58ZM457.389 16.82C455.769 16.82 454.669 17.58 453.929 18.7V16.96H450.729V27H453.929V23.86C453.929 21.26 455.149 20.1 457.389 20.1H457.969L458.109 16.9C457.869 16.84 457.669 16.82 457.389 16.82ZM469.258 21.98C469.198 18.7 466.918 16.66 464.078 16.66C461.158 16.66 458.758 18.82 458.758 21.98C458.758 25.16 461.158 27.3 464.058 27.3C466.358 27.3 468.178 26.28 469.038 24.16L466.198 23.58C465.658 24.56 464.798 24.74 464.058 24.74C462.978 24.74 462.158 24 461.898 22.8H469.258V21.98ZM464.078 19.26C464.998 19.26 465.798 19.76 466.098 20.84H461.958C462.258 19.82 463.178 19.26 464.078 19.26Z" fill="#333333"/>
<rect x="1356" y="3" width="116" height="36" fill="white" stroke="black" stroke-width="4"/>
<path d="M1402.46 13.2V28H1399.04V13.2H1402.46ZM1406.66 15.68C1406.06 15.68 1405.56 15.5067 1405.18 15.16C1404.8 14.8 1404.62 14.36 1404.62 13.84C1404.62 13.3067 1404.8 12.8667 1405.18 12.52C1405.56 12.16 1406.06 11.98 1406.66 11.98C1407.24 11.98 1407.72 12.16 1408.1 12.52C1408.48 12.8667 1408.68 13.3067 1408.68 13.84C1408.68 14.36 1408.48 14.8 1408.1 15.16C1407.72 15.5067 1407.24 15.68 1406.66 15.68ZM1408.36 16.84V28H1404.94V16.84H1408.36ZM1415.86 24.8L1418.28 16.84H1421.92L1417.96 28H1413.74L1409.78 16.84H1413.44L1415.86 24.8ZM1433.88 22.24C1433.88 22.56 1433.86 22.8933 1433.82 23.24H1426.08C1426.13 23.9333 1426.35 24.4667 1426.74 24.84C1427.14 25.2 1427.62 25.38 1428.2 25.38C1429.05 25.38 1429.64 25.02 1429.98 24.3H1433.62C1433.43 25.0333 1433.09 25.6933 1432.6 26.28C1432.12 26.8667 1431.51 27.3267 1430.78 27.66C1430.04 27.9933 1429.22 28.16 1428.32 28.16C1427.22 28.16 1426.25 27.9267 1425.4 27.46C1424.54 26.9933 1423.88 26.3267 1423.4 25.46C1422.92 24.5933 1422.68 23.58 1422.68 22.42C1422.68 21.26 1422.91 20.2467 1423.38 19.38C1423.86 18.5133 1424.52 17.8467 1425.38 17.38C1426.23 16.9133 1427.21 16.68 1428.32 16.68C1429.4 16.68 1430.36 16.9067 1431.2 17.36C1432.04 17.8133 1432.69 18.46 1433.16 19.3C1433.64 20.14 1433.88 21.12 1433.88 22.24ZM1430.38 21.34C1430.38 20.7533 1430.18 20.2867 1429.78 19.94C1429.38 19.5933 1428.88 19.42 1428.28 19.42C1427.7 19.42 1427.22 19.5867 1426.82 19.92C1426.43 20.2533 1426.19 20.7267 1426.1 21.34H1430.38Z" fill="#333333"/>
<rect x="1355.5" y="2.5" width="117" height="37" fill="white" stroke="black" stroke-width="3"/>
<path d="M1402.4 17.66C1400.84 17.66 1399.64 18.32 1398.84 19.36C1398.16 18.26 1396.96 17.66 1395.56 17.66C1394.26 17.66 1393.28 18.12 1392.6 18.88V17.96H1389.4V28H1392.6V23.08C1392.6 21.4 1393.36 20.54 1394.52 20.54C1395.48 20.54 1396.22 21.26 1396.22 22.4V28H1399.42V23.08C1399.42 21.4 1400.2 20.54 1401.38 20.54C1402.32 20.54 1403.06 21.26 1403.06 22.4V28H1406.24V21.72C1406.24 19.28 1404.54 17.66 1402.4 17.66ZM1413.38 17.66C1410.3 17.66 1407.76 19.82 1407.76 22.98C1407.76 26.16 1410.3 28.3 1413.38 28.3C1416.42 28.3 1418.96 26.16 1418.96 22.98C1418.96 19.82 1416.42 17.66 1413.38 17.66ZM1413.38 25.58C1411.98 25.58 1410.84 24.56 1410.84 22.98C1410.84 21.42 1411.98 20.38 1413.38 20.38C1414.74 20.38 1415.88 21.42 1415.88 22.98C1415.88 24.56 1414.74 25.58 1413.38 25.58ZM1427.39 17.82C1425.77 17.82 1424.67 18.58 1423.93 19.7V17.96H1420.73V28H1423.93V24.86C1423.93 22.26 1425.15 21.1 1427.39 21.1H1427.97L1428.11 17.9C1427.87 17.84 1427.67 17.82 1427.39 17.82ZM1439.26 22.98C1439.2 19.7 1436.92 17.66 1434.08 17.66C1431.16 17.66 1428.76 19.82 1428.76 22.98C1428.76 26.16 1431.16 28.3 1434.06 28.3C1436.36 28.3 1438.18 27.28 1439.04 25.16L1436.2 24.58C1435.66 25.56 1434.8 25.74 1434.06 25.74C1432.98 25.74 1432.16 25 1431.9 23.8H1439.26V22.98ZM1434.08 20.26C1435 20.26 1435.8 20.76 1436.1 21.84H1431.96C1432.26 20.82 1433.18 20.26 1434.08 20.26Z" fill="#333333"/>
<rect x="1358" y="422" width="116" height="36" fill="white" stroke="black" stroke-width="4"/>
<path d="M1404.46 432.2V447H1401.04V432.2H1404.46ZM1408.66 434.68C1408.06 434.68 1407.56 434.507 1407.18 434.16C1406.8 433.8 1406.62 433.36 1406.62 432.84C1406.62 432.307 1406.8 431.867 1407.18 431.52C1407.56 431.16 1408.06 430.98 1408.66 430.98C1409.24 430.98 1409.72 431.16 1410.1 431.52C1410.48 431.867 1410.68 432.307 1410.68 432.84C1410.68 433.36 1410.48 433.8 1410.1 434.16C1409.72 434.507 1409.24 434.68 1408.66 434.68ZM1410.36 435.84V447H1406.94V435.84H1410.36ZM1417.86 443.8L1420.28 435.84H1423.92L1419.96 447H1415.74L1411.78 435.84H1415.44L1417.86 443.8ZM1435.88 441.24C1435.88 441.56 1435.86 441.893 1435.82 442.24H1428.08C1428.13 442.933 1428.35 443.467 1428.74 443.84C1429.14 444.2 1429.62 444.38 1430.2 444.38C1431.05 444.38 1431.64 444.02 1431.98 443.3H1435.62C1435.43 444.033 1435.09 444.693 1434.6 445.28C1434.12 445.867 1433.51 446.327 1432.78 446.66C1432.04 446.993 1431.22 447.16 1430.32 447.16C1429.22 447.16 1428.25 446.927 1427.4 446.46C1426.54 445.993 1425.88 445.327 1425.4 444.46C1424.92 443.593 1424.68 442.58 1424.68 441.42C1424.68 440.26 1424.91 439.247 1425.38 438.38C1425.86 437.513 1426.52 436.847 1427.38 436.38C1428.23 435.913 1429.21 435.68 1430.32 435.68C1431.4 435.68 1432.36 435.907 1433.2 436.36C1434.04 436.813 1434.69 437.46 1435.16 438.3C1435.64 439.14 1435.88 440.12 1435.88 441.24ZM1432.38 440.34C1432.38 439.753 1432.18 439.287 1431.78 438.94C1431.38 438.593 1430.88 438.42 1430.28 438.42C1429.7 438.42 1429.22 438.587 1428.82 438.92C1428.43 439.253 1428.19 439.727 1428.1 440.34H1432.38Z" fill="#333333"/>
<rect x="1357.5" y="421.5" width="117" height="37" fill="white" stroke="black" stroke-width="3"/>
<path d="M1404.4 436.66C1402.84 436.66 1401.64 437.32 1400.84 438.36C1400.16 437.26 1398.96 436.66 1397.56 436.66C1396.26 436.66 1395.28 437.12 1394.6 437.88V436.96H1391.4V447H1394.6V442.08C1394.6 440.4 1395.36 439.54 1396.52 439.54C1397.48 439.54 1398.22 440.26 1398.22 441.4V447H1401.42V442.08C1401.42 440.4 1402.2 439.54 1403.38 439.54C1404.32 439.54 1405.06 440.26 1405.06 441.4V447H1408.24V440.72C1408.24 438.28 1406.54 436.66 1404.4 436.66ZM1415.38 436.66C1412.3 436.66 1409.76 438.82 1409.76 441.98C1409.76 445.16 1412.3 447.3 1415.38 447.3C1418.42 447.3 1420.96 445.16 1420.96 441.98C1420.96 438.82 1418.42 436.66 1415.38 436.66ZM1415.38 444.58C1413.98 444.58 1412.84 443.56 1412.84 441.98C1412.84 440.42 1413.98 439.38 1415.38 439.38C1416.74 439.38 1417.88 440.42 1417.88 441.98C1417.88 443.56 1416.74 444.58 1415.38 444.58ZM1429.39 436.82C1427.77 436.82 1426.67 437.58 1425.93 438.7V436.96H1422.73V447H1425.93V443.86C1425.93 441.26 1427.15 440.1 1429.39 440.1H1429.97L1430.11 436.9C1429.87 436.84 1429.67 436.82 1429.39 436.82ZM1441.26 441.98C1441.2 438.7 1438.92 436.66 1436.08 436.66C1433.16 436.66 1430.76 438.82 1430.76 441.98C1430.76 445.16 1433.16 447.3 1436.06 447.3C1438.36 447.3 1440.18 446.28 1441.04 444.16L1438.2 443.58C1437.66 444.56 1436.8 444.74 1436.06 444.74C1434.98 444.74 1434.16 444 1433.9 442.8H1441.26V441.98ZM1436.08 439.26C1437 439.26 1437.8 439.76 1438.1 440.84H1433.96C1434.26 439.82 1435.18 439.26 1436.08 439.26Z" fill="#333333"/>
</svg>
